<?xml version="1.0" encoding="utf-8"?>
<!-- Generator: Adobe Illustrator 25.0.0, SVG Export Plug-In . SVG Version: 6.00 Build 0)  -->
<svg version="1.1" id="Layer_1" xmlns="http://www.w3.org/2000/svg" xmlns:xlink="http://www.w3.org/1999/xlink" x="0px" y="0px"
	 viewBox="0 0 215 62" style="enable-background:new 0 0 215 62;" xml:space="preserve">
<style type="text/css">
	.st0{fill-rule:evenodd;clip-rule:evenodd;fill:#1D1D1B;}
	.st1{fill:#F6851F;}
	.st2{fill:#1D1D1B;}
</style>
<path class="st0" d="M74.1,24.3h10.5l3.9,4.2H74.1V24.3z M96.2,39.4H77.6c-5.4,0-7.6-1.8-7.5-6.5v-1l4.1-3.3v2.6
	c0,2.8,1.2,4.2,3.4,4.2H95c0,0,0.1,0,0.1,0c1.2,0,3.7,0,3.7-3v-3.4l4-4v8.5C102.8,36.8,99.9,39.4,96.2,39.4z M132.6,35.4
	c1.6,0,2.4-1.1,2.4-3.4V29l4.1-3.9v8.1c0,1.7-0.4,3.1-1.3,4.2c-1,1.3-2.4,1.9-4.3,1.9h-7.3c-3.5,0-5.2-1.7-5.2-5.2V22.9l4.1-3.9
	v16.3H132.6z M129.7,46.6h2.4c0.9,0,1.5,0.7,1.7,1l-1.5,1.5L129.7,46.6z M121.9,41.6c2.2,0,11.8,0,11.9,0c1.8,0,3.3,0.6,4.3,1.9
	c0,0,0,0,0,0l-3.5,3.3c-0.6-0.8-1.4-1.3-2.3-1.3H126L121.9,41.6z M109.3,39.4h-4.1V23.3l4.1-4V39.4z M110.3,41.6
	c2.8-0.1,4.3-1.8,4.3-4.7V29l4.1-3.9v11.5c0,8.5-4.9,9.1-5.8,9.1L110.3,41.6z M135,18.7c0.1-1.4,1.5-6,8.2-6h8.1l-4.2,4.2h-4.3
	c-3,0-3.7,1.7-3.7,4.4L135,18.7z M145.5,39.4h-4.1V23l4.1-3.9V39.4z M8.1,21.7c0,0.3,0,0.6,0,0.9c0.1,0,0.2,0,0.2,0h0
	c0.1,0,0.2,0,0.2,0c1.1-0.4,2.2-0.8,3.3-1.2l0.7-0.3c0.6-0.2,1.2-0.5,1.8-0.7l0,0l0,0c2-0.8,4.1-1.5,6.1-2.3
	c0.2-0.1,0.5-0.4,0.5-0.7c0-0.8,0-1.7,0-2.5c0-0.2,0-0.3,0-0.5c0-0.1,0-0.3-0.1-0.4l0,0c0-0.1,0-0.1,0-0.2c-0.5,0.2-1.1,0.4-1.6,0.6
	l0,0c-1.2,0.5-2.4,0.9-3.6,1.3c-1.2,0.4-2.4,0.9-3.6,1.3l0,0c-1.2,0.4-2.4,0.9-3.6,1.3c-0.2,0.1-0.4,0.3-0.4,0.4
	C8.1,19.7,8.1,20.7,8.1,21.7z M4.1,35.4c-1.4,0-2.7,0-4.1,0v0c0,1.3,0,2.7,0,4c1.3,0,2.7,0,4,0h0c4.3,0,8.5,0,12.8-0.1
	c1,0,2-0.2,2.9-0.5c2.6-0.9,3.6-4.7,1.8-7c-0.2-0.2-0.3-0.4-0.5-0.6l0,0l0,0v0h0v0c-1.2-1.5-2.3-2.9-3.5-4.4
	c-0.9-1.1-1.9-2.2-2.9-3.3c-0.4-0.5-0.9-1-1.3-1.4c-0.2-0.2-0.5-0.5-0.8-0.2c-0.8,0.8-1.6,1.6-2.4,2.4c-0.1,0.1-0.1,0.5,0,0.7
	c0.7,0.8,1.5,1.6,2.2,2.3c0.3,0.3,0.5,0.5,0.8,0.8l0.6,0.6c1.3,1.3,2.5,2.6,3.8,4c0.6,0.6,0.5,1.3,0.2,2c-0.2,0.6-0.8,0.6-1.4,0.6
	C12.3,35.4,8.2,35.4,4.1,35.4z M53,40c0-0.2,0.1-0.3,0.1-0.5c0.1,0,0.2,0,0.4,0c0.1,0,0.2,0,0.3,0c0.6,0,1.2,0,1.7,0h0h0h0h0
	c1.4,0,2.7,0,4-0.1c1.1-0.1,2.2-0.3,3.2-0.7c2-0.7,2.9-3.8,2.2-5.4c-0.5-1.1-1-2.2-1.8-3.1c-1.7-2-3.4-3.9-5.1-5.8l0,0l0,0
	c-0.7-0.8-1.3-1.5-2-2.3c-0.3-0.3-0.5-0.4-0.8,0c-0.7,0.7-1.4,1.4-2.1,2.1c-0.4,0.4-0.4,0.7,0,1.1c2.2,2.3,4.4,4.6,6.6,6.9
	c0.4,0.4,0.8,1,1,1.5c0.2,0.7-0.2,1.7-0.9,1.7c-1.6,0-3.2,0-4.8,0h0h0h0h0h0c-0.6,0-1.3,0-1.9,0c0-0.2,0-0.3,0-0.5v0v0v0v0
	c0-0.3,0-0.7-0.1-1c-0.1-0.5-0.1-0.9-0.2-1.4c-0.1-1.2-0.3-2.4-0.5-3.6c-0.5-2.1-1.9-3.7-4.1-4c-1.3-0.2-2.7-0.2-4-0.1
	C42.3,25,41,26,40.2,27.7c-0.7,1.4-0.8,3-0.8,4.5c0,1.1,0.2,2.2,0.5,3.2c0.7,2.1,2.4,3.1,4.4,3.6c0.5,0.1,1,0.1,1.4-0.4
	c0.4-0.4,0.8-0.8,1.2-1.2l0,0c0.1-0.1,0.3-0.3,0.4-0.4c0.3-0.3,0.5-0.5,0.9-0.8l0,0c0.2-0.1,0.3-0.3,0.5-0.5c0,0.4,0,0.8,0,1.2v0v0
	v0v0c0,0.7,0,1.4,0,2c0,2.9-1.9,5.2-4.8,5.5c-0.4,0.1-0.8,0.1-1.1,0.2l0,0c-0.2,0-0.5,0.1-0.8,0.1c0.2,0.3,0.3,0.5,0.5,0.8
	c0.6,0.9,1.2,1.8,1.9,2.7c0.1,0.2,0.4,0.3,0.7,0.2c1.4-0.2,2.8-0.7,3.9-1.5c1.9-1.4,3.3-3.2,3.6-5.7C52.8,40.8,52.9,40.4,53,40z
	 M48.9,34.2c0,0.4,0,0.9,0,1.3c-0.4,0-0.8-0.1-1.2-0.1c-0.8-0.1-1.6-0.1-2.3-0.3c-1.6-0.4-2.1-2.1-1.8-3.7l0-0.1l0,0
	c0.1-0.5,0.1-1,0.4-1.4c0.7-1.4,2.5-1.7,3.7-0.8c0.8,0.6,1.3,1.5,1.3,2.6C48.9,32.5,48.9,33.3,48.9,34.2z M22.5,39.1L22.5,39.1
	L22.5,39.1c0.1-0.1,0.1-0.3,0.2-0.3c0.6-0.6,1.2-1.3,1.8-1.9l0,0c0.3-0.3,0.6-0.6,0.9-1c0.3-0.4,0.7-0.5,1.2-0.5c1,0,2.1,0,3.1,0
	c1,0,1.9,0,2.9,0c0.7,0,1.4-0.2,1.6-0.8c0.3-0.6-0.1-1.2-0.5-1.7c-0.8-0.8-1.5-1.6-2.2-2.4l0,0c-1-1-1.9-2-2.9-3
	c-0.3-0.4-0.4-0.6,0-1c0.5-0.5,1-1.1,1.5-1.7c0.1-0.1,0.1-0.2,0.2-0.2c0.3-0.3,0.5-0.4,0.8,0c0.9,0.9,1.7,1.8,2.6,2.8l0,0l0,0l0,0
	c1,1.1,2.1,2.2,3.1,3.3c1.2,1.4,1.7,3,1.4,4.8c-0.2,1.5-1.2,2.7-2.6,3.3c-0.8,0.4-1.8,0.7-2.7,0.7c-2.4,0.1-4.9,0-7.3,0l0,0h0h0h0h0
	h0c-0.9,0-1.9,0-2.8,0c0,0-0.1,0-0.2,0h0c-0.1,0-0.1,0-0.3,0C22.4,39.3,22.5,39.2,22.5,39.1L22.5,39.1z M50.8,22.6
	c0-0.3,0-0.6,0-0.9v0c0-1,0-2,0-3c0-0.1,0.2-0.3,0.3-0.4c1.5-0.5,3-1.1,4.4-1.6c0.9-0.3,1.9-0.7,2.8-1c1.2-0.4,2.4-0.9,3.6-1.3
	c0.5-0.2,1.1-0.4,1.7-0.6c0,0.1,0,0.1,0.1,0.2l0,0c0,0.1,0.1,0.2,0.1,0.3c0,0.1,0,0.3,0,0.4v0c0,0.9,0,1.8,0,2.7
	c0,0.2-0.3,0.6-0.5,0.6c-1.9,0.7-3.9,1.4-5.8,2.2c-0.7,0.3-1.5,0.5-2.2,0.8c-0.3,0.1-0.6,0.2-0.9,0.3l0,0c-1,0.4-2,0.8-3,1.1
	c-0.1,0-0.2,0.1-0.3,0.1C50.9,22.6,50.9,22.6,50.8,22.6z"/>
<path class="st1" d="M190.6,56.4c2.1-4,3.6-8.2,4.6-12.5c1-4.3,0.7-8.6-0.8-12.8c-0.2-0.5-0.1-0.7,0.3-1.1c2.9-2.8,5.4-5.8,6.7-9.6
	c0.5-1.4,0.8-2.8,0.6-4.3c-0.1-0.6-0.3-1.2-1-1.4c-0.7-0.2-1.3,0.1-1.8,0.6c-0.3,0.3-0.4,0.7-0.6,1.1c-1.3,3-3,5.8-5.7,7.9
	c-0.8,0.6-1.6,1-2.5,1.5c4.2-3,4.2-8.1,1.6-11.1c-2.5-3-7-3.4-10.2-0.9c-2.8,2.2-4.2,7.1-0.5,11c0,0.1-0.1,0.1-0.1,0.2
	c-1.2-1.1-2.5-2.1-3.6-3.3c-1.5-1.7-2.9-3.5-4.3-5.4c-0.7-0.9-1.7-1.1-2.5-0.3c-1,0.8-1.2,2.2-0.7,3.5c0.8,1.9,2,3.5,3.4,5
	c1.4,1.5,2.9,2.9,4.3,4.5c1.4,1.7,2.3,3.7,2,6c-0.2,1.5-1,2.7-1.9,3.7c-1.4,1.6-2.9,3-4.3,4.5c-0.7,0.7-1.3,1.4-2,2.1
	c-0.3,0.4-0.6,0.9-0.8,1.3c-1,2.4,0.4,4.3,2.9,3.9c1.4-0.2,2.7-0.5,4-0.9c1.5-0.5,3-1.1,4.5-1.6c0.5-0.2,1.1-0.3,1.6-0.4
	c1.3-0.1,2.2,0.5,2.3,1.8c0,1-0.1,2-0.4,2.9c-0.6,1.5-1.4,3-2.1,4.5c-0.1,0.2-0.5,0.3-0.8,0.2c-4.8-0.4-9.3-1.9-13.2-4.8
	c-7.4-5.5-11.1-13-10.9-22.2c0.3-12.2,9.6-22.8,21.7-24.7c14.1-2.3,27.1,6.5,30,20.5c1.8,8.7-0.4,16.4-6.4,23
	c-3.5,3.9-7.9,6.4-13.1,7.7C190.9,56.4,190.8,56.4,190.6,56.4z"/>
<path class="st2" d="M180.8,2.7l-5.5-1.5c-5-1.3-10.1,1.6-11.4,6.6l-1.4,5.2C166.9,7.5,173.4,3.7,180.8,2.7z"/>
<path class="st2" d="M156.5,35.5l-1.4,5.1c-1.3,5,1.6,10.1,6.6,11.4l5.3,1.4C161.5,49.1,157.7,42.7,156.5,35.5z"/>
<path class="st2" d="M208.1,9.9l-5.9-1.6c5.9,4.5,10,11.3,10.9,19.1l1.6-6.1C216,16.3,213,11.2,208.1,9.9z"/>
<path class="st2" d="M188.9,59.2l5.7,1.5c5,1.3,10.1-1.6,11.4-6.6l1.6-6C203.2,54,196.5,58.1,188.9,59.2z"/>
</svg>
