<?xml version="1.0" encoding="utf-8"?>
<!-- Generator: Adobe Illustrator 25.0.0, SVG Export Plug-In . SVG Version: 6.00 Build 0)  -->
<svg version="1.1" id="Layer_1" xmlns="http://www.w3.org/2000/svg" xmlns:xlink="http://www.w3.org/1999/xlink" x="0px" y="0px"
	 viewBox="0 0 69 91" style="enable-background:new 0 0 69 91;" xml:space="preserve">
<style type="text/css">
	.st0{fill:#F6851F;}
	.st1{fill:#1D1D1B;}
	.st2{fill-rule:evenodd;clip-rule:evenodd;fill:#1D1D1B;}
</style>
<path class="st0" d="M39.8,49.4c1.9-3.6,3.2-7.3,4.1-11.1c0.9-3.9,0.6-7.6-0.7-11.4c-0.1-0.4-0.1-0.7,0.3-1c2.6-2.4,4.8-5.1,6-8.6
	c0.4-1.2,0.7-2.5,0.5-3.8c-0.1-0.6-0.3-1.1-0.9-1.2c-0.6-0.2-1.2,0-1.6,0.5c-0.2,0.3-0.4,0.6-0.6,1c-1.2,2.7-2.7,5.2-5.1,7
	c-0.7,0.5-1.4,0.9-2.2,1.3c3.7-2.6,3.7-7.2,1.5-9.8c-2.3-2.7-6.3-3.1-9-0.8c-2.5,2-3.7,6.3-0.4,9.8c0,0-0.1,0.1-0.1,0.1
	c-1.1-1-2.2-1.8-3.2-2.9c-1.3-1.5-2.6-3.2-3.8-4.8c-0.6-0.8-1.5-0.9-2.3-0.3c-0.9,0.7-1.1,1.9-0.6,3.1c0.7,1.7,1.8,3.1,3,4.4
	c1.2,1.3,2.6,2.6,3.8,4c1.3,1.5,2,3.3,1.8,5.3c-0.2,1.3-0.9,2.4-1.7,3.3c-1.2,1.4-2.6,2.7-3.8,4c-0.6,0.6-1.2,1.2-1.7,1.9
	c-0.3,0.4-0.6,0.8-0.7,1.2c-0.9,2.1,0.3,3.8,2.6,3.5c1.2-0.2,2.4-0.5,3.6-0.8c1.3-0.4,2.6-1,4-1.4c0.5-0.2,0.9-0.3,1.4-0.3
	c1.2-0.1,2,0.5,2,1.6c0,0.9,0,1.8-0.3,2.6c-0.5,1.4-1.2,2.7-1.9,4c-0.1,0.2-0.5,0.2-0.7,0.2c-4.3-0.3-8.3-1.7-11.8-4.3
	c-6.6-4.9-9.9-11.5-9.7-19.8c0.3-10.8,8.6-20.3,19.3-22c12.5-2,24.1,5.8,26.7,18.2c1.6,7.7-0.4,14.6-5.7,20.4
	c-3.1,3.5-7.1,5.7-11.6,6.8C40.1,49.4,40,49.4,39.8,49.4z"/>
<path class="st1" d="M31.1,1.6l-4.9-1.3c-4.4-1.2-9,1.5-10.1,5.9l-1.2,4.6C18.8,5.9,24.5,2.5,31.1,1.6z"/>
<path class="st1" d="M9.5,30.8l-1.2,4.5c-1.2,4.4,1.5,9,5.9,10.1l4.7,1.3C14,42.9,10.5,37.2,9.5,30.8z"/>
<path class="st1" d="M55.3,8l-5.3-1.4c5.2,4,8.9,10.1,9.7,17l1.4-5.5C62.4,13.7,59.8,9.2,55.3,8z"/>
<path class="st1" d="M38.3,51.9l5,1.3c4.4,1.2,9-1.5,10.1-5.9l1.4-5.4C51,47.2,45.1,50.9,38.3,51.9z"/>
<path class="st2" d="M33.8,78.9h4.8l1.8,1.9h-6.6V78.9z M43.9,85.7h-8.5c-2.5,0-3.4-0.8-3.4-3v-0.5l1.8-1.5V82
	c0,1.3,0.5,1.9,1.6,1.9h7.9c0,0,0,0,0.1,0c0.6,0,1.7,0,1.7-1.4V81l1.8-1.8V83C46.9,84.6,45.6,85.7,43.9,85.7z M60.5,83.9
	c0.7,0,1.1-0.5,1.1-1.5V81l1.9-1.8V83c0,0.8-0.2,1.4-0.6,1.9c-0.5,0.6-1.1,0.9-1.9,0.9h-3.3c-1.6,0-2.4-0.8-2.4-2.4v-5.1l1.9-1.8
	v7.5H60.5z M59.1,89.1h1.1c0.4,0,0.7,0.3,0.8,0.5l-0.7,0.7L59.1,89.1z M55.6,86.8c1,0,5.4,0,5.4,0c0.8,0,1.5,0.3,1.9,0.9
	c0,0,0,0,0,0h0l-1.6,1.5c-0.3-0.4-0.6-0.6-1-0.6h-2.8L55.6,86.8z M49.8,85.7H48v-7.3l1.9-1.8V85.7z M50.3,86.8c1.3-0.1,2-0.8,2-2.1
	V81l1.9-1.8v5.2c0,3.9-2.2,4.1-2.7,4.2L50.3,86.8z M61.6,76.3c0-0.6,0.7-2.7,3.7-2.7H69l-1.9,1.9h-2c-1.4,0-1.7,0.8-1.7,2L61.6,76.3
	z M66.3,85.7h-1.9v-7.5l1.9-1.8V85.7z M3.7,77.7c0,0.1,0,0.3,0,0.4c0,0,0.1,0,0.1,0h0c0,0,0.1,0,0.1,0c0.5-0.2,1-0.4,1.5-0.6
	l0.3-0.1c0.3-0.1,0.6-0.2,0.8-0.3h0c0.9-0.3,1.9-0.7,2.8-1c0.1,0,0.2-0.2,0.2-0.3c0-0.4,0-0.8,0-1.2l0,0c0-0.1,0-0.1,0-0.2
	c0-0.1,0-0.1,0-0.2l0,0c0,0,0-0.1,0-0.1c-0.2,0.1-0.5,0.2-0.7,0.3l0,0c-0.6,0.2-1.1,0.4-1.7,0.6c-0.6,0.2-1.1,0.4-1.7,0.6
	C5,75.8,4.4,76,3.9,76.2c-0.1,0-0.2,0.1-0.2,0.2C3.7,76.8,3.7,77.2,3.7,77.7z M1.9,84L0,84v0c0,0.6,0,1.2,0,1.8c0.6,0,1.2,0,1.8,0
	c1.9,0,3.9,0,5.8,0c0.4,0,0.9-0.1,1.3-0.2c1.2-0.4,1.6-2.2,0.8-3.2l-0.2-0.3c-0.5-0.7-1.1-1.3-1.6-2c-0.4-0.5-0.9-1-1.3-1.5
	c-0.2-0.2-0.4-0.4-0.6-0.7c-0.1-0.1-0.2-0.2-0.4-0.1c-0.4,0.4-0.7,0.7-1.1,1.1c-0.1,0.1,0,0.2,0,0.3c0.3,0.4,0.7,0.7,1,1.1h0h0h0
	l0,0c0.1,0.1,0.2,0.2,0.4,0.4L6.3,81c0.6,0.6,1.1,1.2,1.7,1.8c0.3,0.3,0.2,0.6,0.1,0.9C8,84,7.8,84,7.5,84C5.6,83.9,3.8,83.9,1.9,84
	L1.9,84L1.9,84L1.9,84L1.9,84z M24.2,86L24.2,86L24.2,86c0-0.1,0-0.1,0-0.2c0.1,0,0.1,0,0.2,0h0h0c0.1,0,0.1,0,0.2,0
	c0.3,0,0.5,0,0.8,0c0.6,0,1.2,0,1.8,0c0.5,0,1-0.1,1.5-0.3c0.9-0.3,1.3-1.7,1-2.5c-0.2-0.5-0.5-1-0.8-1.4c-0.8-0.9-1.5-1.8-2.3-2.6
	h0v0h0v0c-0.3-0.3-0.6-0.7-0.9-1c-0.1-0.1-0.2-0.2-0.4,0c-0.3,0.3-0.6,0.7-1,1c-0.2,0.2-0.2,0.3,0,0.5c1,1,2,2.1,3,3.2
	c0.2,0.2,0.4,0.4,0.4,0.7c0.1,0.3-0.1,0.8-0.4,0.8c-0.7,0-1.4,0-2.2,0l0,0c-0.3,0-0.6,0-0.9,0c0-0.1,0-0.1,0-0.2c0-0.2,0-0.3,0-0.4
	c0-0.2,0-0.4-0.1-0.6l0,0v0l0,0l0,0c-0.1-0.5-0.1-1.1-0.2-1.6c-0.2-1-0.9-1.7-1.9-1.8c-0.6-0.1-1.2-0.1-1.8-0.1
	c-0.8,0.1-1.4,0.5-1.8,1.3C18,81.1,18,81.8,18,82.5c0,0.5,0.1,1,0.2,1.4c0.3,1,1.1,1.4,2,1.6c0.2,0.1,0.5,0.1,0.7-0.2
	c0.2-0.2,0.4-0.4,0.6-0.6l0,0c0.1-0.1,0.1-0.1,0.2-0.2c0.1-0.1,0.2-0.2,0.4-0.4l0,0l0,0v0c0.1-0.1,0.1-0.1,0.2-0.2
	c0,0.2,0,0.4,0,0.5v0v0v0v0c0,0.3,0,0.6,0,0.9c0,1.3-0.9,2.3-2.2,2.5c-0.2,0-0.3,0-0.5,0.1h0c-0.1,0-0.2,0-0.3,0.1
	c0.1,0.1,0.2,0.2,0.2,0.3l0,0l0,0l0,0c0.3,0.4,0.6,0.8,0.8,1.2c0.1,0.1,0.2,0.1,0.3,0.1c0.7-0.1,1.3-0.3,1.8-0.7
	c0.9-0.7,1.5-1.5,1.7-2.6C24.1,86.4,24.1,86.2,24.2,86z M22.3,83.4c0,0.2,0,0.4,0,0.6c-0.2,0-0.4,0-0.5-0.1h0l0,0l0,0l0,0
	c-0.4,0-0.7-0.1-1.1-0.2c-0.7-0.2-0.9-1-0.8-1.7l0,0c0-0.2,0.1-0.5,0.2-0.7c0.3-0.6,1.1-0.8,1.7-0.4c0.4,0.3,0.6,0.7,0.6,1.2
	C22.3,82.6,22.3,83,22.3,83.4z M10.3,85.6L10.3,85.6c0-0.1,0.1-0.1,0.1-0.2c0.3-0.3,0.5-0.6,0.8-0.9l0,0l0,0l0,0
	c0.1-0.1,0.3-0.3,0.4-0.4c0.2-0.2,0.3-0.2,0.6-0.2c0.5,0,0.9,0,1.4,0c0.4,0,0.9,0,1.3,0c0.3,0,0.6-0.1,0.7-0.4
	c0.1-0.3,0-0.6-0.2-0.8c-0.3-0.4-0.7-0.7-1-1.1l0,0l0,0c-0.4-0.5-0.9-0.9-1.3-1.4c-0.2-0.2-0.2-0.3,0-0.4c0.2-0.2,0.5-0.5,0.7-0.8
	l0.1-0.1c0.1-0.2,0.2-0.2,0.4,0c0.4,0.4,0.8,0.8,1.2,1.3l0,0c0.5,0.5,1,1,1.4,1.5c0.6,0.6,0.8,1.4,0.6,2.2c-0.1,0.7-0.5,1.2-1.2,1.5
	c-0.4,0.2-0.8,0.3-1.2,0.3c-1.1,0-2.2,0-3.3,0l0,0l0,0h0l0,0h0h0c-0.4,0-0.9,0-1.3,0c0,0,0,0-0.1,0c0,0-0.1,0-0.1,0
	C10.2,85.7,10.2,85.7,10.3,85.6z M23.1,77.7L23.1,77.7c0-0.5,0-0.9,0-1.4c0-0.1,0.1-0.1,0.2-0.2c0.7-0.2,1.3-0.5,2-0.7
	c0.4-0.2,0.8-0.3,1.3-0.5c0.5-0.2,1.1-0.4,1.6-0.6l0,0c0.2-0.1,0.5-0.2,0.8-0.3c0,0,0,0.1,0,0.1c0,0.1,0,0.1,0,0.2l0,0.2
	c0,0.4,0,0.8,0,1.2c0,0.1-0.1,0.3-0.2,0.3c-0.9,0.3-1.8,0.7-2.6,1c-0.3,0.1-0.7,0.2-1,0.4l-0.4,0.2h0c-0.5,0.2-0.9,0.3-1.4,0.5
	c0,0-0.1,0-0.2,0c0,0-0.1,0-0.1,0C23.1,78,23.1,77.8,23.1,77.7z"/>
</svg>
