<svg xmlns="http://www.w3.org/2000/svg" viewBox="0 0 62.49 106.54"><defs><style>.cls-1{fill:#eb195b;}</style></defs><title>Asset 1</title><g id="Layer_2" data-name="Layer 2"><g id="Layer_1-2" data-name="Layer 1"><path d="M27,2,21,.32A9.28,9.28,0,0,0,9.59,6.87L8,12.94A29.79,29.79,0,0,1,27,2"/><path d="M60.56,27.1,62.2,21a9.28,9.28,0,0,0-6.63-11.3L49.5,8.1a29.79,29.79,0,0,1,11,19"/><path d="M2,35.55.32,41.62A9.28,9.28,0,0,0,6.87,53l6.07,1.63a29.79,29.79,0,0,1-11-19"/><path d="M35.48,60.62l6.07,1.63A9.28,9.28,0,0,0,52.9,55.7l1.63-6.07a29.79,29.79,0,0,1-19,11"/><path class="cls-1" d="M41.12,31.7a7.49,7.49,0,1,1,9.16-5.29,7.49,7.49,0,0,1-9.16,5.29m-5,18.67a7.49,7.49,0,1,1,9.16-5.29,7.49,7.49,0,0,1-9.16,5.29m-8-20a3.33,3.33,0,1,1,2.35,4.06,3.33,3.33,0,0,1-2.35-4.06M17.53,45.32A7.49,7.49,0,1,1,26.69,40a7.49,7.49,0,0,1-9.16,5.29M26.4,12.26a7.49,7.49,0,1,1-9.16,5.29,7.49,7.49,0,0,1,9.16-5.29M38.3,5A27.22,27.22,0,1,0,57.55,38.37,27.23,27.23,0,0,0,38.3,5"/><path d="M13.62,103.67c0,.24-.09.36-.25.36h-.74a1.06,1.06,0,0,0-.74-1.09,2.2,2.2,0,0,0-.67-.07v.43q.91,0,.91.74H10.84v.49h2.64a.58.58,0,0,0,.49-.22.74.74,0,0,0,.16-.48v-.95h-.5Zm6.75.9h.5v-2.34h-.5Zm-1.31-1.65h-.28l.45-.7h-.59l-.71,1.16h.9a.67.67,0,0,1,.48.2.82.82,0,0,1,.24.5H17.62a1,1,0,0,1-.5-.09.47.47,0,0,1-.2-.44h-.49q0,1,1.18,1H20.1v-.19q0-1.35-1-1.46m-3.75,1.15q-.31,0-.31-.37c0-.25.1-.37.29-.37s.3.13.3.38-.1.37-.29.36m0-1.2a.77.77,0,0,0-.58.23.83.83,0,0,0-.23.6.85.85,0,0,0,.23.61.76.76,0,0,0,.57.24.38.38,0,0,0,.35-.17.3.3,0,0,1-.12.24.42.42,0,0,1-.27.1h0v.41h0q.81,0,.82-.67v-.74a.85.85,0,0,0-.21-.6.74.74,0,0,0-.57-.24m13.55,1.71h.5v-2.35h-.5Zm-1-.82c0,.22-.09.33-.25.33h-.32a1.09,1.09,0,0,0,.06-.37v-.79h-.5v.83c0,.22-.08.33-.25.33h-.32a1.08,1.08,0,0,0,.06-.37v-.8h-.5v.81q0,.35-.25.35H24a1.13,1.13,0,0,0,.06-.37v-.79h-.5v.81q0,.35-.25.35H21.91v-1.16H21.4v1.36a.43.43,0,0,1-.49.48v.41q.85,0,1-.6h5.78a.67.67,0,0,0,.52-.24.92.92,0,0,0,.21-.62v-.79h-.5Zm22.53-3.31H53V87.87l-2.55,2.44ZM51.6,83.92c-4.13,0-5,2.83-5.09,3.7l2.54,1.64c0-1.63.47-2.71,2.31-2.71H54l2.57-2.63Zm-17.74,15a2.58,2.58,0,0,1-2.69,2.89l1.64,2.53c.58,0,3.61-.38,3.61-5.65V91.57L33.86,94ZM28,100.45h2.55V88L28,90.49Zm17.72,1.38H38.34l2.59,2.49h3.85a1.77,1.77,0,0,1,1.42.8L48.36,103l0,0a3.2,3.2,0,0,0-2.65-1.19m-1,3.13H43.18l1.6,1.57.94-1a1.32,1.32,0,0,0-1-.62m1.84-9.1C46.51,97.26,46,98,45,98H40.36V87.82L37.8,90.26v7c0,2.18,1.06,3.24,3.24,3.24h4.56a3.2,3.2,0,0,0,2.65-1.2,4,4,0,0,0,.83-2.6V91.6L46.51,94Zm-35.62,4.59H22.41a3.87,3.87,0,0,0,4.11-3.68V91.48L24,93.94v2.13c0,2-1.66,1.89-2.37,1.89H10.83c-1.38,0-2.12-.91-2.12-2.62v-1.6l-2.51,2v.64c0,2.9,1.31,4,4.69,4m4.36-9.34H8.72v2.62h8.94Zm8.81,11.12h-.44v.42h.44Zm3.29-.6h-.44V102h.44Zm-.33.6h-.44v.42H27Zm-13.37,2.9h.45v-.43h-.45Zm13.6-2.48h.44v-.42h-.44Zm-3.86-.42H23v.42h.44ZM7.1,104H6.81q-.31,0-.31-.36t.29-.35q.31,0,.31.35Zm2.84-.36c0,.24-.09.36-.25.36H7.59v-.33a.83.83,0,0,0-.22-.6.75.75,0,0,0-.57-.24.78.78,0,0,0-.58.23.81.81,0,0,0-.23.6.82.82,0,0,0,.23.6.78.78,0,0,0,.58.23,1.26,1.26,0,0,0,.31,0c0,.14-.16.21-.35.21h0v.41h.05q.73,0,.81-.6H9.78a.58.58,0,0,0,.49-.22.75.75,0,0,0,.16-.48v-.95h-.5Zm3,1.45h.44v-.42H13Zm-3,0h.44v-.42H10Zm-.67,0h.44v-.42H9.29Z"/></g></g></svg>