<?xml version="1.0" encoding="utf-8"?>
<!-- Generator: Adobe Illustrator 21.0.0, SVG Export Plug-In . SVG Version: 6.00 Build 0)  -->
<svg version="1.1" id="Layer_1" xmlns="http://www.w3.org/2000/svg" xmlns:xlink="http://www.w3.org/1999/xlink" x="0px" y="0px"
	 viewBox="0 0 145.6 50.6" style="enable-background:new 0 0 145.6 50.6;" xml:space="preserve">
<style type="text/css">
	.st0{fill:#EB195B;}
</style>
<title>logo-aparat-horizontal</title>
<g id="Layer_2">
	<g id="Layer_1-2">
		<path d="M11.9,38.1c0,0.4-0.1,0.6-0.4,0.6h-1.1c0.1-0.8-0.4-1.5-1.1-1.7c-0.3-0.1-0.7-0.1-1-0.1v0.7c0.9,0,1.4,0.4,1.4,1.1h-2v0.8
			h4.1c0.3,0,0.6-0.1,0.8-0.3c0.2-0.2,0.3-0.5,0.2-0.7v-1.5h-0.8L11.9,38.1z M22.4,39.5h0.8v-3.6h-0.8V39.5z M20.3,36.9h-0.4
			l0.7-1.1h-0.9l-1.1,1.8H20c0.3,0,0.6,0.1,0.8,0.3c0.2,0.2,0.3,0.5,0.4,0.8h-3c-0.3,0-0.5,0-0.8-0.1c-0.2-0.2-0.3-0.4-0.3-0.7h-0.8
			c0,1.1,0.6,1.6,1.8,1.6H22v-0.3C22,37.8,21.4,37.1,20.3,36.9 M14.5,38.7c-0.3,0-0.5-0.2-0.5-0.6c0-0.4,0.2-0.6,0.5-0.6
			c0.3,0,0.5,0.2,0.5,0.6S14.8,38.8,14.5,38.7 M14.5,36.9c-0.3,0-0.7,0.1-0.9,0.4c-0.2,0.3-0.4,0.6-0.4,0.9c0,0.3,0.1,0.7,0.4,0.9
			c0.2,0.2,0.6,0.4,0.9,0.4c0.2,0,0.4-0.1,0.5-0.3c0,0.1-0.1,0.3-0.2,0.4c-0.1,0.1-0.3,0.2-0.4,0.1h0v0.6h0.1c0.8,0,1.3-0.3,1.3-1
			v-1.2c0-0.3-0.1-0.7-0.3-0.9C15.2,37,14.9,36.9,14.5,36.9 M35.6,39.5h0.8v-3.6h-0.8V39.5z M34.1,38.3c0,0.3-0.1,0.5-0.4,0.5h-0.5
			c0.1-0.2,0.1-0.4,0.1-0.6V37h-0.8v1.3c0,0.3-0.1,0.5-0.4,0.5h-0.5c0.1-0.2,0.1-0.4,0.1-0.6V37h-0.8v1.3c0,0.4-0.1,0.5-0.4,0.5
			h-2.5c0.1-0.2,0.1-0.4,0.1-0.6V37h-0.8v1.3c0,0.4-0.1,0.5-0.4,0.5h-2.2V37H24v2.1c0,0.4-0.2,0.7-0.6,0.8c-0.1,0-0.1,0-0.2,0v0.6
			c0.9,0,1.4-0.3,1.5-0.9h9c0.3,0,0.6-0.1,0.8-0.4c0.2-0.3,0.3-0.6,0.3-1V37h-0.8L34.1,38.3z M69.1,33.1h4V13.5l-4,3.8L69.1,33.1z
			 M71,7.4c-6.4,0-7.8,4.4-7.9,5.8l4,2.5c0-2.5,0.7-4.2,3.6-4.2h4.2l4-4.1L71,7.4z M43.4,30.8c0,2.8-1.5,4.4-4.2,4.5l2.6,3.9
			c0.9,0,5.6-0.6,5.6-8.8V19.3l-4,3.8L43.4,30.8z M34.2,33.1h4V13.8l-4,3.8V33.1z M61.8,35.3H50.3l4,3.9h6c0.9,0,1.7,0.5,2.2,1.2
			l3.4-3.2l0,0C64.9,35.9,63.4,35.2,61.8,35.3 M60.2,40.1h-2.3l2.5,2.4l1.5-1.5C61.5,40.5,60.8,40.2,60.2,40.1 M63,26
			c0,2.2-0.8,3.3-2.4,3.3h-7.2V13.5l-4,3.8v10.8c0,3.4,1.6,5,5,5h7.1c1.6,0.1,3.1-0.6,4.1-1.9c0.9-1.2,1.3-2.6,1.3-4.1v-7.9l-4,3.8
			V26z M7.6,33.1h17.9c3.6,0,6.4-2.5,6.4-5.7v-8.2L28,23v3.3c0,3.1-2.6,2.9-3.7,2.9H7.5c-2.2,0-3.3-1.4-3.3-4.1v-2.5l-3.9,3.2v1
			C0.3,31.4,2.4,33.1,7.6,33.1 M14.4,18.6H4.2v4.1h13.9L14.4,18.6z M28.1,35.9h-0.7v0.7h0.7V35.9z M33.2,34.9h-0.7v0.7h0.7V34.9z
			 M32.7,35.9H32v0.7h0.7V35.9z M11.9,40.4h0.7v-0.7h-0.7L11.9,40.4z M33.1,36.5h0.7v-0.7h-0.7V36.5z M27.1,35.9h-0.7v0.7h0.7
			L27.1,35.9z M1.7,38.7H1.3c-0.3,0-0.5-0.2-0.5-0.6s0.2-0.6,0.5-0.5c0.3,0,0.5,0.2,0.5,0.5V38.7z M6.1,38.1c0,0.4-0.1,0.6-0.4,0.6
			H2.5v-0.5c0-0.3-0.1-0.7-0.3-0.9c-0.2-0.2-0.5-0.4-0.9-0.4c-0.3,0-0.7,0.1-0.9,0.4C0.1,37.5,0,37.8,0,38.2c0,0.3,0.1,0.7,0.4,0.9
			c0.2,0.2,0.6,0.4,0.9,0.4c0.2,0,0.3,0,0.5,0c-0.1,0.2-0.2,0.3-0.5,0.3H1.1v0.6h0.1c0.8,0,1.2-0.3,1.3-0.9h3.4
			c0.3,0,0.6-0.1,0.8-0.3c0.2-0.2,0.3-0.5,0.2-0.7v-1.5H6.1L6.1,38.1z M10.9,40.4h0.7v-0.7h-0.7V40.4z M6.2,40.4h0.7v-0.7H6.2
			L6.2,40.4z M5.1,40.4h0.7v-0.7H5.1V40.4z"/>
		<path d="M113,1.6l-4.9-1.3c-4-1.1-8.1,1.3-9.2,5.3l-1.3,4.9C101.4,5.7,106.9,2.5,113,1.6"/>
		<path d="M140.1,21.9l1.3-4.9c1-4-1.4-8.1-5.4-9.1l-4.9-1.3C136,10.4,139.1,15.9,140.1,21.9"/>
		<path d="M92.7,28.8l-1.3,4.9c-1.1,4,1.3,8.1,5.3,9.2l4.9,1.3C96.8,40.4,93.6,34.9,92.7,28.8"/>
		<path d="M119.8,49l4.9,1.3c4,1.1,8.1-1.3,9.2-5.3l1.3-4.9C131.4,45,125.9,48.1,119.8,49"/>
		<path class="st0" d="M124.4,25.7c-3.2-0.9-5.1-4.2-4.3-7.4c0.9-3.2,4.2-5.1,7.4-4.3c3.2,0.9,5.1,4.2,4.3,7.4c0,0,0,0,0,0
			C130.9,24.6,127.6,26.5,124.4,25.7 M120.3,40.7c-3.2-0.9-5.1-4.2-4.3-7.4c0.9-3.2,4.2-5.1,7.4-4.3c3.2,0.9,5.1,4.2,4.3,7.4
			c0,0,0,0,0,0C126.9,39.7,123.5,41.6,120.3,40.7 M113.8,24.6c0.4-1.4,1.9-2.3,3.3-1.9c1.4,0.4,2.3,1.9,1.9,3.3s-1.9,2.3-3.3,1.9
			c0,0,0,0,0,0C114.3,27.5,113.5,26,113.8,24.6 M105.3,36.7c-3.2-0.9-5.1-4.2-4.3-7.4s4.2-5.1,7.4-4.3s5.1,4.2,4.3,7.4c0,0,0,0,0,0
			C111.8,35.6,108.5,37.5,105.3,36.7 M112.5,9.9c3.2,0.9,5.1,4.2,4.3,7.4s-4.2,5.1-7.4,4.3s-5.1-4.2-4.3-7.4c0,0,0,0,0,0
			C105.9,11,109.2,9.1,112.5,9.9 M122.1,4.1C110.4,1,98.3,7.9,95.1,19.7C92,31.4,99,43.5,110.7,46.6c11.7,3.1,23.8-3.8,26.9-15.6
			c0,0,0,0,0,0C140.8,19.3,133.8,7.3,122.1,4.1"/>
	</g>
</g>
</svg>
