<svg xmlns="http://www.w3.org/2000/svg" viewBox="0 0 73.2 71.53"><defs><style>.cls-1,.cls-4{fill:none;stroke-miterlimit:10;stroke-width:2px;}.cls-1{stroke:#ccc;}.cls-2{fill:#fff;}.cls-3{fill:#dbf3ff;}.cls-4{stroke:#36a9e1;}</style></defs><title>book</title><g id="Layer_2" data-name="Layer 2"><g id="Layer_1-2" data-name="Layer 1"><line class="cls-1" y1="70.53" x2="40.7" y2="70.53"/><line class="cls-1" x1="44.7" y1="70.53" x2="65.1" y2="70.53"/><line class="cls-1" x1="68.8" y1="70.53" x2="73.2" y2="70.53"/><rect class="cls-2" x="17.91" y="13" width="8" height="20"/><rect class="cls-1" x="17.91" y="13" width="8" height="20"/><rect class="cls-2" x="33.91" y="27" width="24" height="6"/><rect class="cls-1" x="33.91" y="27" width="24" height="6"/><rect class="cls-3" x="38.91" y="21" width="19" height="6"/><rect class="cls-4" x="38.91" y="21" width="19" height="6"/><rect class="cls-2" x="25.91" y="44" width="8" height="17"/><rect class="cls-1" x="25.91" y="44" width="8" height="17"/><rect class="cls-3" x="17.91" y="41" width="8" height="20"/><rect class="cls-4" x="17.91" y="41" width="8" height="20"/><rect class="cls-2" x="40.38" y="41.16" width="7.54" height="18.84" transform="translate(-22.83 46.03) rotate(-44.99)"/><rect class="cls-1" x="40.38" y="41.16" width="7.54" height="18.84" transform="translate(-22.83 46.03) rotate(-44.99)"/><line class="cls-4" x1="7.91" y1="61" x2="66.91" y2="61"/><line class="cls-4" x1="7.91" y1="33" x2="66.91" y2="33"/><path class="cls-2" d="M7.6,67v0Z"/><line class="cls-1" x1="7.6" y1="1" x2="7.6" y2="67"/><path class="cls-2" d="M66.6,67v0Z"/><line class="cls-1" x1="66.6" y1="1" x2="66.6" y2="67"/><path class="cls-3" d="M2.6,1h0Z"/><line class="cls-4" x1="2.6" y1="1" x2="70.6" y2="1"/></g></g></svg>