<svg xmlns="http://www.w3.org/2000/svg" viewBox="0 0 81 81.34"><defs><style>.cls-1,.cls-3,.cls-5,.cls-6{fill:none;stroke-width:2px;}.cls-1,.cls-3,.cls-6{stroke:#ccc;}.cls-1,.cls-5,.cls-6{stroke-miterlimit:10;}.cls-2{fill:#fff;}.cls-3,.cls-6{stroke-linecap:round;}.cls-3{stroke-linejoin:round;}.cls-4{fill:#dbf3ff;}.cls-5{stroke:#36a9e1;}</style></defs><title>breakfast</title><g id="Layer_2" data-name="Layer 2"><g id="Layer_1-2" data-name="Layer 1"><line class="cls-1" x1="3.9" y1="80.34" x2="44.6" y2="80.34"/><line class="cls-1" x1="48.6" y1="80.34" x2="69" y2="80.34"/><line class="cls-1" x1="72.7" y1="80.34" x2="77.1" y2="80.34"/><rect class="cls-2" x="2.71" y="18.17" width="25.76" height="50.08"/><rect class="cls-3" x="2.71" y="18.17" width="25.76" height="50.08"/><rect class="cls-2" x="28.47" y="18.17" width="8.59" height="50.08"/><rect class="cls-3" x="28.47" y="18.17" width="8.59" height="50.08"/><polygon class="cls-2" points="28.49 18.17 32.78 8.15 37.07 18.17 28.49 18.17"/><polygon class="cls-3" points="28.49 18.17 32.78 8.15 37.07 18.17 28.49 18.17"/><polygon class="cls-2" points="32.78 8.15 7.03 8.15 2.73 18.17 28.49 18.17 32.78 8.15"/><polygon class="cls-3" points="32.78 8.15 7.03 8.15 2.73 18.17 28.49 18.17 32.78 8.15"/><rect class="cls-2" x="7" y="1" width="25.76" height="7.15"/><rect class="cls-1" x="7" y="1" width="25.76" height="7.15"/><path class="cls-4" d="M15.61,28.2a4.3,4.3,0,1,1-4.29,4.3,4.3,4.3,0,0,1,4.29-4.3"/><path class="cls-5" d="M15.61,28.2a4.3,4.3,0,1,1-4.29,4.3A4.3,4.3,0,0,1,15.61,28.2Z"/><path class="cls-2" d="M11.82,61.55,2.3,68.35A3.1,3.1,0,0,0,4.1,74H16.18Z"/><path class="cls-6" d="M11.82,61.55,2.3,68.35A3.1,3.1,0,0,0,4.1,74H16.18Z"/><path class="cls-2" d="M22.6,56.2l-9.4,2.68A3.11,3.11,0,0,0,11,62.47L13.32,74H27.48Z"/><path class="cls-6" d="M22.6,56.2l-9.4,2.68A3.11,3.11,0,0,0,11,62.47L13.32,74H27.48Z"/><path class="cls-2" d="M48.5,74H23.16L20.92,57.46A3.1,3.1,0,0,1,23.58,54a2.83,2.83,0,0,1,.41,0H48.5Z"/><path class="cls-6" d="M48.5,74H23.16L20.92,57.46A3.1,3.1,0,0,1,23.58,54a2.83,2.83,0,0,1,.41,0H48.5Z"/><path class="cls-4" d="M62.79,69.68H55.67A14.35,14.35,0,0,1,41.34,55.35V39.63a1.43,1.43,0,0,1,1.43-1.43H75.69a1.43,1.43,0,0,1,1.43,1.43V55.35A14.35,14.35,0,0,1,62.79,69.68"/><path class="cls-5" d="M62.79,69.68H55.67A14.35,14.35,0,0,1,41.34,55.35V39.63a1.43,1.43,0,0,1,1.43-1.43H75.69a1.43,1.43,0,0,1,1.43,1.43V55.35A14.35,14.35,0,0,1,62.79,69.68Z"/><polygon class="cls-4" points="74.28 73.98 45.66 73.98 42.8 68.25 77.14 68.25 74.28 73.98"/><polygon class="cls-5" points="74.28 73.98 45.66 73.98 42.8 68.25 77.14 68.25 74.28 73.98"/><path class="cls-4" d="M47.07,52.51v1.43a10,10,0,0,0,10,10h1.43"/><path class="cls-5" d="M47.07,52.51v1.43a10,10,0,0,0,10,10h1.43"/><polyline class="cls-4" points="47.07 46.62 47.07 43.76 49.93 43.76"/><polyline class="cls-5" points="47.07 46.62 47.07 43.76 49.93 43.76"/><path class="cls-5" d="M50,35.34a4.29,4.29,0,0,1,4.29-4.29H74.89A5.08,5.08,0,0,0,80,26.41,5,5,0,0,0,75,21H57.88a2.19,2.19,0,0,1-2.18-1.79,2.15,2.15,0,0,1,2.12-2.5h6.44a7.17,7.17,0,0,0,7.16-7.15"/><rect class="cls-2" x="9.86" y="41.07" width="11.45" height="2.86"/><rect class="cls-6" x="9.86" y="41.07" width="11.45" height="2.86"/><rect class="cls-2" x="9.86" y="46.79" width="11.45" height="2.86"/><rect class="cls-6" x="9.86" y="46.79" width="11.45" height="2.86"/></g></g></svg>