<svg xmlns="http://www.w3.org/2000/svg" viewBox="0 0 73.2 79.31"><defs><style>.cls-1,.cls-4,.cls-6{fill:none;stroke-width:2px;}.cls-1{stroke:#ccc;}.cls-1,.cls-4{stroke-miterlimit:10;}.cls-2{fill:#fff;}.cls-3{fill:#dbf3ff;}.cls-4,.cls-6{stroke:#36a9e1;}.cls-5{fill:#36a9e1;}.cls-6{stroke-linecap:round;stroke-linejoin:round;}</style></defs><title>cake</title><g id="Layer_2" data-name="Layer 2"><g id="Layer_1-2" data-name="Layer 1"><line class="cls-1" x1="36.22" y1="16.25" x2="36.22" y2="24.25"/><line class="cls-1" x1="20.22" y1="16.25" x2="20.22" y2="24.25"/><line class="cls-1" x1="52.73" y1="16.25" x2="52.73" y2="24.25"/><line class="cls-1" y1="78.31" x2="40.7" y2="78.31"/><line class="cls-1" x1="44.7" y1="78.31" x2="65.1" y2="78.31"/><line class="cls-1" x1="68.8" y1="78.31" x2="73.2" y2="78.31"/><path class="cls-2" d="M65.72,45h-59a3,3,0,0,0-3,3V72.25h65V48a3,3,0,0,0-3-3"/><path class="cls-1" d="M65.72,45h-59a3,3,0,0,0-3,3V72.25h65V48A3,3,0,0,0,65.72,45Z"/><path class="cls-2" d="M61.5,45H10.94V28.71a3,3,0,0,1,3-3H58.5a3,3,0,0,1,3,3Z"/><path class="cls-1" d="M61.5,45H10.94V28.71a3,3,0,0,1,3-3H58.5a3,3,0,0,1,3,3Z"/><path class="cls-3" d="M65.72,45h-59a3,3,0,0,0-3,3v6.6c5.42,0,5.42,3.6,10.83,3.6s5.42-3.6,10.84-3.6,5.41,3.6,10.83,3.6,5.41-3.6,10.83-3.6,5.42,3.6,10.84,3.6,5.41-3.6,10.83-3.6V48a3,3,0,0,0-3-3"/><path class="cls-4" d="M65.72,45h-59a3,3,0,0,0-3,3v6.6c5.42,0,5.42,3.6,10.83,3.6s5.42-3.6,10.84-3.6,5.41,3.6,10.83,3.6,5.41-3.6,10.83-3.6,5.42,3.6,10.84,3.6,5.41-3.6,10.83-3.6V48A3,3,0,0,0,65.72,45Z"/><path class="cls-3" d="M58.5,24.9H13.94a3,3,0,0,0-3,3v5.74a8,8,0,0,0,3.72.8c5.39,0,5.39-3.6,10.78-3.6s5.39,3.6,10.78,3.6,5.39-3.6,10.78-3.6,5.39,3.6,10.78,3.6a8,8,0,0,0,3.72-.8V27.9a3,3,0,0,0-3-3"/><path class="cls-4" d="M58.5,24.9H13.94a3,3,0,0,0-3,3v5.74a8,8,0,0,0,3.72.8c5.39,0,5.39-3.6,10.78-3.6s5.39,3.6,10.78,3.6,5.39-3.6,10.78-3.6,5.39,3.6,10.78,3.6a8,8,0,0,0,3.72-.8V27.9A3,3,0,0,0,58.5,24.9Z"/><path class="cls-5" d="M11.21,67.4A1.52,1.52,0,0,1,10.14,67a1.73,1.73,0,0,1-.32-.49,1.45,1.45,0,0,1-.09-.87,1.69,1.69,0,0,1,.41-.77,1.52,1.52,0,0,1,1.36-.41l.28.08.26.14a1.45,1.45,0,0,1,.23.19,2.11,2.11,0,0,1,.19.23,2.15,2.15,0,0,1,.14.26,1.29,1.29,0,0,1,.08.28,1.5,1.5,0,0,1,0,.29,1.53,1.53,0,0,1,0,.3,1.47,1.47,0,0,1-.08.28,2.15,2.15,0,0,1-.14.26,2.11,2.11,0,0,1-.19.23,1.45,1.45,0,0,1-.23.19,1.26,1.26,0,0,1-.26.13,1.31,1.31,0,0,1-.28.09,1.43,1.43,0,0,1-.29,0"/><path class="cls-5" d="M27.38,63.9a1.43,1.43,0,0,1-.29,0,1.31,1.31,0,0,1-.28-.09,1.26,1.26,0,0,1-.26-.13,1.45,1.45,0,0,1-.23-.19,2.11,2.11,0,0,1-.19-.23A2.15,2.15,0,0,1,26,63a2.29,2.29,0,0,1-.08-.28,1.53,1.53,0,0,1,0-.3,1.5,1.5,0,0,1,0-.29,2.29,2.29,0,0,1,.08-.28,2.15,2.15,0,0,1,.14-.26,2.11,2.11,0,0,1,.19-.23,1.45,1.45,0,0,1,.23-.19l.26-.14.28-.08a1.47,1.47,0,0,1,.59,0L28,61l.26.14a2.11,2.11,0,0,1,.23.19,1.3,1.3,0,0,1,.18.23.94.94,0,0,1,.14.26,1.31,1.31,0,0,1,.09.28,1.5,1.5,0,0,1,0,.29,1.53,1.53,0,0,1,0,.3,1.31,1.31,0,0,1-.09.28.94.94,0,0,1-.14.26,1.3,1.3,0,0,1-.18.23,2.11,2.11,0,0,1-.23.19,1.26,1.26,0,0,1-.26.13,1.41,1.41,0,0,1-.58.12"/><path class="cls-5" d="M44.78,67.4a1.43,1.43,0,0,1-.29,0,1.31,1.31,0,0,1-.28-.09,1.26,1.26,0,0,1-.26-.13,1.45,1.45,0,0,1-.23-.19,2.11,2.11,0,0,1-.19-.23,2.15,2.15,0,0,1-.14-.26,1.47,1.47,0,0,1-.08-.28,1.53,1.53,0,0,1,0-.3,1.5,1.5,0,0,1,0-.29,1.29,1.29,0,0,1,.08-.28,2.15,2.15,0,0,1,.14-.26,2.11,2.11,0,0,1,.19-.23,1.45,1.45,0,0,1,.23-.19l.26-.14.28-.08a1.47,1.47,0,0,1,.59,0l.28.08.26.14a2.11,2.11,0,0,1,.23.19,1.65,1.65,0,0,1,.41.77,1.5,1.5,0,0,1,0,.29,1.41,1.41,0,0,1-.12.58,1.73,1.73,0,0,1-.32.49,1.52,1.52,0,0,1-1.07.44"/><path class="cls-5" d="M61.86,64.8a1.53,1.53,0,0,1-.3,0l-.28-.08L61,64.55a1.57,1.57,0,0,1-.42-.42,2.15,2.15,0,0,1-.14-.26,2.29,2.29,0,0,1-.08-.28,1.53,1.53,0,0,1,0-.3,1.5,1.5,0,0,1,0-.29,2.29,2.29,0,0,1,.08-.28,2.15,2.15,0,0,1,.14-.26,2.11,2.11,0,0,1,.19-.23,1.51,1.51,0,0,1,2.13,0,2.11,2.11,0,0,1,.19.23,2.15,2.15,0,0,1,.14.26,2.29,2.29,0,0,1,.08.28,1.5,1.5,0,0,1,0,.29,1.53,1.53,0,0,1,0,.3,2.29,2.29,0,0,1-.08.28,2.15,2.15,0,0,1-.14.26,2.11,2.11,0,0,1-.19.23,1.52,1.52,0,0,1-1.06.44"/><path class="cls-5" d="M46.88,40.2a1.36,1.36,0,0,1-.29,0l-.28-.08a1.59,1.59,0,0,1-.26-.14,1.45,1.45,0,0,1-.23-.19,1.06,1.06,0,0,1-.19-.23,2.15,2.15,0,0,1-.14-.26,1.29,1.29,0,0,1-.08-.28,1.43,1.43,0,0,1,0-.29,1.53,1.53,0,0,1,0-.3,1.47,1.47,0,0,1,.08-.28,2.15,2.15,0,0,1,.14-.26,1.37,1.37,0,0,1,.19-.23,1,1,0,0,1,.23-.18,1.08,1.08,0,0,1,.26-.14,1.31,1.31,0,0,1,.28-.09,1.47,1.47,0,0,1,.59,0l.28.09a1.65,1.65,0,0,1,.26.14,1,1,0,0,1,.22.18,1.37,1.37,0,0,1,.19.23,1.3,1.3,0,0,1,.14.26,1.41,1.41,0,0,1,.12.58,1.43,1.43,0,0,1,0,.29,1.61,1.61,0,0,1-.23.54,1.06,1.06,0,0,1-.19.23,1.37,1.37,0,0,1-.22.19l-.26.14-.28.08-.3,0"/><path class="cls-5" d="M26.23,39.15a1.43,1.43,0,0,1-.29,0L25.66,39l-.26-.14a1.57,1.57,0,0,1-.42-.42,2.15,2.15,0,0,1-.14-.26,2.29,2.29,0,0,1-.08-.28,1.43,1.43,0,0,1,0-.29,1.53,1.53,0,0,1,0-.3c0-.09,0-.19.08-.28a2.15,2.15,0,0,1,.14-.26,2.11,2.11,0,0,1,.19-.23,1.3,1.3,0,0,1,.23-.18.94.94,0,0,1,.26-.14,1.31,1.31,0,0,1,.28-.09,1.47,1.47,0,0,1,.59,0,1.52,1.52,0,0,1,.28.09.94.94,0,0,1,.26.14,1.21,1.21,0,0,1,.41.41.94.94,0,0,1,.14.26,1.41,1.41,0,0,1,.12.58,1.43,1.43,0,0,1,0,.29,1.31,1.31,0,0,1-.09.28.94.94,0,0,1-.14.26,1.3,1.3,0,0,1-.18.23,2.11,2.11,0,0,1-.23.19l-.26.14-.28.08a1.53,1.53,0,0,1-.3,0"/><path class="cls-3" d="M23.59,16.76h0a4.61,4.61,0,0,1-7.39-5.29L20.33,3.1l4.13,8.37a4.58,4.58,0,0,1-.87,5.29"/><path class="cls-6" d="M23.59,16.76h0a4.61,4.61,0,0,1-7.39-5.29L20.33,3.1l4.13,8.37A4.58,4.58,0,0,1,23.59,16.76Z"/><path class="cls-3" d="M39.79,14.66h0A4.61,4.61,0,0,1,32.4,9.37L36.53,1l4.13,8.37a4.6,4.6,0,0,1-.87,5.29"/><path class="cls-6" d="M39.79,14.66h0A4.61,4.61,0,0,1,32.4,9.37L36.53,1l4.13,8.37A4.6,4.6,0,0,1,39.79,14.66Z"/><path class="cls-3" d="M56,16.76h0a4.61,4.61,0,0,1-7.39-5.29L52.73,3.1l4.13,8.37A4.61,4.61,0,0,1,56,16.76"/><path class="cls-6" d="M56,16.76h0a4.61,4.61,0,0,1-7.39-5.29L52.73,3.1l4.13,8.37A4.61,4.61,0,0,1,56,16.76Z"/></g></g></svg>