<?xml version="1.0" encoding="UTF-8"?>
<svg width="84px" height="103px" viewBox="0 0 84 103" version="1.1" xmlns="http://www.w3.org/2000/svg" xmlns:xlink="http://www.w3.org/1999/xlink">
    <!-- Generator: Sketch 52.5 (67469) - http://www.bohemiancoding.com/sketch -->
    <title>cinemaTicket-logo</title>
    <desc>Created with Sketch.</desc>
    <defs>
        <linearGradient x1="0%" y1="50%" x2="100%" y2="50%" id="linearGradient-1">
            <stop stop-color="#BBBDBF" offset="0%"></stop>
            <stop stop-color="#424243" offset="100%"></stop>
        </linearGradient>
        <linearGradient x1="3.38871276e-06%" y1="49.823073%" x2="100.314465%" y2="49.823073%" id="linearGradient-2">
            <stop stop-color="#BBBDBF" offset="0%"></stop>
            <stop stop-color="#424243" offset="100%"></stop>
        </linearGradient>
        <linearGradient x1="-0.106669452%" y1="50.0110122%" x2="99.9999907%" y2="50.0110122%" id="linearGradient-3">
            <stop stop-color="#BBBDBF" offset="0%"></stop>
            <stop stop-color="#424243" offset="100%"></stop>
        </linearGradient>
        <linearGradient x1="0%" y1="50%" x2="100%" y2="50%" id="linearGradient-4">
            <stop stop-color="#E9292C" offset="0%"></stop>
            <stop stop-color="#E9292C" offset="7%"></stop>
            <stop stop-color="#9F2065" offset="88%"></stop>
            <stop stop-color="#9F2065" offset="100%"></stop>
        </linearGradient>
        <linearGradient x1="0.000377881144%" y1="49.9946958%" x2="100.314464%" y2="49.9946958%" id="linearGradient-5">
            <stop stop-color="#E9292C" offset="0%"></stop>
            <stop stop-color="#E9292C" offset="7%"></stop>
            <stop stop-color="#9F2065" offset="88%"></stop>
            <stop stop-color="#9F2065" offset="100%"></stop>
        </linearGradient>
        <linearGradient x1="-0.108108108%" y1="50.0109054%" x2="101.081081%" y2="50.0109054%" id="linearGradient-6">
            <stop stop-color="#E9292C" offset="0%"></stop>
            <stop stop-color="#E9292C" offset="7%"></stop>
            <stop stop-color="#9F2065" offset="88%"></stop>
            <stop stop-color="#9F2065" offset="100%"></stop>
        </linearGradient>
    </defs>
    <g id="Page-1" stroke="none" stroke-width="1" fill="none" fill-rule="evenodd">
        <g id="cinemaTicket-logo">
            <path d="M57.2578031,88.0613321 C56.9191578,88.0595782 56.5950799,87.9233674 56.356865,87.6826656 C56.1186502,87.4419638 55.9858124,87.1164887 55.9875756,86.7778435 C55.9876033,86.25752 56.3017696,85.7886963 56.7830065,85.5908388 C57.2642434,85.3929812 57.8173196,85.5052436 58.1833283,85.8750735 C58.5493371,86.2449034 58.6558495,86.7991156 58.4530047,87.2782717 C58.25016,87.7574278 57.7780988,88.0667082 57.2578031,88.0613321 Z M37.6275306,87.6985453 C37.2888854,87.6967913 36.9648074,87.5605805 36.7265926,87.3198787 C36.4883777,87.0791769 36.35554,86.7537018 36.3573031,86.4150566 C36.3573308,85.8947331 36.6714971,85.4259095 37.152734,85.2280519 C37.6339709,85.0301944 38.1870471,85.1424568 38.5530558,85.5122866 C38.9190646,85.8821165 39.025577,86.4363288 38.8227322,86.9154849 C38.6198875,87.394641 38.1478263,87.7039213 37.6275306,87.6985453 Z M34.7072387,87.6985453 C34.3685934,87.6967913 34.0445155,87.5605805 33.8063006,87.3198787 C33.5680858,87.0791769 33.435248,86.7537018 33.4370111,86.4150566 C33.4370389,85.8947331 33.7512052,85.4259095 34.2324421,85.2280519 C34.713679,85.0301944 35.2667551,85.1424568 35.6327639,85.5122866 C35.9987727,85.8821165 36.105285,86.4363288 35.9024403,86.9154849 C35.6995956,87.394641 35.2275344,87.7039213 34.7072387,87.6985453 Z M10.8684495,87.6237146 C10.5298042,87.6219606 10.2057263,87.4857498 9.96751141,87.245048 C9.72929656,87.0043462 9.59645881,86.6788711 9.59822192,86.3402259 C9.59824969,85.8199024 9.91241597,85.3510788 10.3936529,85.1532212 C10.8748898,84.9553637 11.4279659,85.0676261 11.7939747,85.4374559 C12.1599835,85.8072858 12.2664958,86.3614981 12.0636511,86.8406542 C11.8608063,87.3198103 11.3887452,87.6290906 10.8684495,87.6237146 Z M7.94815752,87.6237146 C7.60951227,87.6219606 7.28543433,87.4857498 7.04721948,87.245048 C6.80900462,87.0043462 6.67616688,86.6788711 6.67792999,86.3402259 C6.67795776,85.8199024 6.99212404,85.3510788 7.47336094,85.1532212 C7.95459784,84.9553637 8.507674,85.0676261 8.87368276,85.4374559 C9.23969153,85.8072858 9.34620389,86.3614981 9.14335915,86.8406542 C8.94051441,87.3198103 8.46845326,87.6290906 7.94815752,87.6237146 Z M62.8540031,100.433026 L62.8568448,100.433026 C63.1954901,100.43478 63.519568,100.570991 63.7577829,100.811693 C63.9959977,101.052395 64.1288355,101.37787 64.1270723,101.716515 C64.1270552,102.236582 63.8132038,102.705234 63.3323166,102.903268 C62.8514293,103.101302 62.2985701,102.989569 61.9323288,102.62033 C61.5660876,102.251091 61.4588646,101.697339 61.6608114,101.218082 C61.8627582,100.738825 62.3339531,100.428804 62.8540031,100.433026 Z M59.9346584,100.433026 C60.2733037,100.43478 60.5973816,100.570991 60.8355965,100.811693 C61.0738113,101.052395 61.2066491,101.37787 61.204886,101.716515 C61.2048582,102.236838 60.8906919,102.705662 60.409455,102.90352 C59.9282181,103.101377 59.3751419,102.989115 59.0091332,102.619285 C58.6431244,102.249455 58.5366121,101.695243 58.7394568,101.216087 C58.9423015,100.736931 59.4143627,100.42765 59.9346584,100.433026 Z M30.6900612,100.433026 C31.0287065,100.43478 31.3527844,100.570991 31.5909993,100.811693 C31.8292141,101.052395 31.9620519,101.37787 31.9602887,101.716515 C31.960261,102.236838 31.6460947,102.705662 31.1648578,102.90352 C30.6836209,103.101377 30.1305447,102.989115 29.764536,102.619285 C29.3985272,102.249455 29.2920148,101.695243 29.4948596,101.216087 C29.6977043,100.736931 30.1697655,100.42765 30.6900612,100.433026 Z M27.7735582,100.433026 C28.1122034,100.43478 28.4362814,100.570991 28.6744962,100.811693 C28.9127111,101.052395 29.0455488,101.37787 29.0437857,101.716515 C29.0437579,102.236838 28.7295917,102.705662 28.2483548,102.90352 C27.7671178,103.101377 27.2140417,102.989115 26.8480329,102.619285 C26.4820242,102.249455 26.3755118,101.695243 26.5783565,101.216087 C26.7812013,100.736931 27.2532624,100.42765 27.7735582,100.433026 Z M82.3270364,89.430071 L83.6275751,89.4367016 L83.6199973,94.1879777 C83.6163507,96.2007191 82.2763895,97.9661877 80.338813,98.5111085 C77.3976821,99.4033937 70.0036507,96.8127357 65.4920223,92.7889277 L65.4920223,94.2173416 C65.4945343,96.0837186 64.3419317,97.7569312 62.5971975,98.419707 C60.8524633,99.0824828 58.879653,98.5965273 57.6423761,97.1992032 C56.7778579,98.131752 55.5623145,98.6596425 54.2906953,98.6547828 C53.0190761,98.6499231 51.807603,98.1127574 50.9502377,97.1736281 C50.1190421,98.0950321 48.9429303,98.6304391 47.7022063,98.6522449 C45.1873262,98.6939228 43.1299555,96.5531963 43.1299555,94.0383163 L43.1299555,83.6254816 C43.1299555,83.2802109 43.4098527,83.0003137 43.7551234,83.0003137 L44.886109,83.0003137 C45.2313797,83.0003137 45.5112769,83.2802109 45.5112769,83.6254816 L45.5112769,94.0818886 C45.5112769,95.2071908 46.3590425,96.1923039 47.4824503,96.2671346 C48.0623925,96.3061973 48.6328855,96.1050934 49.060132,95.7109876 C49.4873785,95.3168818 49.7337914,94.7644457 49.7415798,94.1832416 C49.7368436,94.1491415 49.7368436,94.1159887 49.7368436,94.0818886 C49.7357521,92.4657323 50.5884647,90.9692168 51.9793802,90.1462245 C53.3702957,89.3232321 55.0924881,89.296199 56.5085488,90.0751306 L56.5085488,89.4376488 L57.810982,89.4376488 C58.4059424,89.4386942 58.8875523,89.9215759 58.8870286,90.516537 L58.8813452,94.2173416 C58.9057009,95.3683267 59.8457276,96.2886721 60.9969703,96.2886721 C62.148213,96.2886721 63.0882396,95.3683267 63.1125953,94.2173416 L63.1182787,90.5146426 C63.1185296,90.2288417 63.2323692,89.9548601 63.4347273,89.7530349 C63.6370855,89.5512098 63.9113664,89.4380932 64.1971669,89.438596 L65.4996001,89.438596 C68.7817316,93.3250565 73.724347,96.0019119 79.0894244,96.2860791 C80.2384073,96.3476487 81.2424648,95.3398022 81.2424648,94.1822944 L81.2481482,90.5061176 C81.2483991,90.2203167 81.3622387,89.9463351 81.5645968,89.7445099 C81.766955,89.5426848 82.0412359,89.4295682 82.3270364,89.430071 Z M54.3081472,96.272818 L54.3138306,96.272818 C55.5248937,96.272818 56.5066544,95.2910573 56.5066544,94.0799942 C56.5066544,92.868931 55.5248937,91.8871703 54.3138306,91.8871703 C53.1027674,91.8871703 52.1210067,92.868931 52.1210067,94.0799942 C52.1210067,94.1055692 52.1210067,94.1311443 52.1210067,94.1567193 C52.1210067,94.1652443 52.1210067,94.1737693 52.1210067,94.1822944 C52.176061,95.3508202 53.1383273,96.2705784 54.3081472,96.272818 Z M37.9637952,90.5061176 L37.9637952,90.5108537 C37.9640461,90.2250528 38.0778857,89.9510712 38.2802438,89.7492461 C38.482602,89.5474209 38.7568829,89.4343043 39.0426834,89.4348071 L40.3451166,89.4348071 L40.3375388,94.1955555 C40.3377767,96.04748 39.2007029,97.7094643 37.4745236,98.3802322 C35.7483443,99.0510001 33.7874186,98.5928529 32.5371482,97.2266727 C31.7113846,98.1425964 30.5402437,98.6714987 29.307114,98.6853978 C27.9942614,98.6901339 26.775184,98.2354663 25.887635,97.2266727 C25.0602892,98.1595028 23.8693592,98.688114 22.6225535,98.6759255 C20.05084,98.6200393 18.1260806,96.6649688 18.1260806,94.1860833 L18.1260806,92.7917694 C13.6135049,96.809894 6.22515686,99.3967631 3.28876211,98.5054252 C1.35186046,97.960696 0.0120707766,96.196227 0.00757779289,94.1841888 L-1.42108547e-14,89.4054432 L1.30243315,89.4035487 C1.5888898,89.4025408 1.86394581,89.5156945 2.06676896,89.7179844 C2.26959212,89.9202743 2.38346958,90.1950314 2.38321586,90.4814898 L2.38889921,94.1841888 C2.38889921,95.3407494 3.39295677,96.3495431 4.54193961,96.2879736 C9.90796421,96.0009647 14.8505796,93.3241093 18.1317639,89.4404905 L19.4341971,89.4404905 C20.0280473,89.4425778 20.5083529,89.9245776 20.5083492,90.5184315 L20.5026659,94.1917666 C20.5037862,94.8007007 20.766942,95.3796934 21.2249652,95.7809623 C21.6829883,96.1822312 22.2915622,96.366951 22.895354,96.2879736 C23.9359842,96.1703805 24.7224252,95.2901699 24.7225493,94.2429167 C24.7159187,93.3080065 23.7857447,92.8220805 21.0444781,89.4840628 C20.6458916,89.0174524 20.6799427,88.3210661 21.1221505,87.8955679 L21.1136254,87.8860957 L26.1339132,83.1603946 C26.3709898,82.9372657 26.7439809,82.9482859 26.9674705,83.1850224 L27.7508248,84.0176324 C27.9739536,84.2547089 27.9629335,84.6277 27.726197,84.8511896 L23.525258,88.8077447 L26.1017076,91.8758036 C26.7041421,92.6657886 26.9371593,93.289062 27.0195678,93.7948797 C27.0858735,94.2050277 27.1256569,94.6956898 27.2431127,94.954282 C27.5339105,95.5946055 28.0605671,96.2661874 29.1025136,96.3353348 C30.3528494,96.4186905 31.3464875,95.4061079 31.3464875,94.1917666 L31.3540653,89.4310182 L32.6564985,89.4310182 C32.9422994,89.4312691 33.216281,89.5451087 33.4181061,89.7474669 C33.6199313,89.949825 33.7330479,90.2241059 33.7325451,90.5099065 L33.7268617,94.1908194 C33.7512174,95.3418044 34.6912441,96.2621498 35.8424868,96.2621498 C36.9937295,96.2621498 37.9337561,95.3418044 37.9581118,94.1908194 L37.9637952,90.5061176 Z" id="Combined-Shape" fill="#000000"></path>
            <g transform="translate(13.000000, 0.000000)">
                <polygon id="Path" fill="url(#linearGradient-1)" points="21.06 27.8757143 38.7771429 35.3971429 38.7771429 35.3971429 56.1414286 28.21 38.7771429 20.6514286"></polygon>
                <path d="M22.8057143,22.75 L24.96,21.8957143 L24.96,24.1428571 L22.8057143,24.9971429 L22.8057143,22.75 Z M22.8057143,19.0357143 L24.96,18.1814286 L24.96,20.4285714 L22.8057143,21.2828571 L22.8057143,19.0357143 Z M22.8057143,15.3214286 L24.96,14.4671429 L24.96,16.7142857 L22.8057143,17.5685714 L22.8057143,15.3214286 Z M22.8057143,11.6071429 L24.96,10.7528571 L24.96,13 L22.8057143,13.8542857 L22.8057143,11.6071429 Z M22.8057143,7.89285714 L24.96,7.03857143 L24.96,9.28571429 L22.8057143,10.14 L22.8057143,7.89285714 Z M36.4,0.13 L22.9914286,5.57142857 C21.7907974,6.05047771 21.0034915,7.21304158 21.0042857,8.50571429 L21.0042851,27.9314286 L38.7214286,20.7257143 L38.7214286,1.72714286 C38.7134949,1.16731193 38.4346812,0.646059612 37.9734184,0.32871082 C37.5121556,0.0113620288 36.9256788,-0.062705551 36.4,0.13 Z" id="Shape" fill="url(#linearGradient-2)" fill-rule="nonzero"></path>
                <path d="M38.7771429,35.3971429 L38.7771429,54.5442857 C38.772966,55.0753771 39.0361358,55.5729704 39.4774679,55.8684385 C39.9188001,56.1639066 40.4791305,56.2176398 40.9685714,56.0114286 L42.8257143,55.2128571 C43.4631843,54.9365283 43.8930969,54.3274854 43.94,53.6342857 C43.9267489,53.3868439 43.9267489,53.1388703 43.94,52.8914286 C44.4228571,49.9385714 46.6514286,47.5428571 48.8985714,47.5428571 C50.4306178,47.6062408 51.7126592,48.7260962 51.9814286,50.2357143 C52.051737,50.50514 52.2349182,50.7311057 52.4839699,50.8556316 C52.7330217,50.9801575 53.023703,50.9911229 53.2814286,50.8857143 L54.6371429,50.3285714 C55.5325067,50.0514682 56.1425775,49.222977 56.1414286,48.2857143 L56.1414302,28.21 L38.7771429,35.3971429 Z" id="Path" fill="url(#linearGradient-3)"></path>
                <path d="M40.5042857,34.6728571 C40.4334066,34.5997505 40.3432547,34.5482352 40.2442857,34.5242857 C40.0520219,34.4563102 39.8422639,34.4563102 39.65,34.5242857 C39.5408087,34.568849 39.4631785,34.6676511 39.4457143,34.7842857 C39.435784,34.8791048 39.4785453,34.9717542 39.5571429,35.0257143 C39.546603,35.0809301 39.546603,35.1376413 39.5571429,35.1928571 C39.6788225,35.3098435 39.8511964,35.3577591 40.015794,35.3203505 C40.1803915,35.282942 40.3151227,35.1652299 40.3742857,35.0071429 C40.4248818,34.8820659 40.4248818,34.7422198 40.3742857,34.6171429" id="Path" fill="#231F20"></path>
                <path d="M42.6028571,33.8 C42.531978,33.7268934 42.4418261,33.675378 42.3428571,33.6514286 C42.1505933,33.583453 41.9408353,33.583453 41.7485714,33.6514286 C41.6393801,33.6959919 41.5617499,33.7947939 41.5442857,33.9114286 C41.5343555,34.0062477 41.5771167,34.098897 41.6557143,34.1528571 C41.6451744,34.208073 41.6451744,34.2647842 41.6557143,34.32 C41.777394,34.4369864 41.9497678,34.4849019 42.1143654,34.4474934 C42.278963,34.4100849 42.4136941,34.2923727 42.4728571,34.1342857 C42.5234533,34.0092087 42.5234533,33.8693627 42.4728571,33.7442857" id="Path" fill="#231F20"></path>
                <path d="M44.7014286,32.9271429 C44.6305494,32.8540363 44.5403975,32.8025209 44.4414286,32.7785714 C44.2491647,32.7105959 44.0394067,32.7105959 43.8471429,32.7785714 C43.7379515,32.8231347 43.6603213,32.9219368 43.6428571,33.0385714 C43.6329269,33.1333906 43.6756881,33.2260399 43.7542857,33.28 C43.7437458,33.3352158 43.7437458,33.391927 43.7542857,33.4471429 C43.8759654,33.5641292 44.0483392,33.6120448 44.2129368,33.5746363 C44.3775344,33.5372277 44.5122656,33.4195156 44.5714286,33.2614286 C44.6220247,33.1363516 44.6220247,32.9965056 44.5714286,32.8714286" id="Path" fill="#231F20"></path>
                <path d="M46.8,32.0728571 C46.7291208,31.9997505 46.6389689,31.9482352 46.54,31.9242857 C46.3477361,31.8563102 46.1379781,31.8563102 45.9457143,31.9242857 C45.836523,31.968849 45.7588928,32.0676511 45.7414286,32.1842857 C45.7314983,32.2791048 45.7742595,32.3717542 45.8528571,32.4257143 C45.8423172,32.4809301 45.8423172,32.5376413 45.8528571,32.5928571 C45.9745368,32.7098435 46.1469107,32.7577591 46.3115082,32.7203505 C46.4761058,32.682942 46.610837,32.5652299 46.67,32.4071429 C46.7205961,32.2820659 46.7205961,32.1422198 46.67,32.0171429" id="Path" fill="#231F20"></path>
                <path d="M48.8985714,31.2 C48.8276923,31.1268934 48.7375404,31.075378 48.6385714,31.0514286 C48.4463076,30.983453 48.2365496,30.983453 48.0442857,31.0514286 C47.9350944,31.0959919 47.8574642,31.1947939 47.84,31.3114286 C47.8300697,31.4062477 47.872831,31.498897 47.9514286,31.5528571 C47.9408887,31.608073 47.9408887,31.6647842 47.9514286,31.72 C48.0731083,31.8369864 48.2454821,31.8849019 48.4100797,31.8474934 C48.5746772,31.8100849 48.7094084,31.6923727 48.7685714,31.5342857 C48.8191676,31.4092087 48.8191676,31.2693627 48.7685714,31.1442857" id="Path" fill="#231F20"></path>
                <path d="M50.9971429,30.3271429 C50.9262637,30.2540363 50.8361118,30.2025209 50.7371429,30.1785714 C50.544879,30.1105959 50.335121,30.1105959 50.1428571,30.1785714 C50.0336658,30.2231347 49.9560356,30.3219368 49.9385714,30.4385714 C49.9286412,30.5333906 49.9714024,30.6260399 50.05,30.68 C50.0394601,30.7352158 50.0394601,30.791927 50.05,30.8471429 C50.1716797,30.9641292 50.3440535,31.0120448 50.5086511,30.9746363 C50.6732487,30.9372277 50.8079798,30.8195156 50.8671429,30.6614286 C50.917739,30.5363516 50.917739,30.3965056 50.8671429,30.2714286" id="Path" fill="#231F20"></path>
                <path d="M53.0957143,29.4542857 C53.0248351,29.3811791 52.9346832,29.3296638 52.8357143,29.3057143 C52.6434504,29.2377387 52.4336924,29.2377387 52.2414286,29.3057143 C52.155046,29.327572 52.0809647,29.3830125 52.0356343,29.4597255 C51.990304,29.5364384 51.9774764,29.6280743 52,29.7142857 C51.9900697,29.8091048 52.032831,29.9017542 52.1114286,29.9557143 C52.1008887,30.0109301 52.1008887,30.0676413 52.1114286,30.1228571 C52.2331083,30.2398435 52.4054821,30.2877591 52.5700797,30.2503505 C52.7346772,30.212942 52.8694084,30.0952299 52.9285714,29.9371429 C52.9791676,29.8120659 52.9791676,29.6722198 52.9285714,29.5471429" id="Path" fill="#231F20"></path>
                <path d="M55.1942857,28.6 C55.1234066,28.5268934 55.0332547,28.475378 54.9342857,28.4514286 C54.7420219,28.383453 54.5322639,28.383453 54.34,28.4514286 C54.2308087,28.4959919 54.1531785,28.5947939 54.1357143,28.7114286 C54.125784,28.8062477 54.1685453,28.898897 54.2471429,28.9528571 C54.236603,29.008073 54.236603,29.0647842 54.2471429,29.12 C54.3688225,29.2369864 54.5411964,29.2849019 54.705794,29.2474934 C54.8703915,29.2100849 55.0051227,29.0923727 55.0642857,28.9342857 C55.1148818,28.8092087 55.1148818,28.6693627 55.0642857,28.5442857" id="Path" fill="#231F20"></path>
                <polygon id="Path" fill="url(#linearGradient-4)" points="0.0557142857 36.3257143 17.7728571 43.8471429 35.1371429 36.66 17.7728571 29.1014286"></polygon>
                <path d="M1.85714286,31.2 L4.01142857,30.3457143 L4.01142857,32.5 L1.85714286,33.4285714 L1.85714286,31.2 Z M1.85714286,27.4857143 L4.01142857,26.6314286 L4.01142857,28.7857143 L1.85714286,29.7142857 L1.85714286,27.4857143 Z M1.85714286,23.7714286 L4.01142857,22.9171429 L4.01142857,25.0714286 L1.85714286,26 L1.85714286,23.7714286 Z M1.85714286,20.0571429 L4.01142857,19.2028571 L4.01142857,21.3571429 L1.85714286,22.2857143 L1.85714286,20.0571429 Z M1.85714286,16.3428571 L4.01142857,15.4885714 L4.01142857,17.6985714 L1.85714286,18.5714286 L1.85714286,16.3428571 Z M15.3957143,8.58 L1.98714286,13.9471429 C0.78019092,14.4286825 -0.00843152888,15.6005608 4.74135163e-16,16.9 L-6.6949995e-05,36.3257143 L17.7171429,29.12 L17.7171429,10.14 C17.7100231,9.56909052 17.4212185,9.03859077 16.9455852,8.72274057 C16.469952,8.40689037 15.8689593,8.34650906 15.34,8.56142857 L15.3957143,8.58 Z" id="Shape" fill="url(#linearGradient-5)" fill-rule="nonzero"></path>
                <path d="M17.7728571,43.8471429 L17.7728571,63.0314286 C17.7810543,63.5559307 18.0492633,64.0420991 18.4885714,64.3287663 C18.9278795,64.6154334 19.4808933,64.6651477 19.9642857,64.4614286 L21.8214286,63.6628571 C22.4588986,63.3865283 22.8888112,62.7774854 22.9357143,62.0842857 C22.9226727,61.8368384 22.9226727,61.5888759 22.9357143,61.3414286 C23.4185714,58.3885714 25.6471429,55.9928571 27.8942857,55.9928571 C29.4263321,56.0562408 30.7083735,57.1760962 30.9771429,58.6857143 C31.0474513,58.95514 31.2306324,59.1811057 31.4796842,59.3056316 C31.728736,59.4301575 32.0194172,59.4411229 32.2771429,59.3357143 L33.6328571,58.7785714 C34.3933417,58.465097 34.9062125,57.7427437 34.9514286,56.9214286 L34.9514286,36.66 L17.7728571,43.8471429 Z" id="Path" fill="url(#linearGradient-6)"></path>
                <path d="M19.9828571,43.1414286 C19.911978,43.068322 19.8218261,43.0168066 19.7228571,42.9928571 C19.5305933,42.9248816 19.3208353,42.9248816 19.1285714,42.9928571 C19.0193801,43.0374205 18.9417499,43.1362225 18.9242857,43.2528571 C18.9143555,43.3476763 18.9571167,43.4403256 19.0357143,43.4942857 C19.0251744,43.5495015 19.0251744,43.6062128 19.0357143,43.6614286 C19.157394,43.7784149 19.3297678,43.8263305 19.4943654,43.788922 C19.658963,43.7515134 19.7936941,43.6338013 19.8528571,43.4757143 C19.9034533,43.3506373 19.9034533,43.2107913 19.8528571,43.0857143" id="Path" fill="#231F20"></path>
                <path d="M22.0814286,42.2871429 C22.0105494,42.2140363 21.9203975,42.1625209 21.8214286,42.1385714 C21.6291647,42.0705959 21.4194067,42.0705959 21.2271429,42.1385714 C21.1179515,42.1831347 21.0403213,42.2819368 21.0228571,42.3985714 C21.0129269,42.4933906 21.0556881,42.5860399 21.1342857,42.64 C21.1237458,42.6952158 21.1237458,42.751927 21.1342857,42.8071429 C21.2559654,42.9241292 21.4283392,42.9720448 21.5929368,42.9346363 C21.7575344,42.8972277 21.8922656,42.7795156 21.9514286,42.6214286 C22.0020247,42.4963516 22.0020247,42.3565056 21.9514286,42.2314286" id="Path" fill="#231F20"></path>
                <path d="M24.1428571,41.4142857 C24.071978,41.3411791 23.9818261,41.2896638 23.8828571,41.2657143 C23.6905933,41.1977387 23.4808353,41.1977387 23.2885714,41.2657143 C23.1793801,41.3102776 23.1017499,41.4090797 23.0842857,41.5257143 C23.0743555,41.6205334 23.1171167,41.7131827 23.1957143,41.7671429 C23.1851744,41.8223587 23.1851744,41.8790699 23.1957143,41.9342857 C23.317394,42.0512721 23.4897678,42.0991877 23.6543654,42.0617791 C23.818963,42.0243706 23.9536941,41.9066584 24.0128571,41.7485714 C24.0634533,41.6234944 24.0634533,41.4836484 24.0128571,41.3585714" id="Path" fill="#231F20"></path>
                <path d="M26.2785714,40.5414286 C26.2076923,40.468322 26.1175404,40.4168066 26.0185714,40.3928571 C25.8263076,40.3248816 25.6165496,40.3248816 25.4242857,40.3928571 C25.3150944,40.4374205 25.2374642,40.5362225 25.22,40.6528571 C25.2100697,40.7476763 25.252831,40.8403256 25.3314286,40.8942857 C25.3208887,40.9495015 25.3208887,41.0062128 25.3314286,41.0614286 C25.4531083,41.1784149 25.6254821,41.2263305 25.7900797,41.188922 C25.9546772,41.1515134 26.0894084,41.0338013 26.1485714,40.8757143 C26.1991676,40.7506373 26.1991676,40.6107913 26.1485714,40.4857143" id="Path" fill="#231F20"></path>
                <path d="M28.3957143,39.6685714 C28.3248351,39.5954648 28.2346832,39.5439495 28.1357143,39.52 C27.9434504,39.4520245 27.7336924,39.4520245 27.5414286,39.52 C27.4322372,39.5645633 27.3546071,39.6633654 27.3371429,39.78 C27.3272126,39.8748191 27.3699738,39.9674685 27.4485714,40.0214286 C27.4380315,40.0766444 27.4380315,40.1333556 27.4485714,40.1885714 C27.5702511,40.3055578 27.742625,40.3534734 27.9072225,40.3160648 C28.0718201,40.2786563 28.2065513,40.1609441 28.2657143,40.0028571 C28.3163104,39.8777802 28.3163104,39.7379341 28.2657143,39.6128571" id="Path" fill="#231F20"></path>
                <path d="M30.4942857,38.8142857 C30.4234066,38.7411791 30.3332547,38.6896638 30.2342857,38.6657143 C30.0420219,38.5977387 29.8322639,38.5977387 29.64,38.6657143 C29.5308087,38.7102776 29.4531785,38.8090797 29.4357143,38.9257143 C29.425784,39.0205334 29.4685453,39.1131827 29.5471429,39.1671429 C29.536603,39.2223587 29.536603,39.2790699 29.5471429,39.3342857 C29.6688225,39.4512721 29.8411964,39.4991877 30.005794,39.4617791 C30.1703915,39.4243706 30.3051227,39.3066584 30.3642857,39.1485714 C30.4148818,39.0234944 30.4148818,38.8836484 30.3642857,38.7585714" id="Path" fill="#231F20"></path>
                <path d="M32.5928571,37.9414286 C32.521978,37.868322 32.4318261,37.8168066 32.3328571,37.7928571 C32.1405933,37.7248816 31.9308353,37.7248816 31.7385714,37.7928571 C31.6293801,37.8374205 31.5517499,37.9362225 31.5342857,38.0528571 C31.5243555,38.1476763 31.5671167,38.2403256 31.6457143,38.2942857 C31.6351744,38.3495015 31.6351744,38.4062128 31.6457143,38.4614286 C31.767394,38.5784149 31.9397678,38.6263305 32.1043654,38.588922 C32.268963,38.5515134 32.4036941,38.4338013 32.4628571,38.2757143 C32.5134533,38.1506373 32.5134533,38.0107913 32.4628571,37.8857143" id="Path" fill="#231F20"></path>
                <path d="M34.6914286,37.1428571 C34.6205494,37.0697505 34.5303975,37.0182352 34.4314286,36.9942857 C34.2391647,36.9263102 34.0294067,36.9263102 33.8371429,36.9942857 C33.7279515,37.038849 33.6503213,37.1376511 33.6328571,37.2542857 C33.6229269,37.3491048 33.6656881,37.4417542 33.7442857,37.4957143 C33.7337458,37.5509301 33.7337458,37.6076413 33.7442857,37.6628571 C33.8659654,37.7798435 34.0383392,37.8277591 34.2029368,37.7903505 C34.3675344,37.752942 34.5022656,37.6352299 34.5614286,37.4771429 C34.6120247,37.3520659 34.6120247,37.2122198 34.5614286,37.0871429" id="Path" fill="#231F20"></path>
            </g>
        </g>
    </g>
</svg>