<?xml version="1.0" encoding="utf-8"?>
<!-- Generator: Adobe Illustrator 21.0.0, SVG Export Plug-In . SVG Version: 6.00 Build 0)  -->
<svg version="1.1" id="Layer_1" xmlns="http://www.w3.org/2000/svg" xmlns:xlink="http://www.w3.org/1999/xlink" x="0px" y="0px"
	 viewBox="0 0 142.5 49.4" style="enable-background:new 0 0 142.5 49.4;" xml:space="preserve">
<style type="text/css">
	.st0{fill:#FDC52C;}
	.st1{fill:#F08136;}
	.st2{fill:#F6A033;}
	.st3{fill:#ED6E28;}
	.st4{fill:#F28D25;}
	.st5{fill:#F9AF1A;}
	.st6{fill:#1D1D1B;}
</style>
<title>logo-filimo-horizontal</title>
<g id="Layer_2">
	<g id="Layer_1-2">
		<path class="st0" d="M103.2,41.1h0.3c0.5,0,1.1,0,1.6-0.1h0.2c-0.1-0.1-0.3-0.2-0.4-0.3c-0.2-0.2-0.4-0.5-0.5-0.7
			c-0.2-0.3-0.3-0.7-0.4-1.1c-0.2-0.8-0.3-1.6-0.3-2.4c-0.1-1.3-0.2-2.7-0.3-4.4V18.4c0-2,0.2-4,0.4-6.3c0-0.4,0.1-0.8,0.1-1.2
			c0.2-1.4,0.7-2.8,1.4-4.1c0.9-1.7,2.1-3.3,3.6-4.5c-3.4,1.8-6.9,3.8-10.4,6c-1.3,0.8-2.5,1.6-3.6,2.5c-0.5,0.3-0.9,0.7-1.3,1.1
			c-0.2,0.2-0.4,0.5-0.5,0.7c-0.1,0.4-0.2,0.8-0.3,1.3c-0.2,1-0.3,1.9-0.3,2.9c-0.1,1.4-0.2,2.9-0.2,4.3c-0.1,3.8,0,7,0.1,9.9
			c0,1.4,0.1,2.8,0.4,4.1c0.1,0.5,0.2,0.9,0.3,1.4c0.1,0.5,0.4,1,0.8,1.3h0.1c1.4,1.2,3,2.1,4.8,2.6
			C100.3,40.9,101.8,41.1,103.2,41.1"/>
		<path class="st1" d="M133.6,24.8c-0.1,0.7-0.4,1.3-0.8,1.7c-0.3,0.3-0.7,0.6-1,0.9c-0.7,0.5-1.3,1-1.9,1.4
			c-2.6,1.8-5.4,3.5-7.5,4.6c-3,1.8-6,3.4-8.8,4.9c-1.3,0.7-2.7,1.4-4.5,2.2c-1.6,0.8-3.4,1.2-5.2,1.2h-0.4c-0.9,0-1.7-0.1-2.6-0.2
			c-0.9-0.1-1.8-0.4-2.6-0.6c3.1,2,6.2,3.8,9.6,5.6c1.7,0.9,3.1,1.5,4.4,2.1c0.7,0.3,1.4,0.5,2.1,0.7c0.1,0,0.3,0,0.4,0
			c0.1,0,0.3,0,0.4,0c0.4-0.1,0.9-0.2,1.3-0.4c1.1-0.4,2.1-0.9,3-1.3c2.5-1.2,5.1-2.6,8-4.4c2.4-1.4,4.3-2.6,6-3.8
			c0.7-0.5,1.3-1,2-1.5c0.2-0.2,0.5-0.5,0.7-0.7c0.2-0.2,0.3-0.5,0.4-0.7c0.5-2,0.4-4.1-0.1-6.1C135.9,28.4,134.9,26.5,133.6,24.8"
			/>
		<path class="st2" d="M137.5,23.8c0.1-2.9-0.1-5.8-0.4-8.7c-0.1-0.8-0.2-1.5-0.4-2.3c-0.1-0.3-0.3-0.6-0.5-0.8
			c-0.3-0.3-0.7-0.7-1-1c-0.8-0.6-1.5-1.2-2.6-1.9c-3.7-2.5-7.6-4.7-11.5-6.8c-1.5-0.8-2.7-1.4-3.9-1.9c-0.5-0.2-1-0.4-1.5-0.5
			c-0.2,0-0.4,0-0.6,0c-0.2,0-0.4,0-0.5,0.1c-1.4,0.4-2.8,1.1-4,2.1c-2.1,1.7-3.8,3.8-4.8,6.3l0.3-0.1c0.3-0.1,0.6-0.1,0.9-0.1
			c0.3,0,0.5,0,0.8,0.1c0.3,0.1,0.7,0.2,1.2,0.4c1,0.4,2.1,0.9,3,1.3c2.2,1.1,4.6,2.4,7.5,4c3.5,2,6.3,3.7,8.9,5.4
			c1.2,0.8,2.5,1.7,3.5,2.4c1,0.7,1.8,1.5,2.5,2.4c1.6,2,2.6,4.3,3.1,6.8v-1c0.1-1.8,0.1-3.8,0.1-6.2"/>
		<path class="st3" d="M136.6,36.4c0.2-0.9,0.3-1.8,0.3-2.7c0-1.1-0.1-2.3-0.4-3.3c-0.6-2-1.5-3.8-2.7-5.5c-0.1,0.7-0.4,1.3-0.8,1.7
			c-0.3,0.3-0.7,0.6-1,0.9c-0.7,0.5-1.3,1-1.9,1.4c-1.6,1.1-3.3,2.2-4.9,3.1C133,30.8,135.7,34,136.6,36.4"/>
		<path class="st4" d="M110.4,2.1c-2.1,1.7-3.8,3.8-4.8,6.3l0.3-0.1c0.3-0.1,0.6-0.1,0.9-0.1c0.3,0,0.5,0,0.8,0.1
			c0.4,0.1,0.8,0.2,1.1,0.4c1,0.4,2.1,0.9,3,1.3c1.5,0.7,3,1.5,4.6,2.4c-5.7-6.6-3.4-10.8-2.2-12.3C112.8,0.5,111.5,1.2,110.4,2.1"
			/>
		<path class="st5" d="M103.2,41.1h0.3c0.5,0,1.1,0,1.6-0.1h0.2c-0.1-0.1-0.3-0.2-0.4-0.3c-0.2-0.2-0.4-0.5-0.5-0.7
			c-0.2-0.3-0.3-0.7-0.4-1.1c-0.2-0.8-0.3-1.6-0.3-2.4c-0.1-1.3-0.2-2.7-0.3-4.4v-2.5c-1.1,3-3.9,9.1-9.4,8.4c1.4,1.2,3,2.1,4.7,2.6
			C100.3,40.9,101.8,41.2,103.2,41.1"/>
		<path class="st6" d="M56.4,29.4C54,32,50,32.1,47.4,29.7c-0.1-0.1-0.2-0.2-0.3-0.3c-2.3,2.5-6.3,2.7-8.8,0.3
			c-0.1-0.1-0.2-0.2-0.3-0.3c-2.3,2.5-6.3,2.7-8.8,0.3c-0.1-0.1-0.2-0.2-0.3-0.3c-2.3,2.5-6.3,2.7-8.8,0.3c-0.1-0.1-0.2-0.2-0.3-0.3
			c-2.4,2.5-6.4,2.6-8.9,0.2c-0.1-0.1-0.2-0.2-0.2-0.2l-0.3,0.3c-1.7,1.7-3.4,3.4-5.2,5.1c-0.3,0.4-0.8,0.5-1.2,0.3
			c-0.6-0.3-1.2-0.6-1.8-0.9c-0.4-0.2-0.4-0.4,0-0.7c1.6-1.5,3.1-3.1,4.7-4.6c0.5-0.5,1-1,1.5-1.5c0.9-0.9,1.1-2.2,0.5-3.3
			c-0.7-1.5-2.6-2.1-4.1-1.4c-0.8,0.4-1.3,1-1.6,1.9c-0.4,1.1-0.1,2.2,0.8,3c0.5,0.6,1.1,1.1,1.7,1.6c0.3,0.3,0.3,0.5,0,0.7
			c-0.6,0.3-1.3,0.7-1.9,1c-0.4,0.2-0.8,0-1-0.3c-0.5-0.5-0.9-1-1.4-1.5c-1.4-1.7-1.7-4-0.8-6c0.8-2,2.6-3.5,4.8-3.7
			c3.2-0.5,6.2,1.6,6.8,4.7c0.1,0.6,0.1,1.2,0.2,1.8c0.3,1.5,1.7,2.5,3.1,2.4c1.6-0.1,2.8-1.4,2.8-2.9v-2.2c0-0.3,0.1-0.5,0.5-0.4
			c0.7,0.2,1.4,0.5,2.1,0.7c0.3,0.1,0.5,0.5,0.5,0.8v1.1c0,1.7,1.3,3,3,3.1s3-1.3,3.1-3c0.1-1.6-1.2-3-2.8-3.1c0,0,0,0-0.1,0H19
			c-0.7,0-0.8,0-0.6-0.7c0.2-0.7,0.4-1.3,0.8-2c0.1-0.2,0.3-0.3,0.4-0.3c2-0.1,4,0,5.9,0.1c2.9,0.5,4.9,3,4.9,5.9
			c0,1.5,1,2.8,2.5,3.1c1.6,0.3,3.2-0.7,3.6-2.3c0-0.2,0.1-0.5,0.1-0.7v-5.1c0-0.9,0-1,1-0.8c0.6,0.2,1.1,0.4,1.6,0.6
			c0.3,0.1,0.5,0.5,0.5,0.8c0,1.5,0,3,0,4.4c0,1.6,1.2,2.9,2.8,3c1.5,0.1,2.8-0.9,3.2-2.4c0.1-0.3,0.1-0.6,0.1-0.8V12.7
			c0-0.7,0-0.7,0.7-0.6c0.6,0.1,1.2,0.3,1.8,0.5c0.5,0.2,0.7,0.6,0.7,1.1c0,2.1,0,4.3,0,6.5v5c-0.1,1.7,1.2,3.1,2.9,3.2
			c1.7,0.1,3.1-1.2,3.2-2.9c0-1.8,0-3.7,0-5.5c0-0.6,0-0.7,0.6-0.5c0.7,0.2,1.4,0.4,2,0.7c0.3,0.1,0.5,0.5,0.5,0.8v4.3
			c-0.1,1.7,1.2,3.1,2.9,3.2c0.1,0,0.2,0,0.3,0h8.6c1.8,0.2,3.4-1.1,3.6-2.9c0-0.4,0-0.8-0.1-1.2c-0.2-1.7-1.7-2.9-3.4-2.7
			c-0.6,0.1-1.2,0.3-1.7,0.8c-0.7,0.6-1,1.4-1,2.3v1.7c0.1,0.4-0.2,0.7-0.5,0.9c-0.7,0.2-1.4,0.5-2.1,0.7c-0.1,0-0.4-0.1-0.4-0.2
			c-0.1-1.5,0-3,0.2-4.5c0.7-2.9,3.4-4.9,6.4-4.6c2.9,0.2,5.2,2.4,5.6,5.3c0.4,2-0.2,4-1.6,5.5c-1.2,1.3-2.8,1.9-4.5,1.9H62
			C59.9,31.7,57.8,30.9,56.4,29.4"/>
		<path class="st6" d="M52.7,36.3c-0.6,1.4-1.5,1.9-2.6,1.6c-1-0.2-1.7-1-1.8-2c0-1,0.6-1.9,1.6-2.1c1.2-0.3,2,0.1,2.7,1.5
			c0.8-1.4,1.6-1.9,2.7-1.6c1.1,0.3,1.8,1.5,1.5,2.6c-0.2,0.7-0.8,1.3-1.5,1.5C54.3,38.1,53.5,37.6,52.7,36.3"/>
		<path class="st6" d="M34.1,35.3c0.6-1.4,1.6-1.9,2.7-1.6c1.2,0.3,1.9,1.4,1.6,2.5c-0.2,0.9-0.9,1.5-1.8,1.7
			c-1.1,0.2-2.1-0.5-2.5-1.5c-0.4,0.5-0.8,0.9-1.2,1.3c-0.5,0.3-1.2,0.4-1.8,0.1c-1.1-0.4-1.7-1.6-1.3-2.7c0.3-0.7,0.9-1.2,1.6-1.4
			c1.1-0.3,1.8,0.2,2.7,1.6"/>
		<path class="st6" d="M69.8,16.3c-1.2,0-2.1-0.9-2.2-2.1c0,0,0,0,0-0.1c0-1.2,0.9-2.2,2.1-2.2c1.2,0,2.2,0.9,2.2,2.1
			C71.9,15.3,71,16.3,69.8,16.3"/>
	</g>
</g>
</svg>
