<svg width="53" height="99" viewBox="0 0 53 99" fill="none" xmlns="http://www.w3.org/2000/svg">
<path fill-rule="evenodd" clip-rule="evenodd" d="M39.7291 93.5315C39.7291 93.6444 39.725 93.7565 39.7168 93.8682C39.7662 94.0666 39.8385 94.2587 39.9324 94.4401C40.3595 95.21 41.1935 95.6223 42.0288 95.4764C42.8639 95.3307 43.527 94.6571 43.6954 93.7832C43.7152 93.6741 43.7251 93.5632 43.7252 93.4521V91.7441C43.7252 91.5601 43.8101 91.4761 43.9697 91.4971C44.3752 91.5361 44.7724 91.6407 45.1476 91.8072C45.3049 91.8918 45.4582 91.9847 45.6067 92.0858C45.7563 92.1742 45.8424 92.3473 45.8262 92.5272V93.3891C45.8123 93.9293 46.0131 94.4513 46.3803 94.829C46.8926 95.4253 47.6877 95.653 48.4165 95.4125C49.1647 95.2296 49.7379 94.5952 49.8736 93.7989C49.9993 93.2027 49.8762 92.5782 49.5355 92.0839C49.1949 91.5894 48.6693 91.2725 48.092 91.2133H47.7926H44.0147C43.7551 91.2133 43.7053 91.1607 43.7353 90.8927C43.7734 90.4715 43.8762 90.0599 44.0397 89.6734C44.1198 89.5081 44.2098 89.3484 44.3092 89.1951C44.3906 89.0657 44.5312 88.9917 44.6785 89.0007H47.8775C48.4784 88.9962 49.0725 89.1364 49.6142 89.4106C50.8798 90.0195 51.764 91.2655 51.9598 92.7164C51.9922 92.9406 52.0072 93.1673 52.0046 93.3942C52.0397 94.461 51.6613 95.4967 50.9566 96.2639C50.1676 97.1807 49.0473 97.7036 47.8725 97.7036C46.6974 97.7036 45.5773 97.1807 44.7882 96.2639C43.9995 97.1772 42.8815 97.6978 41.709 97.6978C40.5837 97.6978 39.5084 97.218 38.7263 96.3717C38.6078 96.5168 38.4797 96.6544 38.3424 96.7836C37.6137 97.544 36.6084 97.9438 35.5793 97.8826H35.5641H31.8228C31.6665 97.8826 31.5908 97.8037 31.6061 97.6513C31.6403 97.0245 31.8335 96.4186 32.1657 95.8951C32.2627 95.7491 32.424 95.6641 32.5944 95.669H35.539C36.6208 95.684 37.5299 94.8246 37.6214 93.7004C37.7129 92.5762 36.9558 91.5694 35.8869 91.3941C35.8153 91.3662 34.165 91.3877 33.7646 91.3931C33.7136 91.3936 33.6829 91.3941 33.6783 91.3941C33.5019 91.3941 33.4312 91.3153 33.4465 91.1312C33.4845 90.6331 33.6147 90.1475 33.8296 89.701C33.8965 89.579 33.9706 89.4613 34.0515 89.3487C34.1197 89.2477 34.2305 89.187 34.349 89.1858H35.5591C36.5866 89.1672 37.5822 89.5584 38.3424 90.2794C39.2252 91.1099 39.7291 92.2918 39.7291 93.5315ZM1.38699 96.6129C0.508162 95.7828 0.00683594 94.6027 0.00683594 93.3649C0.00683594 92.1272 0.508162 90.9471 1.38699 90.117C2.08253 89.3598 3.05933 88.9567 4.06227 89.0134H6.29655C6.3428 88.9963 6.40859 88.9968 6.50124 89.0081C6.90403 89.0489 7.29805 89.1573 7.66794 89.3288C7.82609 89.4131 7.97893 89.5078 8.1256 89.6124C8.24942 89.6982 8.32024 89.8464 8.31162 90.0014V90.6373V93.3544C8.31334 93.5424 8.30286 93.73 8.2803 93.9153C8.34495 94.8704 9.32347 95.5932 10.3018 95.7438L10.4489 95.7771L22.4013 95.7386C22.6233 95.703 22.8387 95.6271 23.0374 95.5128C23.6465 95.2251 24.0787 94.6478 24.1933 93.9692C24.1984 93.9047 24.1984 93.84 24.1933 93.7755V92.2059C24.1933 92.0227 24.2697 91.9495 24.448 91.9651C24.9416 92.0048 25.4237 92.1396 25.8687 92.3628C25.9872 92.4316 26.1011 92.5086 26.2098 92.593C26.3084 92.6632 26.3673 92.7785 26.3676 92.9018V93.0797V93.6395C26.3795 94.7118 25.9935 95.7482 25.2882 96.5383C25.278 96.5497 25.2679 96.5612 25.2576 96.5725C25.2297 96.6723 25.1787 96.7602 25.0999 96.8311C24.7192 97.1748 24.2792 97.4412 23.8053 97.6206C23.5462 97.7333 23.2756 97.8198 22.9968 97.8778C22.8894 97.8974 22.8076 97.8892 22.7457 97.8686C22.5914 97.8837 22.4357 97.8904 22.2792 97.8882H10.4413L10.3481 97.7995L10.3424 97.8885C8.76526 97.8885 7.77122 97.1882 7.14909 96.3766C6.52121 97.0586 5.68432 97.5144 4.76125 97.6482C4.54679 97.6841 4.32988 97.7016 4.11254 97.7008C3.09136 97.7414 2.0989 97.3425 1.36688 96.5973L1.38699 96.6129ZM6.19068 93.624C6.16525 93.7009 6.15003 93.787 6.14643 93.8826C6.03281 94.3716 5.75629 94.8065 5.36155 95.1059C4.88852 95.4646 4.29095 95.5943 3.72039 95.462C2.96667 95.3205 2.36235 94.73 2.17647 93.9536C1.94104 93.1874 2.15751 92.348 2.72966 91.8094C3.09308 91.4225 3.59412 91.2111 4.11254 91.226H6.12417C6.14773 91.2283 6.17129 91.2286 6.19456 91.2269V93.265V93.5857C6.19341 93.5986 6.19197 93.6112 6.19068 93.624ZM26.3565 96.8552C26.7701 96.9086 27.1892 96.8246 27.5525 96.6158C28.1611 96.3296 28.5931 95.7554 28.7077 95.0805C28.7127 95.0145 28.7127 94.9485 28.7077 94.8827V90.7192C28.7077 90.5371 28.779 90.4641 28.9621 90.4849C29.456 90.5218 29.938 90.6561 30.3819 90.8805C30.5009 90.9483 30.6149 91.0247 30.7229 91.1096C30.8206 91.1777 30.8796 91.2904 30.8807 91.4113V94.7526C30.9051 95.8245 30.524 96.8648 29.8171 97.6567C29.2112 98.338 28.4092 98.8045 27.5271 98.989C27.181 99.0515 27.0996 98.8277 27.0996 98.8277L26.2242 97.1154C26.2242 97.1154 26.0818 96.8812 26.3565 96.8812V96.8552Z" fill="#E77D44"/>
<path fill-rule="evenodd" clip-rule="evenodd" d="M47.605 71.0076C48.4259 71.0076 49.093 70.3282 49.0892 69.4972C49.0851 68.6707 48.4208 68 47.6056 68C46.7846 68 46.117 68.6792 46.1208 69.5108C46.1249 70.3369 46.7898 71.0076 47.605 71.0076ZM37.6747 85.9804C38.4099 85.8555 38.9319 85.2273 38.925 84.4843C38.9188 83.7484 38.3861 83.1242 37.6628 83.0136C37.0019 82.9126 36.1832 83.2601 35.9507 84.2367C35.6953 83.2022 34.832 82.9126 34.2249 83.0158C33.4902 83.1403 32.9681 83.769 32.9744 84.512C32.9806 85.2478 33.5134 85.872 34.2373 85.9828C34.9039 86.0848 35.7185 85.7311 35.9495 84.7596C36.2042 85.7929 37.0659 86.0836 37.6747 85.9804ZM22.95 83.5273C22.7759 83.3236 22.5648 83.1759 22.314 83.0853C22.0582 82.993 21.796 82.9723 21.5306 83.0257C20.8004 83.1734 20.3013 83.8001 20.3205 84.5383C20.3392 85.268 20.8822 85.8865 21.5946 85.9849C22.2806 86.0796 23.0698 85.7076 23.2989 84.7382C23.3624 85.021 23.4645 85.2635 23.641 85.4691C23.8146 85.672 24.0257 85.8211 24.277 85.9111C24.5328 86.0034 24.7955 86.024 25.0604 85.9701C25.7911 85.8228 26.2903 85.1957 26.2711 84.4574C26.2512 83.7278 25.7082 83.11 24.9963 83.0113C24.3133 82.9168 23.5218 83.2865 23.2927 84.2574C23.2286 83.9759 23.1271 83.7331 22.95 83.5273ZM38.4422 80.1316C36.7511 82.0019 33.8595 81.9716 32.2126 80.1162C31.3706 81.0247 30.3393 81.5176 29.1003 81.5193C27.8647 81.5209 26.8356 81.0339 25.9818 80.123C25.1381 81.0263 24.1108 81.517 22.8768 81.5193C21.6412 81.5215 20.6115 81.0356 19.7555 80.123C18.9146 81.0257 17.8867 81.5164 16.6534 81.5193C15.4183 81.5221 14.388 81.0368 13.5303 80.1236C12.6896 81.0241 11.6632 81.5158 10.4304 81.5193C9.1948 81.5227 8.16457 81.0384 7.31361 80.1339C7.25744 80.1912 7.20357 80.2451 7.14971 80.299C5.91119 81.5508 4.67166 82.8016 3.43544 84.055C3.31234 84.1795 3.17788 84.2316 3.00551 84.2063C2.7649 84.1714 2.53463 84.1027 2.315 83.9989C1.99898 83.8493 1.70694 83.6608 1.43459 83.4406C1.27284 83.3088 1.26825 83.2154 1.4152 83.0675C2.77625 81.6912 4.135 80.3127 5.5028 78.9434C5.71439 78.7319 5.91119 78.5175 6.03889 78.2447C6.63674 76.9733 5.8296 75.4635 4.44987 75.2882C3.18751 75.1277 2.25323 76.0665 2.13515 77.08C2.06089 77.7184 2.23211 78.2768 2.65487 78.7531C2.80526 78.9233 2.98051 79.0712 3.14097 79.2323C3.41217 79.5028 3.68108 79.7757 3.94998 80.0491C4.07653 80.1782 4.07539 80.2835 3.93806 80.3935C3.57449 80.687 3.18535 80.9392 2.73761 81.0842C2.59181 81.1312 2.43868 81.1581 2.2867 81.1833C2.1715 81.2029 2.06304 81.1662 1.98088 81.0813C1.62061 80.7082 1.23535 80.3557 0.910999 79.9516C0.225087 79.0981 -0.0609129 78.1048 0.0202473 77.0066C0.151827 75.212 1.43057 73.6895 3.17343 73.2499C5.50108 72.6617 7.87584 74.2146 8.28035 76.6008C8.31669 76.8157 8.32861 77.0357 8.34441 77.2541C8.37458 77.6462 8.44425 78.0252 8.64621 78.3701C9.07916 79.109 9.91993 79.5114 10.7538 79.3728C11.5974 79.2323 12.2749 78.5782 12.4434 77.7356C12.4638 77.6313 12.4705 77.5231 12.4717 77.4164C12.4778 76.8655 12.479 76.3141 12.4836 75.7633C12.4847 75.5851 12.5665 75.5025 12.7309 75.522C13.1393 75.5713 13.5423 75.6522 13.9189 75.8236C14.0801 75.8974 14.2298 75.9989 14.3819 76.0906C14.5423 76.1874 14.6087 76.3308 14.6037 76.5199C14.5958 76.7979 14.6048 77.0761 14.6008 77.3534C14.5935 77.9001 14.7903 78.3673 15.1619 78.7509C15.7337 79.3406 16.4337 79.5388 17.2173 79.3126C17.995 79.0873 18.4943 78.5502 18.6617 77.7493C18.9402 76.4214 17.9719 75.3465 16.8626 75.2475C16.7622 75.2382 16.6608 75.2319 16.5593 75.2319C15.2952 75.2308 14.0307 75.2314 12.7667 75.2314C12.5028 75.2314 12.4536 75.1822 12.4824 74.9226C12.5273 74.5132 12.6157 74.1136 12.7906 73.7405C12.866 73.5789 12.967 73.4287 13.0633 73.2775C13.1491 73.1438 13.2778 73.0888 13.4344 73.0906C13.6369 73.0922 13.8395 73.0906 14.0426 73.0906C14.9105 73.0906 15.7791 73.0877 16.6483 73.0916C17.2593 73.0946 17.8488 73.2138 18.3989 73.486C19.726 74.1441 20.523 75.2102 20.7647 76.688C20.8004 76.9028 20.8123 77.1241 20.8146 77.3424C20.826 78.3932 21.6242 79.2798 22.6601 79.3835C23.7703 79.4953 24.753 78.7257 24.9129 77.617C24.9219 77.555 24.9238 77.4909 24.9238 77.4279C24.9242 76.1015 24.9242 74.7757 24.9242 73.4493C24.9242 73.1656 24.9713 73.1174 25.2454 73.1496C25.6351 73.1953 26.0164 73.2826 26.3743 73.4471C26.5315 73.5193 26.6761 73.6184 26.8242 73.7096C26.9825 73.8071 27.0495 73.9527 27.0443 74.1406C27.0381 74.3791 27.0432 74.6181 27.0432 74.857C27.0432 75.6768 27.042 76.4958 27.0432 77.315C27.0443 78.3409 27.771 79.2121 28.7724 79.3709C30.0788 79.5785 31.1619 78.5479 31.1614 77.3247C31.1585 74.3458 31.1602 71.3664 31.1602 68.3875C31.1602 68.3382 31.1591 68.2894 31.1608 68.2409C31.1654 68.0842 31.2345 68.007 31.3837 68.0225C31.985 68.0837 32.5615 68.2229 33.0652 68.5869C33.2172 68.6971 33.282 68.8323 33.2809 69.0204C33.2768 70.239 33.2791 71.4581 33.2791 72.6772C33.2791 74.218 33.2774 75.7587 33.2797 77.2996C33.2809 78.231 33.8612 79.0293 34.7308 79.3044C35.9228 79.6816 37.1856 78.8905 37.3774 77.6462C37.3866 77.5839 37.3853 77.5196 37.3853 77.4566C37.3858 76.1353 37.386 74.8136 37.386 73.4923C37.386 73.4534 37.3853 73.4143 37.386 73.3753C37.3899 73.1959 37.4602 73.125 37.6389 73.1432C38.1171 73.1914 38.5807 73.3016 39.0096 73.529C39.1281 73.5921 39.2372 73.6746 39.3472 73.7537C39.4476 73.8254 39.4992 73.928 39.5032 74.0524C39.5055 74.1114 39.5049 74.1699 39.5049 74.2283C39.5049 75.2571 39.5026 76.2861 39.5061 77.3155C39.5088 78.2355 40.0937 79.0322 40.9578 79.305C41.1524 79.3664 41.3526 79.3985 41.5558 79.3985C43.602 79.3991 45.6482 79.3956 47.6941 79.3991C48.0367 79.3997 48.3709 79.3664 48.6806 79.2133C49.4579 78.8304 49.8709 78.2016 49.893 77.3247C49.8997 77.0524 49.8997 76.7767 49.8624 76.5085C49.7426 75.6561 49.0324 74.9471 48.1882 74.8113C47.0831 74.6341 46.0744 75.3146 45.8271 76.4099C45.7958 76.5508 45.7823 76.6993 45.78 76.8444C45.7742 77.288 45.7742 77.7316 45.7794 78.1753C45.7817 78.3628 45.7136 78.4985 45.5638 78.6104C45.2387 78.8535 44.8705 78.9898 44.4825 79.0798C44.2902 79.1245 44.0944 79.1538 43.8982 79.176C43.732 79.195 43.6605 79.1268 43.6605 78.9618C43.6599 78.192 43.6451 77.4205 43.6695 76.6513C43.7001 75.6596 44.0638 74.7905 44.7163 74.0524C45.4453 73.2276 46.3637 72.7528 47.4524 72.6578C49.7416 72.4578 51.5609 74.0735 51.9211 76.0551C51.9706 76.3267 51.9904 76.6058 52.0006 76.8828C52.0136 77.2331 52.0096 77.5833 51.9558 77.9322C51.8105 78.8695 51.4054 79.6719 50.7338 80.3321C50.0297 81.023 49.1821 81.4092 48.2074 81.5061C47.997 81.5273 47.7831 81.5209 47.5709 81.5209C45.5876 81.5221 43.6043 81.5205 41.621 81.5221C40.3984 81.5232 39.3647 81.0796 38.5172 80.1906C38.5041 80.1763 38.4911 80.1619 38.4763 80.1487C38.4695 80.143 38.4599 80.1409 38.4422 80.1316Z" fill="#343534"/>
<path fill-rule="evenodd" clip-rule="evenodd" d="M27.3919 51.5508C28.4532 51.1398 29.4825 50.6583 30.5023 50.1555C33.3446 48.7574 36.1085 47.2167 38.8327 45.6011C40.9506 44.3456 43.0412 43.0439 45.0582 41.6268C45.7683 41.1281 46.4746 40.6217 47.1216 40.0398C47.3906 39.7979 47.6361 39.5276 47.8778 39.2573C48.1007 39.0081 48.2432 38.7105 48.3123 38.3835C48.5303 37.3598 48.6683 36.3252 48.6568 35.2766C48.6427 34.0626 48.4813 32.8678 48.1573 31.6962C47.5087 29.342 46.3708 27.244 44.843 25.3479C44.8155 25.313 44.7797 25.2835 44.6862 25.1938C44.7249 25.3876 44.7579 25.5 44.7684 25.6141C44.7845 25.7777 44.8053 25.944 44.7873 26.1045C44.7173 26.7338 44.4445 27.277 44.0026 27.7191C43.671 28.0506 43.3152 28.3606 42.9439 28.6448C42.301 29.1361 41.6476 29.614 40.981 30.0733C38.4777 31.7953 35.8885 33.3836 33.2738 34.9309C30.2785 36.7058 22.3193 40.9645 22.3193 40.9645C23.0842 41.3879 25.2815 42.7331 26.5893 45.5332C27.8491 48.2273 27.543 50.677 27.3919 51.5508Z" fill="#E77D44"/>
<path fill-rule="evenodd" clip-rule="evenodd" d="M17.7617 45.728L13.4483 50.9579C13.1045 51.3736 13.4002 51.9998 13.9384 51.9998H20.6512C20.7267 51.4358 21.2962 47.9538 17.7617 45.728Z" fill="#E77D44"/>
<path fill-rule="evenodd" clip-rule="evenodd" d="M44.8426 25.3479C44.8151 25.313 44.7793 25.2845 44.6858 25.1938C44.7245 25.3876 44.7568 25.501 44.768 25.6153C44.784 25.7777 44.8048 25.944 44.7869 26.1054C44.7161 26.7338 44.4431 27.2768 44.0012 27.72C43.6708 28.0506 43.3148 28.3606 42.9428 28.6448C42.3006 29.1361 41.6462 29.6152 40.9796 30.0733C39.1429 31.3382 37.2591 32.5287 35.3535 33.685C44.6547 32.007 47.4525 35.9425 48.2939 38.4555C48.2994 38.4319 48.3061 38.4084 48.3118 38.3838C48.5289 37.3598 48.6679 36.3262 48.6554 35.2766C48.6413 34.0629 48.4809 32.8676 48.1569 31.6972C47.5073 29.343 46.3695 27.244 44.8426 25.3479Z" fill="#E46E38"/>
<path fill-rule="evenodd" clip-rule="evenodd" d="M49.0124 34.7113C48.8952 34.6357 48.9077 34.5357 48.9039 34.4448C48.8811 33.8449 48.7943 33.2536 48.6753 32.6669C48.1416 30.0388 47.1174 27.6346 45.426 25.5337C44.6772 24.6049 43.8172 23.7926 42.8388 23.1135C41.6264 22.2706 40.4091 21.4307 39.1711 20.6249C36.1542 18.6591 33.058 16.8235 29.9249 15.0506C27.3848 13.6115 24.821 12.2182 22.1989 10.9306C21.1894 10.4347 20.1755 9.94819 19.1244 9.54466C18.7409 9.39827 18.3529 9.26145 17.9581 9.15357C17.4512 9.01556 16.9374 9.02799 16.4313 9.18108C16.1453 9.26695 15.8931 9.40976 15.6683 9.60614C15.6107 9.65709 15.5495 9.70325 15.4541 9.7798C15.4682 9.69201 15.4673 9.64489 15.4833 9.60422C16.6211 6.69556 18.3103 4.1854 20.8062 2.262C22.0724 1.28535 23.4821 0.582342 25.0035 0.0967667C25.4463 -0.0448393 25.8807 -0.0147002 26.3216 0.082654C26.9081 0.211343 27.4671 0.423513 28.0194 0.652188C29.4066 1.22483 30.7529 1.88526 32.0854 2.57559C36.2013 4.70781 40.2042 7.03187 44.0672 9.59561C44.9954 10.2116 45.9075 10.8521 46.7819 11.5446C47.1776 11.8582 47.5496 12.1974 47.9011 12.561C48.1672 12.836 48.3477 13.1609 48.4553 13.5273C48.6846 14.3069 48.8046 15.1061 48.8907 15.9119C49.2144 18.9256 49.3041 21.9503 49.323 24.9783C49.3361 27.1263 49.3204 29.2738 49.2266 31.419C49.1805 32.4741 49.1011 33.5278 49.0351 34.5809C49.0332 34.6149 49.0236 34.6498 49.0124 34.7113Z" fill="#ED9847"/>
<path fill-rule="evenodd" clip-rule="evenodd" d="M13.3045 36.6708C13.6586 37.1006 14.3555 36.8351 14.328 36.2787C14.2214 34.1326 14.0523 30.6661 14.0325 29.8624C13.9495 26.4692 13.9844 23.0759 14.0863 19.6833C14.1506 17.5446 14.2989 15.4105 14.4547 13.2773C14.4951 12.7248 14.5434 12.1681 14.6312 11.6197C14.8662 10.1467 15.3461 8.75429 16.0533 7.44396C17.3291 5.08043 19.0609 3.11995 21.2732 1.5917C21.3573 1.5331 21.4678 1.49889 21.5092 1.35083C21.4621 1.35825 21.4384 1.35729 21.4205 1.36566C21.0814 1.52736 20.7424 1.68595 20.4065 1.85411C16.345 3.88252 12.4141 6.14415 8.58694 8.58709C7.29225 9.41376 6.01669 10.2706 4.79756 11.2066C4.30742 11.5826 3.83928 11.9832 3.4113 12.431C3.17532 12.6793 2.9214 13.1649 2.83437 13.4957C2.73515 13.8753 2.64477 14.258 2.57663 14.6443C2.39612 15.6504 2.31411 16.668 2.2376 17.6853C2.12523 19.1827 2.05445 20.6839 2.02337 22.1849C1.96742 24.8395 2.0676 32.9347 2.11399 36.4081C2.12164 36.9504 2.80521 37.1829 3.144 36.7586L7.73792 31.0178C7.96745 30.7317 8.40283 30.7276 8.63595 31.0113L13.3045 36.6708Z" fill="#F5BD44"/>
<path fill-rule="evenodd" clip-rule="evenodd" d="M22.2648 40.9614L17.7617 45.7275C19.8332 46.9962 20.973 49.3578 20.6784 51.7687L20.6509 52L27.3921 51.5505C27.7907 49.3853 27.4385 47.3437 26.4771 45.3213C25.516 43.2986 24.1118 41.8455 22.2648 40.9614Z" fill="#FFFFFE"/>
</svg>
