<svg width="440" height="153" viewBox="0 0 440 153" fill="none" xmlns="http://www.w3.org/2000/svg">
<path fill-rule="evenodd" clip-rule="evenodd" d="M375.348 150.67C378.449 149.471 381.453 148.059 384.433 146.591C392.735 142.507 400.804 138.002 408.758 133.281C414.947 129.608 421.05 125.804 426.941 121.664C429.014 120.206 431.078 118.725 432.963 117.026C433.749 116.318 434.471 115.531 435.176 114.739C435.825 114.011 436.241 113.139 436.445 112.185C437.081 109.192 437.485 106.17 437.448 103.103C437.409 99.5559 436.936 96.0629 435.992 92.641C434.096 85.7601 430.772 79.6248 426.314 74.0851C426.233 73.9816 426.125 73.8985 425.856 73.6364C425.969 74.2 426.061 74.5284 426.096 74.8647C426.142 75.3428 426.201 75.8274 426.149 76.2985C425.944 78.1368 425.146 79.7228 423.856 81.0168C422.891 81.985 421.851 82.8899 420.764 83.7208C418.888 85.1571 416.979 86.5546 415.032 87.8953C407.722 92.9301 400.16 97.5708 392.529 102.095C383.777 107.282 360.536 119.728 360.536 119.728C362.771 120.966 369.183 124.894 373.007 133.082C376.684 140.958 375.791 148.115 375.348 150.67Z" fill="#E77D44"/>
<path fill-rule="evenodd" clip-rule="evenodd" d="M347.226 133.649L334.628 148.936C333.626 150.149 334.488 151.982 336.06 151.982H355.662C355.885 150.333 357.547 140.155 347.226 133.649Z" fill="#E77D44"/>
<path fill-rule="evenodd" clip-rule="evenodd" d="M426.313 74.0844C426.23 73.9814 426.125 73.8983 425.855 73.6361C425.968 74.1993 426.061 74.5301 426.096 74.864C426.142 75.3416 426.203 75.8271 426.149 76.2978C425.944 78.1365 425.145 79.7226 423.858 81.0166C422.891 81.9847 421.85 82.8917 420.763 83.7225C418.888 85.1568 416.979 86.5538 415.035 87.8951C409.668 91.5911 404.167 95.0721 398.602 98.4502C425.763 93.5473 433.935 105.051 436.393 112.395C436.409 112.327 436.429 112.256 436.444 112.184C437.08 109.191 437.484 106.169 437.448 103.102C437.406 99.5556 436.936 96.0626 435.993 92.6408C434.096 85.7598 430.772 79.6246 426.313 74.0844Z" fill="#E46E38"/>
<path fill-rule="evenodd" clip-rule="evenodd" d="M438.487 101.452C438.145 101.229 438.181 100.937 438.171 100.673C438.105 98.9197 437.848 97.1919 437.503 95.476C435.946 87.796 432.954 80.7682 428.014 74.628C425.83 71.9121 423.313 69.539 420.459 67.5535C416.916 65.0899 413.362 62.6362 409.749 60.2805C400.937 54.5348 391.896 49.1717 382.745 43.9872C375.327 39.7833 367.841 35.7087 360.185 31.949C357.237 30.4978 354.275 29.074 351.202 27.8969C350.086 27.468 348.953 27.0685 347.799 26.7546C346.321 26.3501 344.82 26.3869 343.339 26.8332C342.506 27.0854 341.767 27.5023 341.113 28.0735C340.942 28.2232 340.763 28.36 340.487 28.5834C340.526 28.3262 340.523 28.1884 340.57 28.0685C343.895 19.5676 348.828 12.2309 356.114 6.61012C359.813 3.75693 363.931 1.70273 368.374 0.283349C369.667 -0.131073 370.935 -0.0425168 372.223 0.239569C373.936 0.616677 375.565 1.23955 377.18 1.90621C381.232 3.57832 385.166 5.50964 389.056 7.52702C401.074 13.7578 412.767 20.5507 424.048 28.0441C426.758 29.8456 429.419 31.7162 431.973 33.7406C433.131 34.6575 434.215 35.65 435.241 36.7117C436.022 37.5156 436.548 38.4644 436.862 39.5355C437.533 41.8131 437.88 44.1514 438.132 46.5046C439.077 55.3144 439.339 64.1535 439.396 73.0051C439.435 79.2827 439.388 85.5582 439.114 91.8307C438.977 94.9118 438.744 97.9909 438.554 101.069C438.548 101.17 438.519 101.271 438.487 101.452Z" fill="#ED9847"/>
<path fill-rule="evenodd" clip-rule="evenodd" d="M334.207 107.178C335.243 108.433 337.277 107.658 337.196 106.033C336.886 99.7604 336.39 89.6297 336.334 87.281C336.09 77.3608 336.195 67.4455 336.492 57.5277C336.68 51.2796 337.111 45.0413 337.566 38.8046C337.684 37.1897 337.828 35.5644 338.083 33.9589C338.77 29.657 340.171 25.5854 342.237 21.7541C345.961 14.8463 351.019 9.11799 357.479 4.64891C357.724 4.47976 358.045 4.37976 358.172 3.94543C358.03 3.97031 357.964 3.96533 357.911 3.98971C356.921 4.46284 355.929 4.929 354.951 5.41656C343.087 11.3483 331.608 17.9547 320.434 25.0979C316.651 27.5142 312.927 30.0172 309.365 32.7555C307.936 33.8534 306.565 35.0226 305.318 36.3345C304.628 37.0574 303.887 38.4763 303.632 39.4449C303.341 40.5528 303.079 41.6727 302.878 42.8006C302.354 45.7398 302.114 48.7154 301.891 51.689C301.561 56.0671 301.355 60.4521 301.262 64.8396C301.1 72.5981 301.392 96.2605 301.529 106.411C301.551 107.995 303.546 108.676 304.538 107.435L317.953 90.6566C318.622 89.8178 319.89 89.8108 320.573 90.6372L334.207 107.178Z" fill="#F5BD44"/>
<path fill-rule="evenodd" clip-rule="evenodd" d="M360.375 119.72L347.226 133.65C353.273 137.356 356.603 144.259 355.744 151.306L355.663 151.98L375.348 150.669C376.511 144.337 375.486 138.371 372.678 132.458C369.872 126.549 365.771 122.3 360.375 119.72Z" fill="#FFFFFE"/>
<path fill-rule="evenodd" clip-rule="evenodd" d="M193.484 126.655C193.484 127.19 193.464 127.723 193.423 128.253C193.664 129.195 194.015 130.107 194.472 130.969C196.548 134.625 200.603 136.582 204.664 135.89C208.725 135.198 211.948 131.999 212.766 127.85C212.863 127.331 212.911 126.805 212.912 126.278V118.168C212.912 117.295 213.324 116.895 214.101 116.995C216.072 117.18 218.003 117.677 219.826 118.467C220.592 118.869 221.337 119.31 222.058 119.79C222.786 120.21 223.205 121.031 223.127 121.886V125.979C223.058 128.544 224.034 131.022 225.819 132.816C228.31 135.647 232.176 136.729 235.718 135.585C239.356 134.718 242.143 131.705 242.803 127.925C243.414 125.093 242.815 122.128 241.159 119.781C239.502 117.433 236.948 115.928 234.141 115.647H232.686H214.319C213.057 115.647 212.814 115.398 212.96 114.125C213.146 112.126 213.646 110.17 214.44 108.336C214.83 107.551 215.267 106.793 215.75 106.065C216.147 105.451 216.83 105.099 217.546 105.142H233.098C236.02 105.12 238.908 105.786 241.541 107.088C247.695 109.979 251.993 115.895 252.944 122.785C253.102 123.849 253.176 124.926 253.163 126.003C253.333 131.068 251.494 135.986 248.068 139.628C244.232 143.982 238.786 146.465 233.074 146.465C227.362 146.465 221.915 143.982 218.08 139.628C214.245 143.965 208.809 146.437 203.11 146.437C197.639 146.437 192.411 144.159 188.609 140.141C188.033 140.83 187.41 141.484 186.742 142.097C183.2 145.707 178.312 147.605 173.309 147.315H173.235H155.046C154.286 147.315 153.919 146.94 153.992 146.216C154.159 143.241 155.098 140.363 156.713 137.877C157.185 137.184 157.969 136.78 158.797 136.804H173.113C178.372 136.875 182.792 132.795 183.237 127.457C183.682 122.119 180.001 117.338 174.804 116.507C174.456 116.373 166.433 116.476 164.487 116.501H164.486C164.238 116.504 164.089 116.507 164.067 116.507C163.209 116.507 162.867 116.132 162.94 115.258C163.125 112.893 163.758 110.587 164.803 108.467C165.128 107.887 165.488 107.328 165.882 106.794C166.213 106.314 166.751 106.026 167.328 106.02H173.211C178.206 105.933 183.046 107.79 186.742 111.213C191.034 115.157 193.484 120.768 193.484 126.655ZM7.07973 141.286C2.80748 137.345 0.369385 131.742 0.369385 125.864C0.369385 119.987 2.80748 114.383 7.07973 110.442C10.4605 106.847 15.2095 104.933 20.0857 105.202H30.9476C31.1721 105.121 31.492 105.123 31.9429 105.177C33.9018 105.371 35.8164 105.885 37.6148 106.699C38.3836 107.1 39.1266 107.55 39.8403 108.047C40.4418 108.454 40.7864 109.157 40.7447 109.894V112.913V125.814C40.7522 126.707 40.7015 127.597 40.5918 128.478C40.9061 133.013 45.6631 136.446 50.4196 137.159L51.1333 137.318L109.236 137.136C110.318 136.967 111.369 136.605 112.336 136.062C115.297 134.695 117.398 131.955 117.955 128.733C117.98 128.427 117.98 128.119 117.955 127.813V120.36C117.955 119.49 118.327 119.142 119.193 119.217C121.593 119.405 123.936 120.045 126.1 121.105C126.676 121.432 127.231 121.797 127.758 122.198C128.238 122.531 128.524 123.079 128.526 123.664V124.509V127.167C128.583 132.258 126.707 137.179 123.278 140.932C123.229 140.986 123.179 141.04 123.13 141.093C122.993 141.568 122.746 141.985 122.362 142.322C120.507 143.958 118.363 145.225 116.053 146.077C114.798 146.609 113.487 147.018 112.138 147.292C111.617 147.384 111.22 147.345 110.92 147.248C110.169 147.321 109.411 147.352 108.649 147.342H51.0986L50.6446 146.921L50.6168 147.344C42.9494 147.344 38.1164 144.019 35.0923 140.163C32.0393 143.403 27.9712 145.567 23.4844 146.202C22.4409 146.372 21.3865 146.455 20.3301 146.451C15.3655 146.644 10.54 144.75 6.9814 141.211L7.07973 141.286ZM30.4326 127.095C30.3099 127.461 30.2354 127.869 30.2181 128.322C29.6653 130.644 28.3213 132.709 26.4022 134.13C24.1022 135.833 21.1972 136.449 18.4229 135.821C14.7591 135.149 11.8208 132.346 10.9179 128.659C9.77261 125.021 10.8255 121.035 13.6068 118.478C15.3734 116.64 17.8095 115.637 20.3301 115.708H30.1098C30.2245 115.719 30.3392 115.721 30.452 115.713V125.39V126.912C30.4455 126.974 30.4396 127.035 30.4326 127.095ZM128.472 142.436C130.482 142.689 132.52 142.291 134.286 141.299C137.245 139.94 139.345 137.214 139.902 134.009C139.927 133.696 139.927 133.382 139.902 133.071V113.301C139.902 112.436 140.249 112.09 141.139 112.189C143.54 112.363 145.884 113.002 148.042 114.067C148.62 114.389 149.174 114.752 149.7 115.154C150.175 115.478 150.462 116.013 150.467 116.588V132.452C150.585 137.543 148.733 142.482 145.296 146.241C142.351 149.476 138.451 151.692 134.163 152.568C132.48 152.864 132.084 151.802 132.084 151.802L127.829 143.671C127.829 143.671 127.136 142.559 128.472 142.559V142.436Z" fill="#E77D44"/>
<path fill-rule="evenodd" clip-rule="evenodd" d="M231.742 17.6678C235.739 17.6678 238.99 14.3923 238.971 10.3809C238.951 6.39337 235.716 3.15959 231.744 3.1571C227.75 3.1571 224.498 6.43516 224.517 10.4465C224.537 14.4316 227.771 17.6678 231.742 17.6678ZM183.397 89.909C186.974 89.3101 189.515 86.2753 189.483 82.6932C189.452 79.1425 186.86 76.1301 183.335 75.5948C180.119 75.1088 176.133 76.7859 175 81.4972C173.757 76.5058 169.555 75.1088 166.6 75.6073C163.022 76.2087 160.479 79.241 160.51 82.8256C160.54 86.3758 163.134 89.3887 166.658 89.921C169.905 90.4125 173.871 88.7061 174.993 84.0186C176.237 89.0081 180.432 90.4075 183.397 89.909ZM111.705 78.0749C110.859 77.0948 109.831 76.3784 108.608 75.9411C107.362 75.4963 106.087 75.3958 104.795 75.654C101.239 76.368 98.8091 79.3903 98.902 82.9534C98.9929 86.4718 101.639 89.4573 105.106 89.9314C108.446 90.3901 112.286 88.5951 113.402 83.9181C113.711 85.2808 114.211 86.4519 115.069 87.4439C115.916 88.424 116.943 89.1404 118.166 89.5777C119.412 90.0225 120.687 90.123 121.98 89.8623C125.535 89.1503 127.968 86.126 127.872 82.5629C127.779 79.0445 125.134 76.0615 121.668 75.5849C118.341 75.1282 114.491 76.9132 113.373 81.5982C113.061 80.238 112.563 79.0664 111.705 78.0749ZM187.132 61.693C178.899 70.7138 164.816 70.569 156.803 61.6144C152.703 65.9995 147.683 68.3765 141.649 68.386C135.633 68.3959 130.621 66.0437 126.462 61.6513C122.36 66.0069 117.357 68.3765 111.347 68.386C105.332 68.3984 100.319 66.0512 96.151 61.6513C92.0556 66.0044 87.0532 68.3716 81.0481 68.386C75.0331 68.4009 70.0179 66.0587 65.842 61.6537C61.7495 65.9975 56.7516 68.3691 50.749 68.386C44.7365 68.4029 39.7187 66.0661 35.5771 61.703C35.3029 61.9776 35.0402 62.2383 34.778 62.4985C28.748 68.5382 22.7131 74.5735 16.6907 80.6206C16.0947 81.2221 15.4396 81.4729 14.6012 81.3525C13.4266 81.1853 12.3087 80.8515 11.2393 80.3505C9.70219 79.6261 8.27678 78.7207 6.95269 77.657C6.1635 77.0217 6.14413 76.5699 6.85733 75.855C13.4857 69.2158 20.0987 62.5647 26.7589 55.9578C27.7895 54.9364 28.7456 53.9001 29.3679 52.5867C32.2793 46.453 28.3502 39.166 21.6314 38.3218C15.4863 37.5481 10.9354 42.0759 10.3618 46.9669C10.0012 50.048 10.8375 52.7414 12.8897 55.0394C13.6253 55.8618 14.4761 56.5737 15.2608 57.3498C16.5799 58.6588 17.8921 59.9717 19.1993 61.2931C19.8146 61.9144 19.8072 62.4249 19.1427 62.9552C17.3696 64.3691 15.4744 65.5895 13.297 66.2845C12.5853 66.5129 11.8398 66.6427 11.0993 66.7656C10.5405 66.8591 10.0111 66.6825 9.61378 66.2746C7.8581 64.4726 5.98172 62.7711 4.40285 60.8239C1.06282 56.7041 -0.327824 51.9111 0.0645359 46.6157C0.707212 37.9556 6.93332 30.6094 15.4157 28.4856C26.752 25.6473 38.3112 33.1432 40.2804 44.6535C40.4592 45.6948 40.5164 46.7555 40.5943 47.8087C40.7394 49.6992 41.0796 51.526 42.0634 53.1927C44.1698 56.7553 48.2647 58.6981 52.3229 58.0274C56.4308 57.3498 59.7286 54.1947 60.5481 50.1285C60.6509 49.6281 60.6852 49.1047 60.6901 48.5893C60.7194 45.9306 60.7244 43.2739 60.7438 40.6148C60.7512 39.7551 61.151 39.3551 61.9531 39.4506C63.9417 39.6864 65.9011 40.077 67.7347 40.9043C68.5194 41.2605 69.2456 41.7491 69.991 42.1933C70.7683 42.6595 71.0921 43.35 71.0673 44.2659C71.0305 45.6037 71.0747 46.947 71.0554 48.2873C71.0186 50.9246 71.9772 53.1783 73.787 55.03C76.5703 57.8727 79.9788 58.8304 83.7917 57.7379C87.5802 56.6523 90.0108 54.0593 90.8249 50.1977C92.1782 43.7893 87.4655 38.6038 82.0658 38.1247C81.5776 38.081 81.0849 38.0516 80.5917 38.0516C74.4346 38.0466 68.2795 38.0466 62.1245 38.0466C60.8416 38.0466 60.5992 37.8108 60.7388 36.5561C60.9573 34.5845 61.3914 32.6547 62.2372 30.8552C62.6052 30.0741 63.1004 29.3497 63.5692 28.6209C63.9835 27.9751 64.6132 27.71 65.3736 27.7169C66.362 27.7269 67.3478 27.7194 68.3357 27.7194C72.5632 27.7194 76.7938 27.705 81.0233 27.7244C83.9978 27.7368 86.867 28.3134 89.5445 29.6274C96.0085 32.8019 99.8859 37.9461 101.065 45.0734C101.239 46.1122 101.298 47.1798 101.31 48.2335C101.364 53.3036 105.249 57.5782 110.295 58.0812C115.699 58.6215 120.481 54.9071 121.262 49.5594C121.305 49.2594 121.313 48.9505 121.313 48.646C121.315 42.2471 121.315 35.8492 121.315 29.4483C121.315 28.0806 121.546 27.8473 122.88 28.0015C124.778 28.2229 126.634 28.6448 128.378 29.4383C129.14 29.789 129.846 30.2657 130.567 30.705C131.34 31.1766 131.661 31.8786 131.639 32.785C131.609 33.9362 131.632 35.0905 131.632 36.2417C131.632 40.1949 131.627 44.148 131.632 48.1007C131.639 53.0529 135.177 57.2563 140.052 58.0225C146.413 59.0219 151.685 54.0474 151.68 48.1475C151.67 33.7746 151.678 19.4011 151.678 5.02573C151.678 4.78992 151.673 4.5541 151.68 4.31828C151.705 3.56456 152.041 3.19143 152.767 3.26506C155.695 3.56207 158.5 4.23022 160.953 5.9904C161.693 6.52074 162.007 7.17396 162.004 8.07992C161.985 13.9604 161.994 19.8404 161.994 25.7234C161.994 33.1581 161.987 40.5899 161.996 48.0246C162.004 52.5181 164.829 56.3727 169.061 57.7011C174.865 59.5175 181.013 55.7046 181.948 49.6992C181.994 49.3997 181.986 49.0878 181.986 48.7833C181.989 42.4093 181.989 36.0332 181.989 29.6567C181.989 29.4701 181.987 29.2811 181.989 29.092C182.009 28.2279 182.35 27.8841 183.221 27.9727C185.55 28.206 187.806 28.7358 189.893 29.8363C190.471 30.1403 191.004 30.5358 191.538 30.9164C192.026 31.2651 192.276 31.7582 192.298 32.3602C192.306 32.6427 192.306 32.9248 192.306 33.2069C192.306 38.1715 192.293 43.1386 192.311 48.1032C192.325 52.5424 195.172 56.3872 199.378 57.7036C200.327 57.9976 201.301 58.1528 202.291 58.1528C212.254 58.1553 222.215 58.1409 232.178 58.1553C233.846 58.1578 235.472 57.9976 236.979 57.2613C240.763 55.4125 242.776 52.3783 242.882 48.1475C242.916 46.8366 242.916 45.5032 242.732 44.2092C242.149 40.0964 238.691 36.674 234.584 36.0213C229.201 35.1641 224.289 38.4466 223.088 43.7351C222.933 44.4157 222.87 45.1296 222.859 45.8296C222.831 47.9704 222.831 50.1116 222.854 52.2529C222.867 53.1564 222.534 53.8116 221.808 54.3494C220.224 55.5205 218.428 56.1837 216.54 56.6155C215.604 56.8319 214.648 56.9742 213.694 57.0797C212.884 57.1702 212.538 56.8439 212.538 56.0484C212.536 52.3315 212.463 48.6112 212.58 44.8963C212.733 40.1138 214.5 35.9203 217.681 32.3572C221.229 28.3776 225.699 26.0921 231.001 25.6304C242.144 24.6652 251.004 32.4606 252.757 42.0217C252.997 43.3326 253.095 44.6809 253.144 46.0142C253.206 47.7032 253.188 49.3942 252.926 51.0788C252.219 55.6016 250.248 59.4712 246.975 62.6582C243.549 65.9925 239.424 67.8556 234.677 68.3223C233.652 68.4233 232.612 68.3934 231.58 68.3934C221.923 68.3984 212.266 68.391 202.61 68.3984C196.656 68.4059 191.624 66.2651 187.497 61.9731C187.433 61.907 187.369 61.8353 187.299 61.7741C187.264 61.7473 187.218 61.7324 187.132 61.693Z" fill="#1D1D1B"/>
</svg>
