<svg xmlns="http://www.w3.org/2000/svg" viewBox="0 0 60.87 105.08"><title>filimo-logo</title><g id="Layer_2" data-name="Layer 2"><g id="Layer_1-2" data-name="Layer 1"><path d="M14.82,53.82h.34a12.68,12.68,0,0,0,2.14-.12h.32a3,3,0,0,1-.49-.4,4.18,4.18,0,0,1-.67-.93A5,5,0,0,1,16,51a26.25,26.25,0,0,1-.42-3.17c-.16-1.72-.26-3.56-.36-5.82V24.08c0-2.61.24-5.3.51-8.23a8,8,0,0,1,.18-1.52A16.93,16.93,0,0,1,17.75,9,21.53,21.53,0,0,1,22.47,3C18,5.32,13.39,7.95,8.82,10.86A53.62,53.62,0,0,0,4,14.15a14.77,14.77,0,0,0-1.7,1.5,2.27,2.27,0,0,0-.61,1,15.49,15.49,0,0,0-.38,1.66,37.28,37.28,0,0,0-.42,3.8C.79,23.94.71,25.84.67,27.74c-.1,5,0,9.12.14,12.92a41.16,41.16,0,0,0,.46,5.42,13.46,13.46,0,0,0,.36,1.78,2.91,2.91,0,0,0,1.07,1.68h.1A16.7,16.7,0,0,0,9.06,53a20,20,0,0,0,5.82.83" fill="#fdc52c"/><path d="M54.67,32.55a3.7,3.7,0,0,1-1.09,2.24A13.74,13.74,0,0,1,52.21,36c-.87.67-1.68,1.25-2.49,1.82-3.44,2.37-7,4.53-9.77,6.07C36,46.2,32.15,48.36,28.41,50.3c-1.7.89-3.52,1.78-5.88,2.87a17.11,17.11,0,0,1-6.85,1.58h-.53a20.94,20.94,0,0,1-3.4-.28,22.57,22.57,0,0,1-3.42-.83c4,2.57,8.09,5,12.64,7.38,2.26,1.19,4,2,5.72,2.79a15.74,15.74,0,0,0,2.71,1,2.61,2.61,0,0,0,.59,0,2.39,2.39,0,0,0,.57,0,13.37,13.37,0,0,0,1.66-.51c1.42-.55,2.77-1.19,3.9-1.76,3.23-1.6,6.67-3.46,10.51-5.74,3.13-1.86,5.62-3.46,7.84-5a26.79,26.79,0,0,0,2.57-2,12.75,12.75,0,0,0,.93-1,2,2,0,0,0,.46-1,16.84,16.84,0,0,0-.12-8,21.58,21.58,0,0,0-3.58-7.18" fill="#f08136"/><path d="M59.71,31.16a87.4,87.4,0,0,0-.55-11.42,16.85,16.85,0,0,0-.55-3A2.53,2.53,0,0,0,58,15.71a14.18,14.18,0,0,0-1.37-1.25c-1-.77-2-1.56-3.42-2.45a163.14,163.14,0,0,0-15.1-8.85c-2-1.05-3.6-1.8-5.12-2.43A12.72,12.72,0,0,0,31,0a3.67,3.67,0,0,0-.79,0,2.27,2.27,0,0,0-.71.1,16.85,16.85,0,0,0-5.2,2.69A20.22,20.22,0,0,0,18,11.12l.44-.16a3.93,3.93,0,0,1,1.13-.16,3.78,3.78,0,0,1,1,.14c.44.12.93.28,1.52.51C23.42,12,24.75,12.6,26,13.2c2.93,1.44,6.07,3.09,9.79,5.22C40.32,21,44,23.23,47.47,25.48c1.62,1.05,3.26,2.18,4.65,3.15a16.17,16.17,0,0,1,3.34,3.13,20.72,20.72,0,0,1,4,8.9c0-.42,0-.83,0-1.25.1-2.34.14-4.93.12-8.09" fill="#f6a033"/><path d="M58.49,47.68a17,17,0,0,0,.36-3.5,17.44,17.44,0,0,0-.55-4.39,21.55,21.55,0,0,0-3.58-7.18,3.7,3.7,0,0,1-1.09,2.24,13.68,13.68,0,0,1-1.37,1.19c-.87.67-1.68,1.25-2.49,1.82-2.14,1.48-4.35,2.87-6.37,4,10.37-1.58,14,2.63,15.16,5.68" fill="#ed6e28"/><path d="M24.2,2.73A20.22,20.22,0,0,0,17.92,11l.44-.16a3.91,3.91,0,0,1,1.13-.16,3.8,3.8,0,0,1,1,.14q.76.22,1.5.51c1.35.53,2.69,1.15,3.92,1.76,1.92.93,3.9,2,6.07,3.15C24.55,7.6,27.56,2.12,29.1.1a16.81,16.81,0,0,0-4.93,2.59" fill="#f28d25"/><path d="M14.82,53.82h.34a12.73,12.73,0,0,0,2.14-.12h.32a3,3,0,0,1-.49-.4,4.17,4.17,0,0,1-.67-.93A5,5,0,0,1,16,51a26.27,26.27,0,0,1-.42-3.17c-.16-1.72-.26-3.56-.36-5.82V38.64C13.83,42.56,10.09,50.57,2.91,49.7a16.74,16.74,0,0,0,6.21,3.4,20,20,0,0,0,5.82.83" fill="#f9af1a"/><path d="M45,98.27a5,5,0,0,1-7.35,0,5,5,0,0,1-7.28,0,5,5,0,0,1-7.3,0,5,5,0,0,1-7.27,0,5,5,0,0,1-7.31,0l-.27.25c-1.38,1.37-2.75,2.72-4.12,4.1a.79.79,0,0,1-1,.24c-.48-.22-1-.47-1.42-.72-.29-.16-.29-.35,0-.59,1.26-1.22,2.5-2.47,3.75-3.7.39-.39.81-.78,1.19-1.19A2.29,2.29,0,0,0,7,94a2.42,2.42,0,0,0-4.5.37,2.3,2.3,0,0,0,.6,2.39q.66.67,1.34,1.31c.23.22.27.4,0,.57-.5.27-1,.54-1.52.76a.68.68,0,0,1-.82-.23A16,16,0,0,1,1,98,4.52,4.52,0,0,1,.4,93.23a4.58,4.58,0,0,1,3.83-2.95A4.81,4.81,0,0,1,9.7,94.06c.1.48.1,1,.2,1.47a2.42,2.42,0,0,0,2.51,1.9,2.39,2.39,0,0,0,2.26-2.35q0-.87,0-1.76c0-.27.11-.43.39-.33.57.17,1.09.36,1.68.57a.58.58,0,0,1,.37.64v.84a2.42,2.42,0,0,0,4.84.05,2.37,2.37,0,0,0-2.33-2.47H15.19c-.57,0-.63,0-.49-.59a10.11,10.11,0,0,1,.6-1.58.48.48,0,0,1,.35-.24,39.09,39.09,0,0,1,4.73.09A4.65,4.65,0,0,1,24.26,95a2.46,2.46,0,0,0,2,2.47,2.39,2.39,0,0,0,2.89-2.39V91c0-.75,0-.81.78-.61a9.73,9.73,0,0,1,1.31.5.62.62,0,0,1,.37.66c0,1.18,0,2.37,0,3.55a2.39,2.39,0,0,0,2.25,2.4,2.42,2.42,0,0,0,2.53-1.88,3.09,3.09,0,0,0,.05-.68V85c0-.54,0-.58.54-.47a9.88,9.88,0,0,1,1.41.44.81.81,0,0,1,.52.87c0,1.71,0,3.44,0,5.16v4a2.43,2.43,0,0,0,4.85.22c0-1.46,0-2.93,0-4.37,0-.46,0-.52.47-.43a12.78,12.78,0,0,1,1.62.53.6.6,0,0,1,.36.64V95a2.45,2.45,0,0,0,2.57,2.57h6.84a2.59,2.59,0,0,0,2.8-3.21,2.42,2.42,0,0,0-4-1.52,2.39,2.39,0,0,0-.8,1.83V96a.64.64,0,0,1-.41.7c-.56.2-1.09.37-1.69.52-.09,0-.33-.12-.32-.19a21.53,21.53,0,0,1,.15-3.6,4.74,4.74,0,0,1,5.08-3.65A4.83,4.83,0,0,1,60.79,94a5.14,5.14,0,0,1-1.27,4.37,4.75,4.75,0,0,1-3.58,1.53H49.46A5.38,5.38,0,0,1,45,98.28" fill="#1d1d1b"/><path d="M42.06,103.73c-.49,1.09-1.19,1.49-2.05,1.3a1.71,1.71,0,0,1-1.41-1.62,1.69,1.69,0,0,1,1.26-1.7c.92-.26,1.57.11,2.18,1.23.62-1.09,1.29-1.5,2.18-1.25a1.7,1.7,0,0,1,0,3.28c-.91.23-1.55-.15-2.18-1.28" fill="#1d1d1b"/><path d="M27.21,103c.51-1.09,1.25-1.51,2.18-1.29a1.7,1.7,0,0,1-.13,3.35,1.76,1.76,0,0,1-2-1.21,7.76,7.76,0,0,1-1,1,1.47,1.47,0,0,1-1.42.11,1.7,1.7,0,0,1,.24-3.28c.86-.21,1.44.14,2.18,1.29" fill="#1d1d1b"/><path d="M55.69,87.8A1.69,1.69,0,0,1,54,86.1a1.71,1.71,0,1,1,1.73,1.7" fill="#1d1d1b"/></g></g></svg>