<svg xmlns="http://www.w3.org/2000/svg" viewBox="0 0 75.96 85.06"><defs><style>.cls-1,.cls-3,.cls-5,.cls-6{fill:none;stroke-width:2px;}.cls-1,.cls-3{stroke:#ccc;}.cls-1,.cls-5{stroke-miterlimit:10;}.cls-2{fill:#36a9e1;}.cls-3,.cls-6{stroke-linecap:round;stroke-linejoin:round;}.cls-4{fill:#dbf3ff;}.cls-5,.cls-6{stroke:#36a9e1;}</style></defs><title>flexible-hours</title><g id="Layer_2" data-name="Layer 2"><g id="Layer_1-2" data-name="Layer 1"><line class="cls-1" x1="0.27" y1="84.06" x2="40.97" y2="84.06"/><line class="cls-1" x1="44.97" y1="84.06" x2="65.37" y2="84.06"/><line class="cls-1" x1="69.07" y1="84.06" x2="73.47" y2="84.06"/><rect class="cls-2" x="23.95" y="12.19" width="2.3" height="2.3"/><rect class="cls-2" x="28.55" y="12.19" width="2.3" height="2.3"/><rect class="cls-2" x="33.92" y="12.19" width="2.3" height="2.3"/><rect class="cls-3" x="1" y="7.43" width="57.89" height="47.17"/><line class="cls-1" x1="0.46" y1="20.29" x2="59.42" y2="20.29"/><path class="cls-4" d="M13.54,1h-.43a3,3,0,0,0-3,3v9.86h6.43V4a3,3,0,0,0-3-3"/><path class="cls-5" d="M13.54,1h-.43a3,3,0,0,0-3,3v9.86h6.43V4A3,3,0,0,0,13.54,1Z"/><path class="cls-4" d="M46.77,1h-.43a3,3,0,0,0-3,3v9.86h6.43V4a3,3,0,0,0-3-3"/><path class="cls-5" d="M46.77,1h-.43a3,3,0,0,0-3,3v9.86h6.43V4A3,3,0,0,0,46.77,1Z"/><rect class="cls-3" x="19.22" y="25.65" width="8.58" height="8.58"/><rect class="cls-3" x="32.09" y="25.65" width="8.58" height="8.58"/><rect class="cls-3" x="44.95" y="25.65" width="8.58" height="8.58"/><rect class="cls-4" x="19.22" y="39.59" width="8.58" height="8.58"/><rect class="cls-6" x="19.22" y="39.59" width="8.58" height="8.58"/><rect class="cls-3" x="32.09" y="39.59" width="8.58" height="8.58"/><rect class="cls-3" x="6.36" y="39.59" width="8.58" height="8.58"/><path class="cls-4" d="M42.81,59.42A16.08,16.08,0,1,0,58.88,43.34,16.07,16.07,0,0,0,42.81,59.42"/><circle class="cls-5" cx="58.88" cy="59.42" r="16.08" transform="matrix(0.99, -0.16, 0.16, 0.99, -8.76, 10.2)"/><polyline class="cls-4" points="57.28 49.24 57.28 61.03 64.78 61.03"/><polyline class="cls-5" points="57.28 49.24 57.28 61.03 64.78 61.03"/></g></g></svg>