<svg xmlns="http://www.w3.org/2000/svg" viewBox="0 0 76.55 78.58"><defs><style>.cls-1{fill:#fff;}.cls-2,.cls-3,.cls-4{fill:none;stroke-width:2px;}.cls-2{stroke:#36a9e1;stroke-linecap:round;}.cls-2,.cls-3{stroke-linejoin:round;}.cls-3,.cls-4{stroke:#ccc;}.cls-4{stroke-miterlimit:10;}</style></defs><title>football</title><g id="Layer_2" data-name="Layer 2"><g id="Layer_1-2" data-name="Layer 1"><path class="cls-1" d="M72.7,7.08,63.07,23.82l-1,1.33a3.52,3.52,0,0,1-4.59.93L46,19.37a3.55,3.55,0,0,1-1.44-4.53L45.79,12,52.16,1"/><path class="cls-2" d="M72.7,7.08,63.07,23.82l-1,1.33a3.52,3.52,0,0,1-4.59.93L46,19.37a3.55,3.55,0,0,1-1.44-4.53L45.79,12,52.16,1"/><path class="cls-3" d="M26.2,23.56A23.88,23.88,0,1,1,2.33,47.43,23.88,23.88,0,0,1,26.2,23.56Z"/><polygon class="cls-3" points="34.93 69.56 25.99 64.1 25.99 55.81 33.45 50.39 42.16 52.35 43.9 63.19 34.93 69.56"/><polygon class="cls-3" points="49.93 44.75 42.4 52.35 33.69 50.39 30.84 41.62 36.22 33.34 46.81 35.37 49.93 44.75"/><polygon class="cls-3" points="17.91 69.89 25.99 64.1 25.99 55.82 18.53 50.39 9.82 52.35 8.51 63.66 17.91 69.89"/><polygon class="cls-3" points="2.5 44.63 10.01 52.35 18.72 50.39 21.57 41.62 16.19 33.34 5.63 35.32 2.5 44.63"/><polygon class="cls-3" points="21.51 24.14 16.07 33.58 21.51 41.96 30.89 41.96 36.34 33.58 30.89 24.14 21.51 24.14"/><path class="cls-1" d="M59.36,36.1,57,40.22c-1.3,2.24-4.42,2.86-7,1.39l-6.85-4a7.63,7.63,0,0,0-3.47-4.12l-4-2.31A4,4,0,0,0,33,30.73a3.92,3.92,0,0,1-2.72-.48l-22-12.71C5.62,16,4.58,13,5.9,10.71L8.28,6.59Z"/><path class="cls-2" d="M59.36,36.1,57,40.22c-1.3,2.24-4.42,2.86-7,1.39l-6.85-4a7.63,7.63,0,0,0-3.47-4.12l-4-2.31A4,4,0,0,0,33,30.73a3.92,3.92,0,0,1-2.72-.48l-22-12.71C5.62,16,4.58,13,5.9,10.71L8.28,6.59Z"/><path class="cls-1" d="M53.28,23.79a5.81,5.81,0,0,0,4.65.57l1.68-.55a5.81,5.81,0,0,1,4.65.56,1.54,1.54,0,0,1,.69,2L59.36,36.1c-1.3,2.24-4.42,2.86-7,1.39l-6.85-4a7.73,7.73,0,0,0-3.47-4.13l-4-2.3a4,4,0,0,0-2.74-.49,3.92,3.92,0,0,1-2.72-.48l-22-12.71C8,11.92,7,8.86,8.28,6.59a4.94,4.94,0,0,1,5.2-2.23S41.06,9.42,43.81,11l1.91,1.1L44.3,14.58a3.47,3.47,0,0,0,1.27,4.76Z"/><path class="cls-2" d="M53.28,23.79a5.81,5.81,0,0,0,4.65.57l1.68-.55a5.81,5.81,0,0,1,4.65.56,1.54,1.54,0,0,1,.69,2L59.36,36.1c-1.3,2.24-4.42,2.86-7,1.39l-6.85-4a7.73,7.73,0,0,0-3.47-4.13l-4-2.3a4,4,0,0,0-2.74-.49,3.92,3.92,0,0,1-2.72-.48l-22-12.71C8,11.92,7,8.86,8.28,6.59a4.94,4.94,0,0,1,5.2-2.23S41.06,9.42,43.81,11l1.91,1.1L44.3,14.58a3.47,3.47,0,0,0,1.27,4.76Z"/><polygon class="cls-1" points="32.12 8.28 34.14 15.8 39.35 16.71 37.34 9.21 32.12 8.28"/><polygon class="cls-2" points="32.12 8.28 34.14 15.8 39.35 16.71 37.34 9.21 32.12 8.28"/><path class="cls-1" d="M56.93,24.58a5.57,5.57,0,0,0,1-.22l.89-.29,1.76-.47a6,6,0,0,1,3.68.77A1.55,1.55,0,0,1,65,26.42L59.36,36.1c-1.3,2.24-4.42,2.86-7,1.39l-6.85-4a7.73,7.73,0,0,0-3.47-4.13l-.94-.54v-.05Z"/><path class="cls-2" d="M56.93,24.58a5.57,5.57,0,0,0,1-.22l.89-.29,1.76-.47a6,6,0,0,1,3.68.77A1.55,1.55,0,0,1,65,26.42L59.36,36.1c-1.3,2.24-4.42,2.86-7,1.39l-6.85-4a7.73,7.73,0,0,0-3.47-4.13l-.94-.54v-.05Z"/><polygon class="cls-1" points="21.72 6.59 23.69 13.92 28.89 14.82 26.91 7.43 21.72 6.59"/><polygon class="cls-2" points="21.72 6.59 23.69 13.92 28.89 14.82 26.91 7.43 21.72 6.59"/><path class="cls-1" d="M45.29,44.48l.3.18a2.22,2.22,0,0,0,3-.82l1.29-2.22-4.16-2.4-1.28,2.23a2.21,2.21,0,0,0,.81,3"/><path class="cls-2" d="M45.29,44.48l.3.18a2.22,2.22,0,0,0,3-.82l1.29-2.22-4.16-2.4-1.28,2.23A2.21,2.21,0,0,0,45.29,44.48Z"/><path class="cls-1" d="M21,30.47l.3.17a2.23,2.23,0,0,0,3-.81l1.28-2.23-4.15-2.4L20.2,27.43a2.23,2.23,0,0,0,.82,3"/><path class="cls-2" d="M21,30.47l.3.17a2.23,2.23,0,0,0,3-.81l1.28-2.23-4.15-2.4L20.2,27.43A2.23,2.23,0,0,0,21,30.47Z"/><path class="cls-1" d="M8.65,23.33l.3.17a2.22,2.22,0,0,0,3-.81l1.29-2.23-4.15-2.4L7.84,20.29a2.22,2.22,0,0,0,.81,3"/><path class="cls-2" d="M8.65,23.33l.3.17a2.22,2.22,0,0,0,3-.81l1.29-2.23-4.15-2.4L7.84,20.29A2.22,2.22,0,0,0,8.65,23.33Z"/><line class="cls-4" y1="77.58" x2="40.7" y2="77.58"/><line class="cls-4" x1="44.7" y1="77.58" x2="65.1" y2="77.58"/><line class="cls-4" x1="68.8" y1="77.58" x2="73.2" y2="77.58"/><line class="cls-4" x1="71.57" y1="66.14" x2="71.57" y2="75.59"/><line class="cls-4" x1="75.7" y1="68.93" x2="71.94" y2="75.06"/><line class="cls-4" x1="67.44" y1="68.93" x2="71.2" y2="75.06"/></g></g></svg>