<svg xmlns="http://www.w3.org/2000/svg" viewBox="0 0 79 79.02"><defs><style>.cls-1{fill:#fff;}.cls-2,.cls-4,.cls-5,.cls-6{fill:none;stroke-width:2px;}.cls-2,.cls-5{stroke:#ccc;}.cls-2,.cls-6{stroke-linecap:round;stroke-linejoin:round;}.cls-3{fill:#dbf3ff;}.cls-4,.cls-6{stroke:#36a9e1;}.cls-4,.cls-5{stroke-miterlimit:10;}</style></defs><title>insurance</title><g id="Layer_2" data-name="Layer 2"><g id="Layer_1-2" data-name="Layer 1"><path class="cls-1" d="M59.25,60H20.86a4.31,4.31,0,0,1-4.3-4.3V5.31A4.31,4.31,0,0,1,20.86,1H59.25a4.31,4.31,0,0,1,4.31,4.31V55.7A4.31,4.31,0,0,1,59.25,60"/><rect class="cls-2" x="16.56" y="1" width="47" height="59" rx="4.3" ry="4.3"/><path class="cls-1" d="M59.25,1H55.56a4.15,4.15,0,0,1,4,4.28V55.72a4.15,4.15,0,0,1-4,4.28h3.69a4.31,4.31,0,0,0,4.31-4.3V5.31A4.31,4.31,0,0,0,59.25,1"/><path class="cls-2" d="M59.25,1H55.56a4.15,4.15,0,0,1,4,4.28V55.72a4.15,4.15,0,0,1-4,4.28h3.69a4.31,4.31,0,0,0,4.31-4.3V5.31A4.31,4.31,0,0,0,59.25,1Z"/><polygon class="cls-3" points="11 29 11 72 71 72 71 35 36 35 31.41 29 11 29"/><polygon class="cls-4" points="11 29 11 72 71 72 71 35 36 35 31.41 29 11 29"/><path class="cls-1" d="M40.55,40.62A12.7,12.7,0,1,1,27.86,53.31,12.69,12.69,0,0,1,40.55,40.62"/><path class="cls-2" d="M40.55,40.62A12.7,12.7,0,1,1,27.86,53.31,12.69,12.69,0,0,1,40.55,40.62Z"/><line class="cls-5" x1="3.96" y1="78.02" x2="44.66" y2="78.02"/><line class="cls-5" x1="48.66" y1="78.02" x2="69.06" y2="78.02"/><line class="cls-5" x1="72.76" y1="78.02" x2="77.16" y2="78.02"/><polygon class="cls-3" points="47.55 51.31 42.55 51.31 42.55 46.31 38.55 46.31 38.55 51.31 33.55 51.31 33.55 55.31 38.55 55.31 38.55 60.31 42.55 60.31 42.55 55.31 47.55 55.31 47.55 51.31"/><polygon class="cls-6" points="47.55 51.31 42.55 51.31 42.55 46.31 38.55 46.31 38.55 51.31 33.55 51.31 33.55 55.31 38.55 55.31 38.55 60.31 42.55 60.31 42.55 55.31 47.55 55.31 47.55 51.31"/><line class="cls-1" x1="22.5" y1="18" x2="53.5" y2="18"/><line class="cls-5" x1="22.5" y1="18" x2="53.5" y2="18"/><rect class="cls-1" x="23" y="8" width="30" height="5"/><rect class="cls-2" x="23" y="8" width="30" height="5"/><line class="cls-1" x1="22.5" y1="23" x2="53.5" y2="23"/><line class="cls-5" x1="22.5" y1="23" x2="53.5" y2="23"/><line class="cls-1" y1="16" x2="8" y2="16"/><line class="cls-5" y1="16" x2="8" y2="16"/><line class="cls-1" x1="2" y1="8" x2="8" y2="11"/><line class="cls-5" x1="2" y1="8" x2="8" y2="11"/><line class="cls-1" x1="2" y1="24" x2="8" y2="21"/><line class="cls-5" x1="2" y1="24" x2="8" y2="21"/><line class="cls-1" x1="79" y1="16" x2="71" y2="16"/><line class="cls-5" x1="79" y1="16" x2="71" y2="16"/><line class="cls-1" x1="77" y1="8" x2="71" y2="11"/><line class="cls-5" x1="77" y1="8" x2="71" y2="11"/><line class="cls-1" x1="77" y1="24" x2="71" y2="21"/><line class="cls-5" x1="77" y1="24" x2="71" y2="21"/></g></g></svg>