<svg xmlns="http://www.w3.org/2000/svg" viewBox="0 0 101.55 82.06"><defs><style>.cls-1,.cls-3,.cls-5{fill:none;stroke-width:2px;}.cls-1,.cls-3{stroke:#ccc;}.cls-1,.cls-5{stroke-miterlimit:10;}.cls-2,.cls-6{fill:#fff;}.cls-2,.cls-4{fill-rule:evenodd;}.cls-3{stroke-linecap:round;stroke-linejoin:round;}.cls-4{fill:#dbf3ff;}.cls-5{stroke:#36a9e1;}.cls-7{fill:#ccc;}.cls-8{fill:#36a9e1;}</style></defs><title>lunch</title><g id="Layer_2" data-name="Layer 2"><g id="Layer_1-2" data-name="Layer 1"><line class="cls-1" x1="14.18" y1="81.06" x2="54.88" y2="81.06"/><line class="cls-1" x1="58.88" y1="81.06" x2="79.28" y2="81.06"/><line class="cls-1" x1="82.98" y1="81.06" x2="87.38" y2="81.06"/><path class="cls-2" d="M17.19,44.25,15,41.05l-.72-.16-1.56-.37-4.2-1A3.18,3.18,0,1,0,2.32,38.1c-.24,1,.65,2.09.47,2.89s-1.45,1.3-1.68,2.31A4.09,4.09,0,0,0,1,44.48H1a1.52,1.52,0,0,0,0,.21,1.7,1.7,0,0,0,0,.22,2.62,2.62,0,0,0,.11.4c0,.07.05.14.07.2a2.86,2.86,0,0,0,.18.35l.11.18a2.48,2.48,0,0,0,.25.3l.12.14a2.54,2.54,0,0,0,.36.29l.09.07a3,3,0,0,0,.5.27l.1,0,.44.14.18,0a2.5,2.5,0,0,0,.38.06h.57l.22,0a2,2,0,0,0,.33-.08l.22-.07L5.62,47l.21-.12a2.64,2.64,0,0,0,.29-.21l.18-.16a1.84,1.84,0,0,0,.26-.29,1.39,1.39,0,0,0,.15-.19,2.6,2.6,0,0,0,.23-.4c0-.06.07-.12.1-.19a3.8,3.8,0,0,0,.24-.72l6.49,1.51h0Z"/><path class="cls-3" d="M17.19,44.25,15,41.05l-.72-.16-1.56-.37-4.2-1A3.18,3.18,0,1,0,2.32,38.1c-.24,1,.65,2.09.47,2.89s-1.45,1.3-1.68,2.31A4.09,4.09,0,0,0,1,44.48H1a1.52,1.52,0,0,0,0,.21,1.7,1.7,0,0,0,0,.22,2.62,2.62,0,0,0,.11.4c0,.07.05.14.07.2a2.86,2.86,0,0,0,.18.35l.11.18a2.48,2.48,0,0,0,.25.3l.12.14a2.54,2.54,0,0,0,.36.29l.09.07a3,3,0,0,0,.5.27l.1,0,.44.14.18,0a2.5,2.5,0,0,0,.38.06h.57l.22,0a2,2,0,0,0,.33-.08l.22-.07L5.62,47l.21-.12a2.64,2.64,0,0,0,.29-.21l.18-.16a1.84,1.84,0,0,0,.26-.29,1.39,1.39,0,0,0,.15-.19,2.6,2.6,0,0,0,.23-.4c0-.06.07-.12.1-.19a3.8,3.8,0,0,0,.24-.72l6.49,1.51h0Z"/><path class="cls-4" d="M54.22,63l39,2.89v5.7A3.44,3.44,0,0,1,89.77,75H18.67a3.44,3.44,0,0,1-3.43-3.43v-5.7Z"/><path class="cls-5" d="M54.22,63l39,2.89v5.7A3.44,3.44,0,0,1,89.77,75H18.67a3.44,3.44,0,0,1-3.43-3.43v-5.7Z"/><path class="cls-2" d="M94.88,57.35c0-.11,0-.21,0-.32h0c0-6.39-1.92-11.2-8.7-13-6.35-1.72-4.88-5.48-7.58-8.16C60.44,32.15,52,36.21,48,40.73c-1.59,4-5.55,10.7-.22,16.3l23.82,3.66,21.29-3.34Z"/><path class="cls-3" d="M94.88,57.35c0-.11,0-.21,0-.32h0c0-6.39-1.92-11.2-8.7-13-6.35-1.72-4.88-5.48-7.58-8.16C60.44,32.15,52,36.21,48,40.73c-1.59,4-5.55,10.7-.22,16.3l23.82,3.66,21.29-3.34Z"/><path class="cls-4" d="M76.79,39.72l.12-.13.18-.23.1-.14.18-.27.09-.14.18-.33a1,1,0,0,0,.08-.14L77.9,38l.06-.14c.07-.15.13-.31.19-.47s0-.08,0-.12a5.22,5.22,0,0,0,.18-.56.29.29,0,0,0,0-.1c.07-.23.14-.47.2-.72a6.19,6.19,0,0,0-1-.82,13.76,13.76,0,0,0-5.66-1.79C63.66,32.06,64.8,26.15,53.38,28a9.27,9.27,0,0,0-4.77,2.35h0a6.77,6.77,0,0,1-4.73,1.83c-5.94,0-7.84,2.13-8.86,4.15,1.08,2.61,6.5,4.86,12.94,4.4,3-2,5.33-2.09,10,.09,2.48,1.14,5.29,4.08,9.24,1.61,2.28-1.42,4.86-.81,7.06-1.31l.08,0,.25-.06.13,0,.21-.07.15-.06.19-.08.17-.08.16-.08.18-.11.15-.1a1.88,1.88,0,0,0,.18-.12l.14-.11.18-.16.13-.12.18-.19"/><path class="cls-5" d="M76.79,39.72l.12-.13.18-.23.1-.14.18-.27.09-.14.18-.33a1,1,0,0,0,.08-.14L77.9,38l.06-.14c.07-.15.13-.31.19-.47s0-.08,0-.12a5.22,5.22,0,0,0,.18-.56.29.29,0,0,0,0-.1c.07-.23.14-.47.2-.72a6.19,6.19,0,0,0-1-.82,13.76,13.76,0,0,0-5.66-1.79C63.66,32.06,64.8,26.15,53.38,28a9.27,9.27,0,0,0-4.77,2.35h0a6.77,6.77,0,0,1-4.73,1.83c-5.94,0-7.84,2.13-8.86,4.15,1.08,2.61,6.5,4.86,12.94,4.4,3-2,5.33-2.09,10,.09,2.48,1.14,5.29,4.08,9.24,1.61,2.28-1.42,4.86-.81,7.06-1.31l.08,0,.25-.06.13,0,.21-.07.15-.06.19-.08.17-.08.16-.08.18-.11.15-.1a1.88,1.88,0,0,0,.18-.12l.14-.11.18-.16.13-.12Z"/><path class="cls-2" d="M50.11,45.87v-.31A11.65,11.65,0,0,0,48,40.73a11.38,11.38,0,0,0-6.67-4.11,17.88,17.88,0,0,0-4.15-.4,23.79,23.79,0,0,0-2.48.11c-.54.06-1.11.13-1.68.23L17.76,39.08c-1.56.26-2.55,1-2.78,2l-1.21,5.19h0c-.23,1,.32,2.08,1.61,3L26.2,57l9.54,3.66,10.62-3.34h1.38a15.26,15.26,0,0,0,2.37-11.48"/><path class="cls-3" d="M50.11,45.87v-.31A11.65,11.65,0,0,0,48,40.73a11.38,11.38,0,0,0-6.67-4.11,17.88,17.88,0,0,0-4.15-.4,23.79,23.79,0,0,0-2.48.11c-.54.06-1.11.13-1.68.23L17.76,39.08c-1.56.26-2.55,1-2.78,2l-1.21,5.19h0c-.23,1,.32,2.08,1.61,3L26.2,57l9.54,3.66,10.62-3.34h1.38A15.26,15.26,0,0,0,50.11,45.87Z"/><path class="cls-4" d="M99.35,57.35H9.09a1.21,1.21,0,0,0-1.21,1.21v3.93A5.16,5.16,0,0,0,13,67.64H95.4a5.16,5.16,0,0,0,5.15-5.15V58.56a1.21,1.21,0,0,0-1.2-1.21"/><path class="cls-5" d="M99.35,57.35H9.09a1.21,1.21,0,0,0-1.21,1.21v3.93A5.16,5.16,0,0,0,13,67.64H95.4a5.16,5.16,0,0,0,5.15-5.15V58.56A1.21,1.21,0,0,0,99.35,57.35Z"/><path class="cls-6" d="M39.35,19.17a3.06,3.06,0,0,0,.53-4.27,5.9,5.9,0,0,1-1.09-5.14,6,6,0,0,1,1.84-2.61L40.8,7"/><path class="cls-3" d="M39.35,19.17a3.06,3.06,0,0,0,.53-4.27,5.9,5.9,0,0,1-1.09-5.14,6,6,0,0,1,1.84-2.61L40.8,7"/><path class="cls-6" d="M54.71,15.31A1.51,1.51,0,0,1,55,13.19a3.06,3.06,0,0,0,.53-4.27A5.89,5.89,0,0,1,54.4,3.78a6.07,6.07,0,0,1,1.84-2.62A1.36,1.36,0,0,0,56.41,1"/><path class="cls-3" d="M54.71,15.31A1.51,1.51,0,0,1,55,13.19a3.06,3.06,0,0,0,.53-4.27A5.89,5.89,0,0,1,54.4,3.78a6.07,6.07,0,0,1,1.84-2.62A1.36,1.36,0,0,0,56.41,1"/><path class="cls-6" d="M69.61,20.7a1.51,1.51,0,0,1,.24-2.11,3.06,3.06,0,0,0,.53-4.27A5.87,5.87,0,0,1,69.3,9.18a6,6,0,0,1,1.83-2.62l.18-.16"/><path class="cls-3" d="M69.61,20.7a1.51,1.51,0,0,1,.24-2.11,3.06,3.06,0,0,0,.53-4.27A5.87,5.87,0,0,1,69.3,9.18a6,6,0,0,1,1.83-2.62l.18-.16"/><path class="cls-7" d="M56.84,48.52h0a1.47,1.47,0,1,1,0-2.94h0a1.47,1.47,0,1,1,0,2.94"/><path class="cls-7" d="M67.21,50h0a1.47,1.47,0,1,1,0-2.94h0a1.47,1.47,0,1,1,0,2.94"/><path class="cls-7" d="M78.28,52.94h0a1.48,1.48,0,0,1,0-2.95h0a1.48,1.48,0,0,1,0,2.95"/><path class="cls-8" d="M63.09,38.23h0a1.48,1.48,0,0,1,0-2.95h0a1.48,1.48,0,0,1,0,2.95"/><path class="cls-8" d="M53.18,35.28h0a1.47,1.47,0,0,1,0-2.94h0a1.47,1.47,0,1,1,0,2.94"/></g></g></svg>