<svg xmlns="http://www.w3.org/2000/svg" viewBox="1814.5 -1041 86.5 69.086">
  <defs>
    <style>
      .cls-1, .cls-6, .cls-7, .cls-9 {
        fill: none;
      }

      .cls-1, .cls-2 {
        stroke: #ccc;
      }

      .cls-1, .cls-3, .cls-5 {
        stroke-miterlimit: 10;
      }

      .cls-1, .cls-2, .cls-3, .cls-5, .cls-6, .cls-7 {
        stroke-width: 2px;
      }

      .cls-2, .cls-3 {
        fill: #fff;
      }

      .cls-3, .cls-5, .cls-7 {
        stroke: #36a9e1;
      }

      .cls-4 {
        fill: #36a9e1;
      }

      .cls-5 {
        fill: #dbf3ff;
      }

      .cls-6 {
        stroke: #d9d9d9;
      }

      .cls-8 {
        stroke: none;
      }
    </style>
  </defs>
  <g id="Group_2373" data-name="Group 2373" transform="translate(1428 -4087)">
    <g id="Group_2366" data-name="Group 2366">
      <line id="Line_729" data-name="Line 729" class="cls-1" x2="86.5" transform="translate(386.5 3114.086)"/>
      <g id="Group_2364" data-name="Group 2364" transform="translate(-4.655)">
        <g id="Rectangle_1926" data-name="Rectangle 1926" class="cls-2" transform="translate(411.144 3071.465)">
          <rect class="cls-8" width="41.722" height="31.841" rx="3"/>
          <rect class="cls-9" x="1" y="1" width="39.722" height="29.841" rx="2"/>
        </g>
        <circle id="Ellipse_754" data-name="Ellipse 754" class="cls-3" cx="10.272" cy="10.272" r="10.272" transform="translate(424.441 3077.181)"/>
        <path id="Path_3701" data-name="Path 3701" class="cls-4" d="M26.364,17.276a3.842,3.842,0,0,0-1.787-.5c-.893,0-1.291.5-1.291.993,0,.6.6.894,1.588,1.489,1.489.695,2.184,1.39,2.184,2.681a2.5,2.5,0,0,1-2.283,2.581v1.588H23.485V24.623a4,4,0,0,1-2.085-.6l.4-1.39a4.3,4.3,0,0,0,2.085.6c.893,0,1.39-.5,1.39-1.092,0-.695-.4-1.092-1.588-1.588-1.191-.6-2.085-1.291-2.085-2.581a2.46,2.46,0,0,1,2.184-2.482V14h1.291v1.39a2.948,2.948,0,0,1,1.787.5Z" transform="translate(410.559 3067.246)"/>
        <path id="Rectangle_1930" data-name="Rectangle 1930" class="cls-5" d="M0,0H4.686a3,3,0,0,1,3,3V26.645a3,3,0,0,1-3,3H0a0,0,0,0,1,0,0V0A0,0,0,0,1,0,0Z" transform="translate(452.549 3072.563)"/>
        <path id="Rectangle_1932" data-name="Rectangle 1932" class="cls-5" d="M3,0H7.686a0,0,0,0,1,0,0V29.645a0,0,0,0,1,0,0H3a3,3,0,0,1-3-3V3A3,3,0,0,1,3,0Z" transform="translate(407.655 3072.563)"/>
      </g>
      <g id="Group_2365" data-name="Group 2365" transform="translate(-5)">
        <g id="Group_2351" data-name="Group 2351" transform="translate(414 3053.787)">
          <line id="Line_84" data-name="Line 84" class="cls-6" x2="12.045" transform="translate(31.834 8.517) rotate(-45)"/>
          <line id="Line_85" data-name="Line 85" class="cls-6" x2="12.045" transform="translate(0 0) rotate(45)"/>
        </g>
        <line id="Line_739" data-name="Line 739" class="cls-7" x2="12.045" transform="translate(434.248 3046) rotate(90)"/>
      </g>
    </g>
  </g>
</svg>
