<svg xmlns="http://www.w3.org/2000/svg" viewBox="0 0 73.2 80.76"><defs><style>.cls-1,.cls-6{fill:#fff;}.cls-1,.cls-4{fill-rule:evenodd;}.cls-2,.cls-3,.cls-5{fill:none;stroke-width:2px;}.cls-2,.cls-3{stroke:#ccc;}.cls-2,.cls-5{stroke-miterlimit:10;}.cls-3{stroke-linecap:round;stroke-linejoin:round;}.cls-4{fill:#dbf3ff;}.cls-5{stroke:#36a9e1;}.cls-7{fill:#36a9e1;}</style></defs><title>prize</title><g id="Layer_2" data-name="Layer 2"><g id="Layer_1-2" data-name="Layer 1"><path class="cls-1" d="M33.93,3.22c-4.08-6-11.77,1.56-7.79,6.3H38.21Z"/><path class="cls-2" d="M33.93,3.22c-4.08-6-11.77,1.56-7.79,6.3H38.21Z"/><path class="cls-1" d="M42.49,3.22l-4.28,6.3H50.28c4-4.74-3.7-12.31-7.79-6.3"/><path class="cls-2" d="M42.49,3.22l-4.28,6.3H50.28C54.26,4.78,46.58-2.79,42.49,3.22Z"/><line class="cls-2" y1="79.76" x2="40.7" y2="79.76"/><line class="cls-2" x1="44.7" y1="79.76" x2="65.1" y2="79.76"/><line class="cls-2" x1="68.8" y1="79.76" x2="73.2" y2="79.76"/><path class="cls-1" d="M21.4,18V40.52A3.52,3.52,0,0,0,24.91,44H51.54a3.52,3.52,0,0,0,3.51-3.51V18Z"/><path class="cls-2" d="M21.4,18V40.52A3.52,3.52,0,0,0,24.91,44H51.54a3.52,3.52,0,0,0,3.51-3.51V18Z"/><path class="cls-1" d="M14.18,54.57V66.89a25.73,25.73,0,0,1,9.11,1.25l8.2,2.4c2.84.77,4.77,1.5,6.72,1.51h0A10.22,10.22,0,0,0,44,69.94l16.91-12a3.89,3.89,0,0,0,1.23-5.22,4,4,0,0,0-5.22-1.24L42.51,58.56a3.94,3.94,0,0,0-2.67-4.87L34.15,52c-4.76-1.41-9.31-1.8-13.74.75-1.59.91-2.32,1.82-5.14,1.82Z"/><path class="cls-3" d="M14.18,54.57V66.89a25.73,25.73,0,0,1,9.11,1.25l8.2,2.4c2.84.77,4.77,1.5,6.72,1.51h0A10.22,10.22,0,0,0,44,69.94l16.91-12a3.89,3.89,0,0,0,1.23-5.22,4,4,0,0,0-5.22-1.24L42.51,58.56a3.94,3.94,0,0,0-2.67-4.87L34.15,52c-4.76-1.41-9.31-1.8-13.74.75-1.59.91-2.32,1.82-5.14,1.82Z"/><path class="cls-4" d="M3.49,54.53V68.05A2.42,2.42,0,0,0,5.9,70.46h5.87a2.41,2.41,0,0,0,2.41-2.41V54.53a2.41,2.41,0,0,0-2.41-2.41H5.91a2.43,2.43,0,0,0-2.42,2.41"/><path class="cls-5" d="M3.49,54.53V68.05A2.42,2.42,0,0,0,5.9,70.46h5.87a2.41,2.41,0,0,0,2.41-2.41V54.53a2.41,2.41,0,0,0-2.41-2.41H5.91A2.43,2.43,0,0,0,3.49,54.53Z"/><line class="cls-6" x1="5.72" y1="31.69" x2="13.72" y2="31.69"/><line class="cls-2" x1="5.72" y1="31.69" x2="13.72" y2="31.69"/><line class="cls-6" x1="7.72" y1="23.69" x2="13.72" y2="26.69"/><line class="cls-2" x1="7.72" y1="23.69" x2="13.72" y2="26.69"/><line class="cls-6" x1="7.72" y1="39.69" x2="13.72" y2="36.69"/><line class="cls-2" x1="7.72" y1="39.69" x2="13.72" y2="36.69"/><line class="cls-6" x1="70.72" y1="31.69" x2="62.72" y2="31.69"/><line class="cls-2" x1="70.72" y1="31.69" x2="62.72" y2="31.69"/><line class="cls-6" x1="68.72" y1="23.69" x2="62.72" y2="26.69"/><line class="cls-2" x1="68.72" y1="23.69" x2="62.72" y2="26.69"/><line class="cls-6" x1="68.72" y1="39.69" x2="62.72" y2="36.69"/><line class="cls-2" x1="68.72" y1="39.69" x2="62.72" y2="36.69"/><path class="cls-4" d="M17.5,12.75V14.8A3.25,3.25,0,0,0,20.74,18H55.56A3.25,3.25,0,0,0,58.8,14.8V12.75a3.24,3.24,0,0,0-3.24-3.23H20.74a3.24,3.24,0,0,0-3.24,3.23"/><path class="cls-5" d="M17.5,12.75V14.8A3.25,3.25,0,0,0,20.74,18H55.56A3.25,3.25,0,0,0,58.8,14.8V12.75a3.24,3.24,0,0,0-3.24-3.23H20.74A3.24,3.24,0,0,0,17.5,12.75Z"/><path class="cls-1" d="M30.69,57.69l7.93,2.17a3,3,0,0,0,3.73-2.27l.18-.85"/><path class="cls-3" d="M30.69,57.69l7.93,2.17a3,3,0,0,0,3.73-2.27l.18-.85"/><path class="cls-7" d="M29.22,26.54a1.43,1.43,0,0,1-.29,0l-.28-.08-.26-.14a1.57,1.57,0,0,1-.42-.42,2.15,2.15,0,0,1-.14-.26,2.29,2.29,0,0,1-.08-.28,1.43,1.43,0,0,1,0-.29,1.53,1.53,0,0,1,0-.3c0-.09.05-.19.08-.28A2.15,2.15,0,0,1,28,24.2a2.11,2.11,0,0,1,.19-.23,1.51,1.51,0,0,1,2.13,0,2.11,2.11,0,0,1,.19.23,1.26,1.26,0,0,1,.13.26,1.41,1.41,0,0,1,.12.58,1.43,1.43,0,0,1,0,.29,1.31,1.31,0,0,1-.09.28,1.26,1.26,0,0,1-.13.26,2.11,2.11,0,0,1-.19.23,1.52,1.52,0,0,1-1.07.44"/><path class="cls-7" d="M38.22,26.54a1.43,1.43,0,0,1-.29,0l-.28-.08-.26-.14a1.57,1.57,0,0,1-.42-.42,2.15,2.15,0,0,1-.14-.26,2.29,2.29,0,0,1-.08-.28,1.43,1.43,0,0,1,0-.29,1.53,1.53,0,0,1,0-.3c0-.09,0-.19.08-.28A2.15,2.15,0,0,1,37,24.2a2.11,2.11,0,0,1,.19-.23,1.51,1.51,0,0,1,2.13,0,2.11,2.11,0,0,1,.19.23,1.26,1.26,0,0,1,.13.26,1.41,1.41,0,0,1,.12.58,1.43,1.43,0,0,1,0,.29,1.31,1.31,0,0,1-.09.28,1.26,1.26,0,0,1-.13.26,2.11,2.11,0,0,1-.19.23,1.52,1.52,0,0,1-1.07.44"/><path class="cls-7" d="M47.22,26.54a1.43,1.43,0,0,1-.29,0l-.28-.08-.26-.14a1.57,1.57,0,0,1-.42-.42,2.15,2.15,0,0,1-.14-.26,2.29,2.29,0,0,1-.08-.28,1.43,1.43,0,0,1,0-.29,1.53,1.53,0,0,1,0-.3c0-.09,0-.19.08-.28A2.15,2.15,0,0,1,46,24.2a2.11,2.11,0,0,1,.19-.23,1.51,1.51,0,0,1,2.13,0,2.11,2.11,0,0,1,.19.23,1.26,1.26,0,0,1,.13.26,1.41,1.41,0,0,1,.12.58,1.43,1.43,0,0,1,0,.29,1.31,1.31,0,0,1-.09.28,1.26,1.26,0,0,1-.13.26,2.11,2.11,0,0,1-.19.23,1.52,1.52,0,0,1-1.07.44"/><path class="cls-7" d="M42.85,32.72a1.43,1.43,0,0,1-.29,0l-.28-.08L42,32.47a1.57,1.57,0,0,1-.42-.42,2.15,2.15,0,0,1-.14-.26,2.29,2.29,0,0,1-.08-.28,1.53,1.53,0,0,1,0-.3,1.5,1.5,0,0,1,0-.29,2.29,2.29,0,0,1,.08-.28,2.15,2.15,0,0,1,.14-.26,2.11,2.11,0,0,1,.19-.23,1.51,1.51,0,0,1,2.13,0,2.11,2.11,0,0,1,.19.23,1.26,1.26,0,0,1,.13.26,1.31,1.31,0,0,1,.09.28,1.5,1.5,0,0,1,0,.29,1.53,1.53,0,0,1,0,.3,1.31,1.31,0,0,1-.09.28,1.26,1.26,0,0,1-.13.26,2.11,2.11,0,0,1-.19.23,1.52,1.52,0,0,1-1.07.44"/><path class="cls-7" d="M33.85,32.72a1.43,1.43,0,0,1-.29,0l-.28-.08L33,32.47a1.57,1.57,0,0,1-.42-.42,2.15,2.15,0,0,1-.14-.26,2.29,2.29,0,0,1-.08-.28,1.53,1.53,0,0,1,0-.3,1.5,1.5,0,0,1,0-.29,2.29,2.29,0,0,1,.08-.28,2.15,2.15,0,0,1,.14-.26,2.11,2.11,0,0,1,.19-.23,1.51,1.51,0,0,1,2.13,0,2.11,2.11,0,0,1,.19.23,1.26,1.26,0,0,1,.13.26,1.31,1.31,0,0,1,.09.28,1.5,1.5,0,0,1,0,.29,1.53,1.53,0,0,1,0,.3,1.31,1.31,0,0,1-.09.28,1.26,1.26,0,0,1-.13.26,2.11,2.11,0,0,1-.19.23,1.52,1.52,0,0,1-1.07.44"/><path class="cls-7" d="M29.22,38.54a1.43,1.43,0,0,1-.29,0l-.28-.08-.26-.14a1.57,1.57,0,0,1-.42-.42,2.15,2.15,0,0,1-.14-.26,2.29,2.29,0,0,1-.08-.28,1.43,1.43,0,0,1,0-.29,1.53,1.53,0,0,1,0-.3c0-.09.05-.19.08-.28A2.15,2.15,0,0,1,28,36.2a2.11,2.11,0,0,1,.19-.23,1.51,1.51,0,0,1,2.13,0,2.11,2.11,0,0,1,.19.23,1.26,1.26,0,0,1,.13.26,1.41,1.41,0,0,1,.12.58,1.43,1.43,0,0,1,0,.29,1.31,1.31,0,0,1-.09.28,1.26,1.26,0,0,1-.13.26,2.11,2.11,0,0,1-.19.23,1.52,1.52,0,0,1-1.07.44"/><path class="cls-7" d="M38.22,38.54a1.43,1.43,0,0,1-.29,0l-.28-.08-.26-.14a1.57,1.57,0,0,1-.42-.42,2.15,2.15,0,0,1-.14-.26,2.29,2.29,0,0,1-.08-.28,1.43,1.43,0,0,1,0-.29,1.53,1.53,0,0,1,0-.3c0-.09,0-.19.08-.28A2.15,2.15,0,0,1,37,36.2a2.11,2.11,0,0,1,.19-.23,1.51,1.51,0,0,1,2.13,0,2.11,2.11,0,0,1,.19.23,1.26,1.26,0,0,1,.13.26,1.41,1.41,0,0,1,.12.58,1.43,1.43,0,0,1,0,.29,1.31,1.31,0,0,1-.09.28,1.26,1.26,0,0,1-.13.26,2.11,2.11,0,0,1-.19.23,1.52,1.52,0,0,1-1.07.44"/><path class="cls-7" d="M47.22,38.54a1.43,1.43,0,0,1-.29,0l-.28-.08-.26-.14a1.57,1.57,0,0,1-.42-.42,2.15,2.15,0,0,1-.14-.26,2.29,2.29,0,0,1-.08-.28,1.43,1.43,0,0,1,0-.29,1.53,1.53,0,0,1,0-.3c0-.09,0-.19.08-.28A2.15,2.15,0,0,1,46,36.2a2.11,2.11,0,0,1,.19-.23,1.51,1.51,0,0,1,2.13,0,2.11,2.11,0,0,1,.19.23,1.26,1.26,0,0,1,.13.26,1.41,1.41,0,0,1,.12.58,1.43,1.43,0,0,1,0,.29,1.31,1.31,0,0,1-.09.28,1.26,1.26,0,0,1-.13.26,2.11,2.11,0,0,1-.19.23,1.52,1.52,0,0,1-1.07.44"/></g></g></svg>