<svg xmlns="http://www.w3.org/2000/svg" viewBox="0 0 73.2 85.33"><defs><style>.cls-1{fill:#fff;}.cls-2,.cls-3,.cls-5{fill:none;stroke-width:2px;}.cls-2,.cls-5{stroke:#ccc;}.cls-2,.cls-3{stroke-miterlimit:10;}.cls-3{stroke:#36a9e1;}.cls-4{fill:#dbf3ff;}.cls-5{stroke-linecap:round;stroke-linejoin:round;}</style></defs><title>remote-working</title><g id="Layer_2" data-name="Layer 2"><g id="Layer_1-2" data-name="Layer 1"><rect class="cls-1" x="29.97" y="31.59" width="13.42" height="8.05"/><rect class="cls-2" x="29.97" y="31.59" width="13.42" height="8.05"/><path class="cls-1" d="M11.62,69.14v-18c0-6.78,4.3-12.26,9.71-12.26H51.87c5.41,0,9.71,5.48,9.71,12.26V69.27"/><path class="cls-3" d="M11.62,69.14v-18c0-6.78,4.3-12.26,9.71-12.26H51.87c5.41,0,9.71,5.48,9.71,12.26V69.27"/><line class="cls-3" x1="36.64" y1="56.66" x2="36.64" y2="39.03"/><path class="cls-1" d="M50,1V12.35l-1.46,3.52v5.91a11.88,11.88,0,0,1-23.76,0V15.87L23.3,12.35V9.82A8.87,8.87,0,0,1,32.12,1Z"/><path class="cls-2" d="M50,1V12.35l-1.46,3.52v5.91a11.88,11.88,0,0,1-23.76,0V15.87L23.3,12.35V9.82A8.87,8.87,0,0,1,32.12,1Z"/><path class="cls-1" d="M28.44,15V11.12s10.19-2,16.48,4.37"/><path class="cls-2" d="M28.44,15V11.12s10.19-2,16.48,4.37"/><polygon class="cls-4" points="43.23 36.34 45.53 39.02 40.78 45.08 36.64 39.02 43.23 36.34"/><polygon class="cls-3" points="43.23 36.34 45.53 39.02 40.78 45.08 36.64 39.02 43.23 36.34"/><polygon class="cls-4" points="30.05 36.34 27.75 39.02 32.58 45.08 36.64 39.02 30.05 36.34"/><polygon class="cls-3" points="30.05 36.34 27.75 39.02 32.58 45.08 36.64 39.02 30.05 36.34"/><line class="cls-2" y1="84.33" x2="40.7" y2="84.33"/><line class="cls-2" x1="44.7" y1="84.33" x2="65.1" y2="84.33"/><line class="cls-2" x1="68.8" y1="84.33" x2="73.2" y2="84.33"/><rect class="cls-1" x="18.47" y="74.43" width="36.25" height="4.83"/><rect class="cls-5" x="18.47" y="74.43" width="36.25" height="4.83"/><path class="cls-1" d="M54.72,74.43H18.47L16.32,52.92a2.42,2.42,0,0,1,2.41-2.65H54.47a2.42,2.42,0,0,1,2.41,2.65Z"/><path class="cls-5" d="M54.72,74.43H18.47L16.32,52.92a2.42,2.42,0,0,1,2.41-2.65H54.47a2.42,2.42,0,0,1,2.41,2.65Z"/><path class="cls-4" d="M39.82,62.35a3.22,3.22,0,1,1-3.22-3.22,3.22,3.22,0,0,1,3.22,3.22"/><path class="cls-3" d="M39.82,62.35a3.22,3.22,0,1,1-3.22-3.22A3.22,3.22,0,0,1,39.82,62.35Z"/></g></g></svg>