<svg xmlns="http://www.w3.org/2000/svg" viewBox="0 0 191.15 40.23"><defs><style>.cls-1{fill:#36a9e1;}</style></defs><title>sabaidea-logo</title><g id="Layer_2" data-name="Layer 2"><g id="Layer_1-2" data-name="Layer 1"><path class="cls-1" d="M57.67,28.12a2.58,2.58,0,0,1-2.8-2.75,14.38,14.38,0,0,1,.26-2.75l.46-2c.88-4.33,3.46-7.07,6.11-7.07,2.24,0,3.26,1.88,3.26,4.28,0,4.42-3.06,10.34-7.28,10.34ZM65.1,7.65a10,10,0,0,0-7.69,3.53h-.11l2.34-11H52.27L47.85,22.16a22.52,22.52,0,0,0-.56,4.53c0,4.42,3,7,8.83,7,11.2,0,16.5-9.27,16.5-17.37,0-4.43-2.33-8.66-7.53-8.66"/><path class="cls-1" d="M90.81,18.41l-.46,2c-.88,4.33-3.46,7.07-6.11,7.07C82,27.52,81,25.64,81,23.24,81,18.82,84,13,88.26,13a2.58,2.58,0,0,1,2.8,2.75,14.42,14.42,0,0,1-.26,2.7Zm-1-11.05c-11.2,0-16.5,9.27-16.5,17.37,0,4.42,2.34,8.66,7.54,8.66a10,10,0,0,0,7.68-3.53h.11l-.88,3.41H95.1l3-14.41a22.41,22.41,0,0,0,.57-4.5c0-4.42-2.94-7-8.83-7"/><path class="cls-1" d="M39.84,18.41l-.46,2c-.88,4.33-3.46,7.07-6.11,7.07C31,27.52,30,25.64,30,23.24,30,18.82,33.06,13,37.29,13a2.58,2.58,0,0,1,2.8,2.75,14.41,14.41,0,0,1-.25,2.7m-1-11.05c-11.2,0-16.5,9.27-16.5,17.37,0,4.42,2.34,8.66,7.54,8.66a10,10,0,0,0,7.68-3.53h.13l-.88,3.41h7.39l3-14.41a22.61,22.61,0,0,0,.56-4.53c0-4.38-3-7-8.87-7"/><path class="cls-1" d="M14.71,14c-2.91-1.55-5-2.71-5-4.59S11.48,6,14.91,6a14.22,14.22,0,0,1,6.41,1.45l2.29-5.8A16.9,16.9,0,0,0,15.51,0C8,0,2,4,2,10.6c0,4.26,3.46,6.78,7.13,8.66,3.15,1.55,4.64,2.76,4.64,4.59,0,2.56-2.6,3.82-5.45,3.82a16.78,16.78,0,0,1-8.1-2.08L0,26v6.4a22.07,22.07,0,0,0,7.57,1.19c7.64,0,14-3.73,14-11,0-3.87-2.64-6.52-6.82-8.61"/><path class="cls-1" d="M113.25,5.32a4.77,4.77,0,0,1-1.45,3.5,4.95,4.95,0,0,1-7,0,4.76,4.76,0,0,1-1.45-3.5,4.76,4.76,0,0,1,1.45-3.5,4.95,4.95,0,0,1,7,0,4.77,4.77,0,0,1,1.45,3.5"/><path d="M155.93,12.49c1.68,0,2.7.88,2.7,2.14,0,2.23-2.85,3-8.54,3,.5-2.35,2.43-5.14,5.84-5.14Zm9.56,2.08c0-4.63-3.61-7.42-8.64-7.42-9,0-14.49,7.88-14.49,15.46,0,6.46,3.66,10.48,10.78,10.48a21.35,21.35,0,0,0,9.24-2l-.5-5.3a15.66,15.66,0,0,1-7,1.57,5.73,5.73,0,0,1-4.78-1.93,4.9,4.9,0,0,1-.76-2.54c10,.26,16.12-2,16.12-8.36"/><path d="M133.65,20.35l-.33,2a16,16,0,0,1-.8,2.75,4.1,4.1,0,0,1-3.85,2.75c-4.22,0-5-5.9-3.33-10.28.88-2.39,2.65-4.27,4.89-4.27,2.66,0,4.21,2.69,3.43,7ZM137.41,0,135.53,11h-.11c-1-2.19-3.28-3.53-6.33-3.53-5.19,0-9.14,4.22-10.84,8.64-3.1,8.08-1.37,17.34,9.81,17.34,5.9,0,11.42-3.53,12.7-11.48l4-21.9Z"/><path d="M183,18.61l-.46,2c-.88,4.32-3.45,7-6.1,7-2.23,0-3.25-1.88-3.25-4.27,0-4.42,3-10.27,7.27-10.27a2.58,2.58,0,0,1,2.8,2.75,14.64,14.64,0,0,1-.26,2.75m-1-11c-11.18,0-16.48,9.26-16.48,17.34,0,4.42,2.34,8.64,7.53,8.64A10,10,0,0,0,180.66,30h.12l-.88,3.4h7.38l3-14.38a22.44,22.44,0,0,0,.56-4.52c0-4.4-2.93-6.94-8.85-6.94"/><polygon points="186.42 4.42 186.83 4.42 186.83 1.72 187.84 1.72 187.84 1.36 185.41 1.36 185.41 1.72 186.42 1.72 186.42 4.42"/><polygon points="190.62 1.36 189.88 3.49 189.72 3.98 189.57 3.53 188.85 1.36 188.24 1.36 188.24 4.42 188.63 4.42 188.63 1.77 189.51 4.42 189.88 4.42 190.76 1.86 190.76 4.42 191.15 4.42 191.15 1.36 190.62 1.36"/><path d="M105.12,11.7a1.43,1.43,0,0,0-2.61.46L98.63,31.88a1.4,1.4,0,0,0,.88,1.6h0a1.39,1.39,0,0,0,1.16-.15l2.79-1.77a1.41,1.41,0,0,1,2.11.79l1.32,6a2.38,2.38,0,1,0,4.65-1c-.29-1.31-1.15-5.1-1.31-5.93A1.42,1.42,0,0,1,112,29.83l3.22.42a1.41,1.41,0,0,0,1.49-.72v-.48a1.41,1.41,0,0,0-.28-.95Z"/></g></g></svg>