<?xml version="1.0" encoding="utf-8"?>
<!-- Generator: Adobe Illustrator 21.0.0, SVG Export Plug-In . SVG Version: 6.00 Build 0)  -->
<svg version="1.1" id="Layer_1" xmlns="http://www.w3.org/2000/svg" xmlns:xlink="http://www.w3.org/1999/xlink" x="0px" y="0px"
	 viewBox="0 0 99.743 94.09" enable-background="new 0 0 99.743 94.09" xml:space="preserve">
<path id="Path_2913" fill="#13A538" d="M59.424,91.214c-0.824,0.038-1.516,0.63-1.681,1.438c-0.14,0.64,0.266,1.272,0.906,1.411
	c0.096,0.021,0.195,0.03,0.294,0.026c0.824-0.038,1.516-0.63,1.681-1.438c0.14-0.64-0.266-1.272-0.906-1.411
	C59.621,91.219,59.522,91.21,59.424,91.214"/>
<path id="Path_2914" fill="#13A538" d="M96.439,84.446c-0.717,1.685-2.449,2.705-4.27,2.517H89.76
	c0.025-0.509,0.113-1.013,0.261-1.5c0.575-2,3.236-3.82,5.339-3.4c0.888,0.216,1.432,1.111,1.216,1.998
	c-0.032,0.133-0.081,0.262-0.146,0.384 M96.223,79.304c-4.209-0.732-8.214,2.086-8.946,6.295c-0.016,0.092-0.03,0.184-0.043,0.276
	c-0.072,0.36-0.117,0.7-0.162,1.043c-3.461-0.413-2.256-3.272-2.265-3.514h-3.4c0.063,0.234-0.9,3.542-4.036,3.542h-9.489
	c-0.789,0.005-1.433-0.631-1.438-1.42c0,0,0,0,0,0c-0.027-0.422,0.962-5.1,0.962-5.1h-3.425l-0.719,3.721
	c-0.584,1.474-1.654,2.768-2.984,2.768c-0.71,0.007-1.291-0.562-1.298-1.272c0-0.037,0.001-0.075,0.004-0.112
	c-0.002-0.425,0.038-0.849,0.117-1.267l2.013-10.128h-3.443l-1.951,9.95c-0.157,0.684-0.245,1.383-0.261,2.085
	c0,2.04,1.2,3.353,3.928,3.353c1.512-0.016,2.989-0.458,4.261-1.276c0.899,0.947,2.19,1.419,3.488,1.276h11
	c1.759-0.051,3.383-0.957,4.35-2.427c0,0,0.5,2.445,6.2,2.445h2.13c6.472,0.072,8.809-3.6,8.917-5.914
	c0.203-2.163-1.379-4.085-3.541-4.3"/>
<path id="Path_2915" fill="#12100B" d="M48.053,80.428c-1.915,0-4.764,1.393-5.393,3.676c-0.9,3.164,1.852,5.321,6.067,5.393
	c-0.6,1.2-1.681,1.9-4.746,1.9h-0.162l-0.764,2.6h1.267c5.016,0,6.957-2.867,7.64-4.494l0,0v-0.045
	c0.081-0.207,0.144-0.386,0.2-0.539C52.809,86.9,54.48,80.428,48.053,80.428z M49.266,86.945h-0.791c-1.483,0-2.7-0.333-3.038-1.169
	c-0.494-1.088,0.18-2.49,1.942-2.49c2.876,0.009,1.879,3.676,1.879,3.676L49.266,86.945z"/>
<path id="Path_2916" fill="#12100B" d="M27.928,74.81c0.824-0.038,1.516-0.63,1.681-1.438c0.14-0.64-0.266-1.272-0.906-1.411
	c-0.096-0.021-0.195-0.03-0.294-0.027c-0.824,0.038-1.516,0.63-1.681,1.438c-0.14,0.64,0.266,1.272,0.906,1.411
	C27.73,74.804,27.829,74.813,27.928,74.81"/>
<path id="Path_2917" fill="#12100B" d="M20.998,80.428H17.34l-0.845,4.422c0,0-1.07,6.517-7.047,6.517H5.736
	c-2.013,0-1.69-1.564-1.708-2.193c1.906-9.753,1.321-6.759,1.726-8.746H2.015L0.047,90.567c-0.28,1.584,0.777,3.094,2.361,3.374
	c0.253,0.045,0.511,0.056,0.767,0.033h7.469c8.09,0,9.5-9.132,9.5-9.132L20.998,80.428z"/>
<path id="Path_2918" fill="#12100B" d="M10.256,83.421c0.824-0.038,1.516-0.63,1.681-1.438c0.139-0.641-0.268-1.273-0.908-1.412
	c-0.096-0.021-0.194-0.03-0.292-0.026c-0.824,0.038-1.516,0.63-1.681,1.438c-0.14,0.64,0.266,1.272,0.906,1.411
	C10.058,83.415,10.157,83.424,10.256,83.421"/>
<path id="Path_2919" fill="#13A538" d="M84.799,83.484c0.279-1.42,0.62-3.029,0.62-3.029h-3.434l-0.584,3.029H84.799z"/>
<path id="Path_2920" fill="#12100B" d="M37.622,91.214H29.87c-0.824,0.038-1.516,0.63-1.681,1.438
	c-0.143,0.635,0.256,1.265,0.891,1.408c0.041,0.009,0.083,0.016,0.125,0.021h4.944C35.849,94.096,37.314,92.886,37.622,91.214z"/>
<path id="Path_2921" fill="#12100B" d="M32.414,75.817h-7.739c-0.824,0.038-1.516,0.63-1.681,1.438
	c-0.143,0.635,0.256,1.265,0.891,1.408c0.041,0.009,0.083,0.016,0.125,0.021h4.953C30.655,78.689,32.109,77.481,32.414,75.817
	L32.414,75.817z"/>
<path id="Path_2922" fill="#12100B" d="M32.414,86.972h-0.962c-4.288,0-3.488-3.407-3.488-3.407s0.476-2.355,0.611-3.119h-3.092
	c0,0-1.043,5.7-1.456,7.667c-0.09,0.474-0.238,0.936-0.44,1.375c-0.6,1.2-1.726,1.9-4.782,1.9h-0.162l-0.719,2.6h1.267
	c7.191,0,7.955-6.2,7.955-6.2c0.831,1.156,2.177,1.829,3.6,1.8h1.528L32.414,86.972z"/>
<path id="Path_2923" fill="#12100B" d="M37.941,80.482l-0.575,2.975c-0.145,0.796-0.502,1.538-1.034,2.148
	c-0.76,0.871-1.855,1.377-3.011,1.393h-2.9l0.243,2.544h3.484c5.645,0,6.6-6.022,6.6-6.022c0.279-1.42,0.62-3.029,0.62-3.029
	L37.941,80.482z"/>
<g id="Group_33" transform="translate(276 1428.957)">
	
		<linearGradient id="Path_2924_1_" gradientUnits="userSpaceOnUse" x1="-871.964" y1="-1176.488" x2="-871.964" y2="-1177.488" gradientTransform="matrix(57.058 0 0 -46.936 49541.5156 -56648.543)">
		<stop  offset="0" style="stop-color:#057836"/>
		<stop  offset="1" style="stop-color:#DDDC00"/>
	</linearGradient>
	<path id="Path_2924" fill="url(#Path_2924_1_)" d="M-200.306-1428.933c-1.561,0.095-2.995,0.892-3.9,2.168l-10.594,16.06
		l-10.632,16.041c-2.6,3.318-4.072,7.54-14.1,7.54l0,0c4.3,0.207,12.912,4.675,17.888,5.127h1.772
		c9.086-0.641,14.213-9.708,14.213-9.708l22.959-34.853c0.139-0.309,0.216-0.642,0.226-0.98l0,0c0-0.66-0.377-1.376-1.979-1.376
		L-200.306-1428.933z"/>
	
		<linearGradient id="Path_2925_1_" gradientUnits="userSpaceOnUse" x1="-1017.5889" y1="-1176.4138" x2="-1017.5889" y2="-1177.4138" gradientTransform="matrix(28.708 0 0 -46.9815 28978.0273 -56698.6523)">
		<stop  offset="0" style="stop-color:#DDDC00"/>
		<stop  offset="1" style="stop-color:#057836"/>
	</linearGradient>
	<path id="Path_2925" fill="url(#Path_2925_1_)" d="M-246.977-1428.933c-1.184-0.083-2.211,0.809-2.295,1.993
		c-0.004,0.052-0.005,0.104-0.005,0.156v35.1c0,0,0,9.067,9.236,9.708h19.472c-4.523-1.067-7.75-5.061-7.841-9.708v-34.987
		c0.065-1.196-0.851-2.218-2.046-2.283c-0.091-0.005-0.182-0.004-0.273,0.002L-246.977-1428.933z"/>
</g>
</svg>
