<?xml version="1.0" encoding="utf-8"?>
<!-- Generator: Adobe Illustrator 21.0.0, SVG Export Plug-In . SVG Version: 6.00 Build 0)  -->
<svg version="1.1" id="Layer_1" xmlns="http://www.w3.org/2000/svg" xmlns:xlink="http://www.w3.org/1999/xlink" x="0px" y="0px"
	 viewBox="0 0 180.8 32.2" style="enable-background:new 0 0 180.8 32.2;" xml:space="preserve">
<style type="text/css">
	.st0{fill:#13A538;}
	.st1{fill:#12100B;}
	.st2{fill:url(#SVGID_1_);enable-background:new    ;}
	.st3{fill:url(#SVGID_2_);}
</style>
<title>logo-sabavision-horizontal</title>
<path class="st0" d="M68.1,24.9c-0.9,0-1.7,0.7-1.9,1.6c-0.2,0.7,0.3,1.5,1,1.6c0.1,0,0.2,0,0.3,0c0.9,0,1.7-0.7,1.9-1.6
	c0.2-0.7-0.3-1.5-1-1.6C68.3,24.9,68.2,24.9,68.1,24.9"/>
<path class="st0" d="M110.2,11.3c-4.1-0.8-9.2,1.6-10.3,7.5c-0.1,0.4-0.1,0.8-0.2,1.2c-4-0.5-2.6-3.7-2.6-4h-3.9
	c0.1,0.3-1,4.1-4.6,4.1H77.8c-0.9,0-1.6-0.7-1.6-1.6c0,0,0,0,0,0c0-0.5,1.1-5.8,1.1-5.8h-3.9l-0.8,4.3C71.8,18.5,70.6,20,69,20
	c-0.8,0-1.5-0.6-1.5-1.5c0,0,0-0.1,0-0.1c0-0.5,0-1,0.1-1.5L70,5.3h-3.9l-2.2,11.4c-0.2,0.8-0.3,1.6-0.3,2.4c0,2.3,1.4,3.8,4.5,3.8
	c1.7,0,3.4-0.5,4.9-1.5c0.7,0.9,2.1,1.5,4,1.5h12.6c2-0.1,3.9-1.1,5-2.8c0,0,0.6,2.8,7.1,2.8h2.4c7.4,0.1,10.1-4.1,10.2-6.8
	C114.4,13.8,113.1,11.9,110.2,11.3 M110.5,17.2c-0.8,1.9-2.5,2.9-4.9,2.9h-2.8c0-0.6,0.1-1.2,0.3-1.7c0.7-2.3,3.7-4.4,6.1-3.9
	c1,0.2,1.6,1.3,1.4,2.3C110.6,16.9,110.5,17,110.5,17.2"/>
<path class="st1" d="M56.4,20h-0.9c-1.7,0-3.1-0.4-3.5-1.3c-0.6-1.2,0.2-2.9,2.2-2.9C57.6,15.8,56.4,20,56.4,20L56.4,20z M55,12.5
	c-2.2,0-5.5,1.6-6.2,4.2c-1,3.6,2.1,6.1,7,6.2c-0.7,1.4-1.9,2.2-5.4,2.2h-0.2l-0.9,3h1.5c5.7,0,8-3.3,8.8-5.1v-0.1
	c0.1-0.2,0.2-0.4,0.2-0.6C60.5,20,62.4,12.5,55,12.5L55,12.5z"/>
<path class="st1" d="M32,6.1c0.9,0,1.7-0.7,1.9-1.6c0.2-0.7-0.3-1.5-1-1.6c-0.1,0-0.2,0-0.3,0c-0.9,0-1.7,0.7-1.9,1.6
	c-0.2,0.7,0.3,1.5,1,1.6C31.8,6.1,31.9,6.1,32,6.1"/>
<path class="st1" d="M24.1,12.5h-4.2l-1,5.1c0,0-1.2,7.5-8.1,7.5H6.6c-2.3,0-1.9-1.8-2-2.5c2.2-11.2,1.5-7.7,2-10H2.3L0.1,24.2
	C-0.3,26,0.9,27.7,2.8,28c0.3,0.1,0.6,0.1,0.9,0h8.6c9.3,0,10.9-10.5,10.9-10.5L24.1,12.5z"/>
<path class="st1" d="M11.7,16c0.9,0,1.7-0.7,1.9-1.6c0.2-0.7-0.3-1.5-1-1.6c-0.1,0-0.2,0-0.3,0c-0.9,0-1.7,0.7-1.9,1.6
	c-0.2,0.7,0.3,1.5,1,1.6C11.5,16,11.6,16,11.7,16"/>
<path class="st0" d="M97.1,16c0.3-1.6,0.7-3.5,0.7-3.5h-3.9L93.2,16H97.1z"/>
<path class="st1" d="M43.1,24.9h-8.9c-0.9,0-1.7,0.7-1.9,1.6c-0.2,0.7,0.3,1.4,1,1.6c0,0,0.1,0,0.1,0h5.7
	C41.1,28.2,42.7,26.8,43.1,24.9z"/>
<path class="st1" d="M37.1,7.3h-8.9c-0.9,0-1.7,0.7-1.9,1.6c-0.2,0.7,0.3,1.4,1,1.6c0,0,0.1,0,0.1,0h5.7
	C35.1,10.6,36.8,9.2,37.1,7.3L37.1,7.3z"/>
<path class="st1" d="M37.1,20H36c-4.9,0-4-3.9-4-3.9s0.5-2.7,0.7-3.6h-3.5c0,0-1.2,6.5-1.7,8.8c-0.1,0.5-0.3,1.1-0.5,1.6
	c-0.7,1.4-2,2.2-5.5,2.2h-0.2l-0.8,3H22c8.2,0,9.1-7.1,9.1-7.1c1,1.3,2.5,2.1,4.1,2.1H37L37.1,20z"/>
<path class="st1" d="M43.5,12.6L42.8,16c-0.2,0.9-0.6,1.8-1.2,2.5c-0.9,1-2.1,1.6-3.4,1.6h-3.3l0.3,2.9h4c6.5,0,7.6-6.9,7.6-6.9
	c0.3-1.6,0.7-3.5,0.7-3.5L43.5,12.6z"/>
<linearGradient id="SVGID_1_" gradientUnits="userSpaceOnUse" x1="158.3824" y1="31.771" x2="158.3824" y2="4.900000e-02">
	<stop  offset="0" style="stop-color:#DADA01"/>
	<stop  offset="1" style="stop-color:#0A7A35"/>
</linearGradient>
<path class="st2" d="M165.6,0c-1.1,0.1-2,0.6-2.6,1.5l-7.2,10.9l-7.2,10.8c-1.8,2.2-2.8,5.1-9.5,5.1c2.9,0.1,8.7,3.2,12.1,3.5h1.2
	c6.1-0.4,9.6-6.6,9.6-6.6l15.5-23.6c0.1-0.2,0.1-0.4,0.2-0.7c0-0.4-0.3-0.9-1.3-0.9L165.6,0z"/>
<linearGradient id="SVGID_2_" gradientUnits="userSpaceOnUse" x1="141.2154" y1="3.229171e-02" x2="141.2154" y2="30.7919">
	<stop  offset="0" style="stop-color:#DADA01"/>
	<stop  offset="1" style="stop-color:#0A7A35"/>
</linearGradient>
<path class="st3" d="M133.1,0c-0.8-0.1-1.5,0.5-1.6,1.3c0,0,0,0.1,0,0.1v23.7c0,0,0,6.1,6.2,6.6h13.2c-3.1-0.7-5.2-3.4-5.3-6.6V1.6
	c0-0.8-0.6-1.5-1.4-1.5c-0.1,0-0.1,0-0.2,0L133.1,0z"/>
</svg>
