<svg xmlns="http://www.w3.org/2000/svg" viewBox="0 0 73.2 81.02"><defs><style>.cls-1,.cls-2,.cls-3,.cls-4{fill:none;stroke-width:2px;}.cls-1,.cls-4{stroke:#ccc;}.cls-1,.cls-3{stroke-miterlimit:10;}.cls-2,.cls-3{stroke:#36a9e1;}.cls-2{stroke-linecap:round;}.cls-2,.cls-4{stroke-linejoin:round;}.cls-5{fill:#dbf3ff;}</style></defs><title>tent</title><g id="Layer_2" data-name="Layer 2"><g id="Layer_1-2" data-name="Layer 1"><line class="cls-1" y1="80.02" x2="40.7" y2="80.02"/><line class="cls-1" x1="44.7" y1="80.02" x2="65.1" y2="80.02"/><line class="cls-1" x1="68.8" y1="80.02" x2="73.2" y2="80.02"/><polygon class="cls-2" points="25.69 32.66 48.21 32.66 69.6 74.31 45.96 74.31 25.69 32.66"/><polygon class="cls-3" points="45.96 74.31 4.3 74.31 25.69 32.66 45.96 74.31"/><line class="cls-3" x1="25.69" y1="33.78" x2="25.69" y2="74.31"/><polygon class="cls-4" points="37.71 41.66 44.94 41.66 51.82 55.05 44.22 55.05 37.71 41.66"/><line class="cls-3" x1="25.69" y1="28.16" x2="25.69" y2="41.66"/><line class="cls-3" x1="48.21" y1="28.16" x2="48.21" y2="32.66"/><line class="cls-3" x1="34.89" y1="65.31" x2="34.89" y2="74.75"/><line class="cls-3" x1="39.02" y1="68.09" x2="35.26" y2="74.22"/><line class="cls-3" x1="30.76" y1="68.09" x2="34.52" y2="74.22"/><line class="cls-3" x1="16.88" y1="65.31" x2="16.88" y2="74.75"/><line class="cls-3" x1="21.01" y1="68.09" x2="17.25" y2="74.22"/><line class="cls-3" x1="12.75" y1="68.09" x2="16.51" y2="74.22"/><line class="cls-3" x1="56.28" y1="65.31" x2="56.28" y2="74.75"/><line class="cls-3" x1="60.41" y1="68.09" x2="56.65" y2="74.22"/><line class="cls-3" x1="52.15" y1="68.09" x2="55.91" y2="74.22"/><path class="cls-5" d="M28,8.58a9.51,9.51,0,0,0-18.83,2c0,.18,0,.36,0,.56a5.71,5.71,0,0,0,.61,11.39H27.57A7,7,0,0,0,28,8.58"/><path class="cls-3" d="M28,8.58a9.51,9.51,0,0,0-18.83,2c0,.18,0,.36,0,.56a5.71,5.71,0,0,0,.61,11.39H27.57A7,7,0,0,0,28,8.58Z"/><path class="cls-4" d="M62.45,26.78A9.18,9.18,0,0,1,54,21.46a7.18,7.18,0,0,0,3,.6,7.44,7.44,0,0,0,7.42-7.42,7.69,7.69,0,0,0-4-6.64,14.6,14.6,0,0,1,2-.11,9.45,9.45,0,1,1,0,18.89Z"/></g></g></svg>