<svg xmlns="http://www.w3.org/2000/svg" viewBox="0 0 92.33 79.06"><defs><style>.cls-1,.cls-3,.cls-5{fill:none;stroke-width:2px;}.cls-1,.cls-3{stroke:#ccc;}.cls-1,.cls-5{stroke-miterlimit:10;}.cls-2{fill:#fff;}.cls-3{stroke-linecap:round;stroke-linejoin:round;}.cls-4{fill:#dbf3ff;}.cls-5{stroke:#36a9e1;}</style></defs><title>train</title><g id="Layer_2" data-name="Layer 2"><g id="Layer_1-2" data-name="Layer 1"><line class="cls-1" x1="7.14" y1="78.06" x2="47.84" y2="78.06"/><line class="cls-1" x1="51.84" y1="78.06" x2="72.24" y2="78.06"/><line class="cls-1" x1="75.94" y1="78.06" x2="80.34" y2="78.06"/><path class="cls-2" d="M69.39,32H42.84c0-4.47,2.71-8.95,7.31-8.95H62.08c4.6,0,7.31,4.48,7.31,9"/><path class="cls-3" d="M69.39,32H42.84c0-4.47,2.71-8.95,7.31-8.95H62.08C66.68,23.06,69.39,27.54,69.39,32Z"/><path class="cls-2" d="M20.28,55.82c-17-.23-17.28.54-18.11-.64A1.47,1.47,0,0,1,2,53.82c2-5.42,6.64-11.57,12.55-16.47,12.89-10.69,21.26-8,23.64-8.37a1.49,1.49,0,0,1,1.49,1.49v6A19.41,19.41,0,0,1,20.28,55.82"/><path class="cls-3" d="M20.28,55.82c-17-.23-17.28.54-18.11-.64A1.47,1.47,0,0,1,2,53.82c2-5.42,6.64-11.57,12.55-16.47,12.89-10.69,21.26-8,23.64-8.37a1.49,1.49,0,0,1,1.49,1.49v6A19.41,19.41,0,0,1,20.28,55.82Z"/><path class="cls-2" d="M91.33,67.8H12.83c-5,0-8.55-1.35-10.41-4C.69,61.34.54,57.9,2,53.87a1.48,1.48,0,0,1,1.4-1H20.28a16.41,16.41,0,0,0,16.4-16.41v-6A1.5,1.5,0,0,1,38.18,29H91.33"/><path class="cls-3" d="M91.33,67.8H12.83c-5,0-8.55-1.35-10.41-4C.69,61.34.54,57.9,2,53.87a1.48,1.48,0,0,1,1.4-1H20.28a16.41,16.41,0,0,0,16.4-16.41v-6A1.5,1.5,0,0,1,38.18,29H91.33"/><path class="cls-4" d="M57.56,67.8H42.65V36.48A1.49,1.49,0,0,1,44.14,35H56.07a1.49,1.49,0,0,1,1.49,1.49Z"/><path class="cls-5" d="M57.56,67.8H42.65V36.48A1.49,1.49,0,0,1,44.14,35H56.07a1.49,1.49,0,0,1,1.49,1.49Z"/><path class="cls-4" d="M91.33,52.89H66.88a1.5,1.5,0,0,1-1.49-1.5V36.48A1.49,1.49,0,0,1,66.88,35H91.33"/><path class="cls-5" d="M91.33,52.89H66.88a1.5,1.5,0,0,1-1.49-1.5V36.48A1.49,1.49,0,0,1,66.88,35H91.33"/><line class="cls-4" x1="50.11" y1="35.31" x2="50.11" y2="67.33"/><line class="cls-5" x1="50.11" y1="35.31" x2="50.11" y2="67.33"/><polyline class="cls-2" points="49.33 1 59.33 1 69.33 1"/><polyline class="cls-3" points="49.33 1 59.33 1 69.33 1"/><line class="cls-2" x1="2.64" y1="72.18" x2="54.06" y2="72.18"/><line class="cls-3" x1="2.64" y1="72.18" x2="54.06" y2="72.18"/><line class="cls-3" x1="10.41" y1="72.18" x2="7.49" y2="78"/><line class="cls-3" x1="20.11" y1="72.18" x2="17.2" y2="78"/><line class="cls-3" x1="29.81" y1="72.18" x2="26.9" y2="78"/><line class="cls-3" x1="39.51" y1="72.18" x2="36.6" y2="78"/><line class="cls-3" x1="49.21" y1="72.18" x2="46.3" y2="78"/><polyline class="cls-2" points="57.56 23.06 75.33 11 59.33 1"/><polyline class="cls-3" points="57.56 23.06 75.33 11 59.33 1"/></g></g></svg>