<svg xmlns="http://www.w3.org/2000/svg" width="95" height="92.758" viewBox="0 0 95 92.758">
  <g id="Group_6183" data-name="Group 6183" transform="translate(-1184 -3206)">
    <g id="Group_6053" data-name="Group 6053" transform="translate(-81 -132.621)">
      <g id="Rectangle_2173" data-name="Rectangle 2173" transform="translate(1271 3343)" fill="#fff" stroke="#ccc" stroke-width="4">
        <rect width="83" height="83" rx="10" stroke="none"/>
        <rect x="2" y="2" width="79" height="79" rx="8" fill="none"/>
      </g>
      <rect id="Rectangle_2175" data-name="Rectangle 2175" width="92.758" height="46" transform="translate(1335.5 3338.621) rotate(90)" fill="#fff"/>
      <rect id="Rectangle_2174" data-name="Rectangle 2174" width="95" height="46" transform="translate(1265 3362)" fill="#fff"/>
    </g>
    <g id="Group_6055" data-name="Group 6055" transform="translate(-104.363 -101.074)">
      <path id="Path_4295" data-name="Path 4295" d="M-7011.067-18690.51l-25.576-27.973,8.961-13.953h33.379l9.806,13.953Z" transform="translate(8346 22066.998)" fill="none" stroke="#36a9e1" stroke-linejoin="round" stroke-width="4"/>
      <path id="Path_4296" data-name="Path 4296" d="M-7026-18732.436l7.777,12.924,8.319,29.029,9.689-29.029,7.531-12.924" transform="translate(8344.697 22066.998)" fill="none" stroke="#36a9e1" stroke-linejoin="round" stroke-width="4"/>
      <path id="Path_4297" data-name="Path 4297" d="M-7036.643-18716.738h51.75" transform="translate(8346 22065.078)" fill="none" stroke="#36a9e1" stroke-width="4"/>
      <path id="Path_4298" data-name="Path 4298" d="M-7016.515-18718.617l8.258-13.48,9.263,13.48" transform="translate(8343.536 22066.959)" fill="none" stroke="#36a9e1" stroke-linejoin="round" stroke-width="4"/>
    </g>
  </g>
</svg>
