<svg xmlns="http://www.w3.org/2000/svg" width="95" height="92.758" viewBox="0 0 95 92.758">
  <g id="Group_6049" data-name="Group 6049" transform="translate(-1265 -3338.621)">
    <g id="Rectangle_2173" data-name="Rectangle 2173" transform="translate(1271 3343)" fill="#fff" stroke="#ccc" stroke-width="4">
      <rect width="83" height="83" rx="10" stroke="none"/>
      <rect x="2" y="2" width="79" height="79" rx="8" fill="none"/>
    </g>
    <rect id="Rectangle_2175" data-name="Rectangle 2175" width="92.758" height="46" transform="translate(1335.5 3338.621) rotate(90)" fill="#fff"/>
    <rect id="Rectangle_2174" data-name="Rectangle 2174" width="95" height="46" transform="translate(1265 3362)" fill="#fff"/>
    <g id="Group_6056" data-name="Group 6056" transform="translate(4.839 2.482)">
      <path id="Path_4285" data-name="Path 4285" d="M29.443,6.6A34.574,34.574,0,0,0,1.3,21.035,34.744,34.744,0,0,0,29.443,35.47,34.574,34.574,0,0,0,57.585,21.035,34.744,34.744,0,0,0,29.443,6.6Z" transform="translate(1278.611 3360.656)" fill="none" stroke="#36a9e1" stroke-miterlimit="10" stroke-width="4"/>
      <ellipse id="Ellipse_783" data-name="Ellipse 783" cx="8.006" cy="8.006" rx="8.006" ry="8.006" transform="translate(1300.047 3373.684)" fill="none" stroke="#36a9e1" stroke-miterlimit="10" stroke-width="4"/>
    </g>
  </g>
</svg>
