<svg xmlns="http://www.w3.org/2000/svg" viewBox="0 0 97.54 90.02"><defs><style>.cls-1,.cls-3,.cls-7,.cls-8{fill:none;stroke-width:2px;}.cls-1,.cls-3{stroke:#36a9e1;}.cls-2,.cls-5{fill:#dbf3ff;}.cls-2{fill-rule:evenodd;}.cls-3{stroke-linejoin:round;}.cls-4{fill:#36a9e1;}.cls-6{fill:#fff;}.cls-7{stroke:#d9d9d9;}.cls-8{stroke:#ccc;stroke-miterlimit:10;}</style></defs><title>welfare-facilities</title><g id="Layer_2" data-name="Layer 2"><g id="Layer_1-2" data-name="Layer 1"><circle class="cls-1" cx="82.54" cy="39.71" r="14" transform="translate(26.56 112.21) rotate(-78.02)"/><polygon class="cls-2" points="85.86 31.11 85.86 36.05 90.8 36.05 90.8 42.64 85.86 42.64 85.86 47.58 79.27 47.58 79.27 42.64 74.32 42.64 74.32 36.05 79.27 36.05 79.27 31.11 85.86 31.11"/><polygon class="cls-3" points="85.86 31.11 85.86 36.05 90.8 36.05 90.8 42.64 85.86 42.64 85.86 47.58 79.27 47.58 79.27 42.64 74.32 42.64 74.32 36.05 79.27 36.05 79.27 31.11 85.86 31.11"/><circle class="cls-1" cx="48.77" cy="15" r="14" transform="translate(23.97 59.6) rotate(-78.02)"/><path class="cls-4" d="M48.77,14.5a2,2,0,0,1-2.16-1.83,2.19,2.19,0,0,1,4.32,0,1,1,0,0,0,2,0,3.83,3.83,0,0,0-3.28-3.62v-.5a.79.79,0,0,0-.84-1,.75.75,0,0,0-.8,1v.5a3.83,3.83,0,0,0-3.32,3.62,3.94,3.94,0,0,0,4.12,3.74,2,2,0,0,1,2.16,1.83,2.19,2.19,0,0,1-4.32,0,1,1,0,0,0-2,0A3.84,3.84,0,0,0,48,21.87v.41a.75.75,0,0,0,.8,1,.79.79,0,0,0,.84-1v-.41a3.84,3.84,0,0,0,3.28-3.63,4,4,0,0,0-4.12-3.74"/><circle class="cls-1" cx="15" cy="39.71" r="14" transform="translate(-26.96 46.14) rotate(-78.02)"/><polygon class="cls-2" points="7.18 38.52 15 31.16 22.83 38.52 7.18 38.52"/><polygon class="cls-3" points="7.18 38.52 15 31.16 22.83 38.52 7.18 38.52"/><rect class="cls-5" x="10.08" y="38.52" width="9.94" height="9.04"/><rect class="cls-3" x="10.08" y="38.52" width="9.94" height="9.04"/><rect class="cls-6" x="43.85" y="62.41" width="10.71" height="9.06"/><rect class="cls-7" x="43.85" y="62.41" width="10.71" height="9.06"/><path class="cls-6" d="M39.73,53.35V50.88h-1L38,47.79a9.44,9.44,0,0,1,9.61-9.27H60.32v8.74l-.82,3.09v2.78c0,5.75-4.48,10.47-9.92,10.47a10.2,10.2,0,0,1-9.92-10.47"/><path class="cls-7" d="M39.73,53.11V50.88h-1L38,47.79a9.44,9.44,0,0,1,9.61-9.27H60.32v8.74l-.82,3.09v2.76c0,5.75-4.46,10.47-9.89,10.47S39.73,58.94,39.73,53.11Z"/><path class="cls-7" d="M43,48.41V46.23s6.92-2.54,12.35,1.7"/><path class="cls-5" d="M64.44,83V74.23c-.27-4.52-10.13-5.69-10.13-5.69L49,70.63c-1.7-.75-3.4-1.5-5.11-2.09-1.79.5-10.76,1.59-10.76,5.69V83"/><path class="cls-1" d="M64.44,83V74.23c-.27-4.52-10.13-5.69-10.13-5.69L49,70.63c-1.7-.75-3.4-1.5-5.11-2.09-1.79.5-10.76,1.59-10.76,5.69V83"/><line class="cls-1" x1="48.79" y1="69.82" x2="48.79" y2="83"/><line class="cls-1" x1="39.73" y1="76.41" x2="39.73" y2="82.18"/><line class="cls-1" x1="57.03" y1="76.41" x2="57.03" y2="82.18"/><line class="cls-8" x1="13.12" y1="89.02" x2="53.82" y2="89.02"/><line class="cls-8" x1="57.82" y1="89.02" x2="78.22" y2="89.02"/><line class="cls-8" x1="81.92" y1="89.02" x2="86.32" y2="89.02"/></g></g></svg>